<mxfile host="app.diagrams.net" modified="2020-04-04T11:06:05.008Z" agent="5.0 (Macintosh; Intel Mac OS X 10_15_4) AppleWebKit/537.36 (KHTML, like Gecko) Chrome/80.0.3987.149 Safari/537.36" etag="GB928ESbvcKGkSqO6mIy" version="12.9.6" type="github">
  <diagram id="8jw519kHLIe-T5wEmIG4" name="Page-1">
    <mxGraphModel dx="859" dy="1679" grid="1" gridSize="10" guides="1" tooltips="1" connect="1" arrows="1" fold="1" page="1" pageScale="1" pageWidth="827" pageHeight="1169" math="0" shadow="0">
      <root>
        <mxCell id="0" />
        <mxCell id="1" parent="0" />
        <mxCell id="8M1PxrnFKsvRRrVdLFiL-60" value="" style="rounded=0;whiteSpace=wrap;html=1;" vertex="1" parent="1">
          <mxGeometry x="30" y="-1150" width="1470" height="990" as="geometry" />
        </mxCell>
        <mxCell id="8M1PxrnFKsvRRrVdLFiL-33" value="" style="whiteSpace=wrap;html=1;aspect=fixed;" vertex="1" parent="1">
          <mxGeometry x="50" y="-540" width="330" height="330" as="geometry" />
        </mxCell>
        <mxCell id="AeGNpR7aDOQoZc7-FQpF-2" value="" style="whiteSpace=wrap;html=1;aspect=fixed;" parent="1" vertex="1">
          <mxGeometry x="50" y="-1107.2" width="530" height="530" as="geometry" />
        </mxCell>
        <mxCell id="AeGNpR7aDOQoZc7-FQpF-7" value="Kubernetes&#xa;Engine" style="html=1;fillColor=#5184F3;strokeColor=none;verticalAlign=top;labelPosition=center;verticalLabelPosition=bottom;align=center;spacingTop=-6;fontSize=11;fontStyle=1;fontColor=#999999;shape=mxgraph.gcp2.hexIcon;prIcon=container_engine" parent="1" vertex="1">
          <mxGeometry x="350" y="-1080" width="110" height="100" as="geometry" />
        </mxCell>
        <mxCell id="AeGNpR7aDOQoZc7-FQpF-8" value="&lt;div&gt;kubernetes-apiservers&lt;/div&gt;&lt;div&gt;&lt;br&gt;&lt;/div&gt;" style="text;html=1;strokeColor=none;fillColor=none;align=center;verticalAlign=middle;whiteSpace=wrap;rounded=0;" parent="1" vertex="1">
          <mxGeometry x="125" y="-1011.9" width="130" height="20.75" as="geometry" />
        </mxCell>
        <mxCell id="AeGNpR7aDOQoZc7-FQpF-9" value="&lt;div&gt;kubernetes-nodes&lt;br&gt;&lt;/div&gt;" style="text;html=1;strokeColor=none;fillColor=none;align=center;verticalAlign=middle;whiteSpace=wrap;rounded=0;" parent="1" vertex="1">
          <mxGeometry x="130" y="-991.15" width="100" height="20.75" as="geometry" />
        </mxCell>
        <mxCell id="AeGNpR7aDOQoZc7-FQpF-16" value="&lt;div&gt;&lt;div&gt;kubernetes-nodes-cadvisor&lt;/div&gt;&lt;/div&gt;&lt;div&gt;&lt;br&gt;&lt;/div&gt;" style="text;html=1;strokeColor=none;fillColor=none;align=center;verticalAlign=middle;whiteSpace=wrap;rounded=0;" parent="1" vertex="1">
          <mxGeometry x="130" y="-963.4" width="150" height="31.5" as="geometry" />
        </mxCell>
        <mxCell id="AeGNpR7aDOQoZc7-FQpF-19" value="&lt;div&gt;&lt;div&gt;kubernetes-pods&lt;br&gt;&lt;/div&gt;&lt;/div&gt;" style="text;html=1;strokeColor=none;fillColor=none;align=center;verticalAlign=middle;whiteSpace=wrap;rounded=0;" parent="1" vertex="1">
          <mxGeometry x="130" y="-941.9" width="95" height="31" as="geometry" />
        </mxCell>
        <mxCell id="AeGNpR7aDOQoZc7-FQpF-20" value="&lt;div&gt;&lt;div&gt;kubernetes-pods-slow&lt;br&gt;&lt;/div&gt;&lt;/div&gt;" style="text;html=1;strokeColor=none;fillColor=none;align=center;verticalAlign=middle;whiteSpace=wrap;rounded=0;" parent="1" vertex="1">
          <mxGeometry x="127.5" y="-910.9" width="125" height="31" as="geometry" />
        </mxCell>
        <mxCell id="AeGNpR7aDOQoZc7-FQpF-22" value="&lt;div&gt;&lt;div&gt;kubernetes-service-endpoints&lt;br&gt;&lt;/div&gt;&lt;/div&gt;" style="text;html=1;strokeColor=none;fillColor=none;align=center;verticalAlign=middle;whiteSpace=wrap;rounded=0;" parent="1" vertex="1">
          <mxGeometry x="130" y="-879.9" width="160" height="31" as="geometry" />
        </mxCell>
        <mxCell id="AeGNpR7aDOQoZc7-FQpF-23" value="&lt;div&gt;&lt;div&gt;kubernetes-service-endpoints-slow&lt;br&gt;&lt;/div&gt;&lt;/div&gt;" style="text;html=1;strokeColor=none;fillColor=none;align=center;verticalAlign=middle;whiteSpace=wrap;rounded=0;" parent="1" vertex="1">
          <mxGeometry x="130" y="-841.9" width="190" height="31" as="geometry" />
        </mxCell>
        <mxCell id="AeGNpR7aDOQoZc7-FQpF-24" value="&lt;div&gt;&lt;div&gt;kubernetes-services&lt;br&gt;&lt;/div&gt;&lt;/div&gt;" style="text;html=1;strokeColor=none;fillColor=none;align=center;verticalAlign=middle;whiteSpace=wrap;rounded=0;" parent="1" vertex="1">
          <mxGeometry x="130" y="-801.9" width="115" height="31" as="geometry" />
        </mxCell>
        <mxCell id="AeGNpR7aDOQoZc7-FQpF-28" value="&lt;div&gt;&lt;div&gt;&lt;div&gt;prometheus-pushgateway&lt;/div&gt;&lt;/div&gt;&lt;/div&gt;" style="text;html=1;strokeColor=none;fillColor=none;align=center;verticalAlign=middle;whiteSpace=wrap;rounded=0;" parent="1" vertex="1">
          <mxGeometry x="127.5" y="-761.9" width="142.5" height="31" as="geometry" />
        </mxCell>
        <mxCell id="8M1PxrnFKsvRRrVdLFiL-1" value="" style="shape=image;verticalLabelPosition=bottom;labelBackgroundColor=#ffffff;verticalAlign=top;aspect=fixed;imageAspect=0;image=data:image/png,iVBORw0KGgoAAAANSUhEUgAAASMAAAD5CAYAAABs8lPQAAAgAElEQVR4Aexdh3dc1dH3PxTbkk0IEBLSyJeegG0V22DAdAgOvbdAINTQOySBQGgJISG0BEKxcVfvXbL67mpXbdXs+c5v5s57d6/eNkmr5tU5e24v796Z352ZO+9pDeX/8iuQX4H8CiyDFVizDOaQn0J+BfIrkF8ByoNRngjyK5BfgWWxAnkwWhbbkJ9EfgXyK5AHozwN5FcgvwLLYgXyYLQstiE/ifwK5FcgD0Z5GsivQH4FlsUK5MFoWWxDfhL5FcivQB6M8jSQX4H8CiyLFciD0bLYhvwk8iuQX4E1x44do0x++aXKr0B+BfIrkMsVyBiMMgGsXNXJ5QLk+86vQH4FlscKrAgwyhXIpep3eWxPfhb5FTh+ViAPRhmqqamAKxdlxw8J5p80vwKyAnkwWqZglAuAy6bPPIPkV2CxVyAPRnkwyugCIxsgW4i6i80I+fGWfgXyYJQHo2UJRgsBaPPpY+lZ8/ibQR6M8mAUCEZgBTAzHYXrx4z1O0ZH6RgR5yW6hSAb9emohAoGylZeGnVmtI72rWPJeBhDx/fnkDie9reaQl2r4zHMg1EejALBKIjBBWhs0BDsQd2jR48yYB2lGQaroPZ2HsBG6s7QzDG0BZIBAA2eMaBJmvO4vgCh3U8+vjAAvRzALw9GeTAKBCOVTFxmVwBh8YelIEWPRKZI1h79oWzmqACND3CQlHxpTMdxx8+nE9d5NayHAmEejPJgFAhGyYmc6CiDBtQrYQyRaBDXPA39cr+O5IkkJXHtxwYwGUPVPh/wFLy0TT5MXMOVvB55MMqDkQcqNiGz3cfYjY4enRagSbAj2Uyg6ppIN749yACPUbG0fwEUlYQgEIm0pGCUCFxQ+6DKYQ46pkhQflrz8+FKXpM8GHkEnifkREL2VSY2TB8T2w4AA2ACO05CfcYWWcN00guXGynKByLfkC39WuNDHTTGcZRxMr9vieu/CtZjDcTlhfglEOYqWJj886hRGuADYMAFGCQYAQkGEdalZgw4HWNDtEo3Xqh1js0YI7dvhFYgwlrLIKaOSmAcytg8sLmlS5Sc8ofIaqHVBQOjhQC0ufSxWjZiuT0H74W5Xp+ZnKCp4ShNR/posquRhqsP0dBn/6D+f/6Zel59jHqev5uOPHIDtf/+Muq48zxquXkrtd5QRC3XbabGq35JLVf9in8cv24zl7Xesp3a7zyf2u+7nLoeu5H6XryHel97nAbee4WiX7xLsdrDNHWkhaYjAzQ9GqPpqQmWBPJAtHrBd8WD0VwAbCHaLDV4eDadGVyLi81G1SO5qQLRQvWB0OHHbZDxn0G0IDC69qHtpmJDNN7eTMMVe2loz78p/P6r1P3qE3Tk8Zuo5XcXU/MNJdS86yfUcP63qHbrBqor3cBh7dZCwq9uG9J+HGnJk7p120+ghgu+RU27fkItN5ZS6z2XcN89rz1OkQ9eo6GvPqCRyv0U72qj6ZFYICAFA9QMPxSeETYnrAV8o2QtRNryJTMRzFCG9cGz+2uzepl/uT1jHowWSE1dCIDLpg9hMl/lsQlrxhh8GVjAZ2qAFoRhhoTdxQceYcKJoRCNNZRRdM8HNPjha9T72qPU8fDV1HxTKdVf8n2qP+tEagDgbC2k+q0bPbCpR54BnaDQzkMcv5qtG7gPtK3dLnncTyni0jfS9Wd/g+ou+T4137KVOh65nvpef5IGPnqdovs+ptHmKpqKRTyAEqDx10RVRcZYqJh4Zl4P8YmiowpOomJiDbncSIT2mubjuQflPBitVDA6Os0gwyf5jNj94DyogHYMEtMM0cyMseXA7oP0MbSTk39ioIdiFbtp4KM3WUXqeOgqat71C6o/+yQGC5V0IO3UlPrSTe3WApF2tguoCHgIqKAMYKUA5EpHKiXVbjP1SgupZpv8vDLtH/3ouKUSZ8lr20aqP+dkar7mDOp6+DoGqPAn79BI9X6aCvcLOB0lmqZpXxqy7U8s+Yh0JAAkHpYcZ+t4omtCHohyD0RY4zwYrVAwmj46xaACYAEACRAZH6CZo+xUyFfiMzM0MwPDMNGxeJxGWqoo9OnfqP8vj1D7/b+h+st/TLXbv87gwqCwFcCzkUGgprSA8AMg4IfyaoBDSSHn2+Us4WzdwOUKXD64CJBpfQ55HOkLoMc/7lfGqCmRvgQQfVDSugp2LGlhfjtOZvsUJDlIdJFP/0nj7XV0bHqC14cdCIwRHRKTp+Ya73HOg1jkqbWLw4B5oPPXOQ9GKxSMRPI5aoBG1A5IPSL5GAlpZoqOTU3RaEMlDf7zZTryzO3Uess2lnwSgcLYekqM9LEVYAMAEZDQuEpASAtgiaoFcEF/Wg9AInX8PPTl5iWAkwd6MhcGRvRrARTPuUQAUstZUiqR8UXNK6R62K3OO5XabjuXOp+/i0IfvEGjrY10dFrUMqitAGoBdF+qnD4qEhGXp6GLPIj4ILJQa5EHozREp2rPcgvlfS5fKhLpxwehsc566n/3j9T+xI3Uct0mAxQCIgIaIq14IAGwYPBRKUSBqICqtxaIKsWSUiHXUyABQPjlaKvtBMwUgLxxGMhUuvLBSutpCAkMfWl/dprnz8BpxoJEhjmizbaNDJQKjgyU27/ON3xtT99K4fffoHh3u1FZZb2OTSsIQbVFnqzrctvzhWL65dpPHoxWLBiJ7YcZZkZUtpnRMRr66kPqfPxGarlmkzAyAISNzaL2QN0C4wqzGtuPue0C46JMyn1GZwmpJFGlAnApcDA4eGnte7Zkxf2oSsaSlI4vYwFwuF8DigJ4/risJpq5V28zYFpi1MhtG0WFNP3Xl4qExGBk1Mc6bnsCNV9XREeeupWiBz+n6YlJUWnZBqdAhLU1wJ4PeS0WA8DyYLRCiQ0nOK7woVJMdDZQ39vPUtttO1g9qTWqDAzJIpFAWhD1RsqEkYNARKQRsRmhrQcQLNEoeKj0BMlGwaeAavkWzKhZAWqeDUYekHkgJnNiWxDPX6Qm7t+oYQqArLoZVZBVN+85AVxiGAegqlTFN38lGw3IigSFfhsu/A6133kB9b/7Z5ro6zAAJGuaB6PFB+M8GC0RGAmQ+BsONYvvntnIat2UGZ8XMAcDEOxAAKLJCRqu2sd2oMbL/4+vx22g8ZlUAEOZX8BJwcgHFwUVv50v+fhtfBWMb7lK5AqexzVqngIAQEUAQQBR4jCUow8ZX0OMbY8v6UQVLmgOmqegKn37c9S0liP07F4GBDEHgFzLFT+jrhfuoZGmSprhNRZQ0hvKY0fVHjdtDoGjbHOC/xIDFx0jtjnxLaa/r3lQy3wt1oAJcv3Lb8jsDQFx08w0A5ASPK7h+dbL2C3EfnGUUPfosUkumxkbo8j+T6j9wSuo/sLvUS0kk+0bqLYE0owCQCLDC6MLk/oMLADgAoEChDKyhsrQdhrqn6h0qkoJgNhSSRVLKBsFBEp8+xODgANC/tgCYDpWUKjzQahx1LPjQWntS9eK60DK2lYoLgkXnc7e5HB5mB4f9w8A3LpNC/B4zpM4FPimUm1NuEg4xu4UeZqfTfPp1mRRwCjXYBfUf7oHXw7lTLjHjtL0jLmZMHaLadw8Q2LDh8pYFSN+HQP2oI57LqHaHadQnTHg8q2SsZ8IYxaQXLP70k8QGClTusys+TYwKGBJP0aqKTHX/EayYADSG7XtegtWIHYcBktIYWIIbyjxgVHH03loqPl2iDKk7Tp2XMvcNioN2eVYN9y6cXv4OVk3dyz1nXcqtT+0i4YP/Y+m4iPsDImzYxofggMIHcPGHBNcMn5bSlPwb9J4PswclFYtGAUB1GLmpSNCJmhzawNRH2obruXpGIzR2EBisf/o+ChF931Krb+/lK/kq6DiwJiMWyzPLqNGab198pnWZkCbSTVuMzPimm+DUVAczMu+R9xG7DB1pRsJhmP2ETK3W/Wod8kPqeHS71Hd9q9TlfFR8sfx1SodX+dkh0H1g/K0j6Ay5Gk5wLMe0pACnBq+LbCrKT2B6s89lTofupKih3bT9NR4AsiwxHqUaOoovmgwySDFb5x4xvDMGTEdvRwP5XkwWgQ1NTUITnk2ChDy9PQ0TU9Pcl6saj+1PbCLas76BtUUCwAJAEDiMMZlPtU3Um3JCXLKG6ZSplMGtNN2HvLtnzKxW1/baDmnzWsgKjGhDealdRouOZ16Xn6YouWwbd3GZVInUbXSvnVMDbWfoDCbOkF14ScF0ASwQ2XD+sJ2xGBvbvogPSkQ151zCr/QO9ZYxeoaS0Z494+Nf753O17FEUDKA1G2AJoHoyUCI7U/sIoGG9HMFE1B7J+eorG2eup84W5Wx2ATYidC61Rn1czYW5TRYJsR+w1AypcAbEbXugiT/ZTxU9VFHQYdI+VUmVs3VcPA4G23n02jLXUs4U0MHKGmXT9jkMIcq0vWe+qWPZ49J83X0J2P5mtot7XrotxNcxvM3ahnACP25Davn6hkxyAFd4eS9QxUAKa6C75HPW88SqPdbWzzAyixcdvY+2RfjZq9RJcj2YLAcqmfB6MlAiN4/+LWBoQAwzVAKT7QRwPvvESNu34mznvFwvR8vb6tkKpK1xsQgVp0AlXhChynuWcYLqDKkvVyHW8Zdm1GdZnTLrPjyZjcZmxIRAAlqGaVan8p2UAdD11P8WiYjk7DmDtD3X9/QYAIdibjUR00lo6pc7TruPF0dey+NK5zl7TvrIk5aX8csk1L1E0GKkh7JYUEwJc+Cqn52iIKffgmTQyF+YsAcLHQi4hMPLiXCwAsp3nkwWipwAgn6bR5b2wqTpED/6PWuy/wTnGxBxUy0OBEhkQBRlC/H6hrcPwDEIFRAAqwxwhTieEYdd0f++oYSSaoTPtPVmbnA4wgXWBcbldaSJ0PX0uTsbB3QzsVjVLbHecyCFXjup9BS54lCGAUFNwyAQFfyklVT9uijv60vbbjdTNSk3ht+2uldXjN8T6e8VmSZ4SkBKmqgFU6fI8Jaqh4cYtE5INSXlXLBuzyYJQjMALQQNqB+jXDP7nyhS8K/3CDBpWsp43tKnUXnCa3TXhB1ACPMhBCGwQQB0D5thowt+V8aIzbbptM0wAsZUhlbDfUOegb/Bi/9fadNN7dzs/HXwuYmaKxrlZquOx0nj/cD/RZ3P6SpYPmEZSXrL2dr+2CpDO7nsa1PqcBXLYTKAOZrDtsY71/e5rGw4OEmwje32nxQ8LeIw0JUWlC6GHhXGqyYfjlXDcPRjkCI/YZguRz7ChNzUwzIeL0FGlIHOQi+/5DzXec59tftp7A/kICLCIFBDJGCpuP1s8UeLSeKzFpP8lCtGNblplLw2U/psihLw3TiXoGQ3ys5hDV7zxNwAgMzHaaRJtVAtM76mVQWbI5LXR+wtiONIlnr8OzICyFCldIHb+/gobKvuBPl7DqPY0rfqKZKfFH0osMvn3LGd0tHMjpfNOFCwVwa+T2ZtoTq9MNnC/PZrNFKpKTUSQjnIrxyCAdee0xqrvodJZoAATwDVKbBMBooRkr2/7AiPoLagvVkPNZYthIPX99lGYmxUnw6MyEp4LCQRPX46gLiU+N1wmMHgCubrnOxc0PmhvyMq2XrP2sPgIkI1afjZQq9rwCqv/1T6j/3ZcIzqli2BYJ2ZOSpydZIs7z0Ww+8sBIQWmxw9W8KUyAxojLz3mUaKTmILX89gJjYxHVig3QYEhztcw3Y46EoEyjTKnpVKHW1dCuq3ka2mWZxFkyMqDZfPM2wofaYJSfZvVkhmamcMAdo+iBT6j63FPEzsKqDVTO1Gpg0JyC8lLNE/Xtcjdtl2UaVykSofh7yUvIvBYsOYmhu3b7CdT24JU03tbAqvrM0QlPdVUVfTXT/VyfbcnBaLHBT8eb64Jl2w6AxCrb0Wnq/+gNavj1j9ngDHVF3iUT50G2E0EaMcZgJXxlFGVGDTV/IULtM1kYPIbc5NVsO4F6339V7CHTeGXlKPtKYZ0ATMPVB6h257eMzUucMpl5LbDVcXUcO424na/xTEPty+4no7ZGEmL1NUByYxVVwXVrAcmBAgO92PIwBv4BQWTPB57WoUCkFxfZ0tJqr3/cgpGCUq7CqWmiKXhTT03TeCREXS/+jr+oqKcoTlZlSmUU9k5m9UgYXesi1DrKSMibz0+ZVPtzw/R9Q63cQK23bqfJcIgZbmrauCmwkV4Mt2NdLdR44enm1k3UTzG++3Yj99nsuaQqs+sli6d7zmTt3OefVQ/2IkhDJXitRD6zi7R9mHB6x8nU8+aTrLYBqKdm4NAqNrXVDi7ZPl8ejNjjGV7PC/sD0U1OzdBwWw213nsRVZaK/4/YhXAdj6th8+O4qC84YWEzYvsKbtXM1bKmvTAdGBknSK8+xsIcnHw2KIOx3HEy6B8M2vf20wxE4jU+I69GsIomL5XCPtZ4fak8k+kzyEA/i9kdyckuzwSg3DoKSm6+3a8dTwZG2o+nSpt1Y2DC8/FNqIAu92EcJtsfvZ4mjrSJ5Ghu17Jl1tVePw9GCwxCCmozk1MU3v8xNVxfLPYST3wvYGBS6QAEy0AAr2QFIfP2vQscblrBBaEdd+vNJQ1Q1J/LmDxnfLzs8v+jWEs93xbiuaF+TOLmcGqSbUbTk1M0NT5CbU9c571LJ++m+VKRDQBBcWV+uywTQEnWLpO2GEufWUHGHh9x6d9XybRc/KjkYMGBw0Zu/qjbBmq6/VyKVe/zjPurHVyyfb48GM0TjKamYLSdpJnpOPEnlifFz2Tg47ep9tIfiiSCj44ZSQhEDgJV8ABQIG5LJnY8EyDRvjTMpA3qpBqHmdCc8jpHZVABowJ+bw5uC/jh+toD4il5vw7pqck49b/3F/4UrDemkSDceWY1f/b6FsdDAAD35Ukm5ubOkQITxrMAx34ujduA5OWZ630AkZ2ngCV2IwEyqOEMUGpXYqN9ITVe/Ssa2v0+HTV0wvZEeOLP4OYVjrBw+5jw7EzZMvRKrp8HozmCEW6LxEYyw+oYCAmgBHDqfespqjn3m3KdvU1e14BqAtFeJCJfDVMGSQUMWieXYbLxXZURjIdf5daNfIUtdhCRihSMJDSG7KlpijUcptqdp7KkhXFUWpjP80DtrTNrCncBAYINLHWyPc4CokCQSwNGCjapwmSSI68RbhqLxROeveXNeHj22ou/T4Mw+uvrQPBF8uxI6gIy++p7JQNNJnPPg9EcwWhyWnyIRDI6SjPTkzQxNkrtz93N9hEwgDIBGBAMwgwDJjEnuM2MLhi4abvucojXXvIDGm6qIahiDD5TE566hjSf8DPHaGJ6iuKxEDt3srTABnpfcrHXKZvn8iQXADxsYfriK0sis8F+Vt/pwMgCs1ltdQ9T9IG9Zt+x0vUMkABPkZZEEq7ctoGOvP4kTU1MGsnSt1nC3pgI7H7ZXPMzAYOlrrMGzBT0m+tDHy/tAD5TU/CoPsYSEl6Y7Hj0aqMuyHW0R8SeMdYwId4js4zJdtxrk44ZFrg8aA4MFHgJNwA8G28spcnxuGEaAWNcXQs4q5oG6WiSpqcmqP+frxjVRpw75/uceDEX6hLPkW+1RNWtwqdBAuY7a7wUQBL0vHZ7Xiv4Ghm7WpD0hPlpGw84Yczml4vVTlhInS/cQ5PjI0xDWDsGBKzZHA/J5dYuG4BLCkZBAJXrvOW2kKnmAyBiNW1qmh3+2v9wjUhEhnn5toVffTBfPWTpyLxkaQzVKv0kAwIlZjfU+hqi3I679ZOlk7VBvje3IDAqLaSWB6/k55c1OsoGaz3RQYCSD1uaGLOHm+up5sLvMCDx2swTTNEHMzZus2CH23EyNd92LlVfeGogeM5agxRg5EmwaeaIddIf+tc147FK8CUDkdB4nQ14oUznDl8lxPG/3eJDESNZiqSUivZWa9myAqNcg12q/rPdYAARnPrGjzSzty18bvTUY2LjD3fJB+tBgOWwb5gPeaE86DRlJkjBJEFt5poHxmEmcZgogaHsuRjGZGlg6wbqefUPLPHIuslaTE7D8HqMVTf4V/nG7WmaGh6htkeuolp84sRhcp2HnR+UZ5cj7j3Dtg3U/dL9NPDBa1S785v8yolbd1baPFuyNU9YB2e+s/oKKPf22JTx7Zt+QgWq6nYAkawFQKnj2dspPtjFNIWDLlt6XA3182CURE1NBVxaNtbTSS3372KmhiheWVxAFeb/i7GNoESu8ZEPIGJGNnkaV2bQG5m5gou20/40nSx0mS2Q+QPACKc9/h12379ekRugqWmanIRaIQZrP4SqpnnTrL71f/Yu36qpxJAJU9t1EuZoXsnAunWBkaNh6nz+TnbE5NuuAICw+0q2LsjHGrrrk9DW6jtVPU9dxDqa7yHxQcWGd99bG+NVQEJ66laKR0Ki2q4SNS0bkMyD0RzBaGKwn5of+I0YpUFo/OEzkXgARJXF4msCImRCZCMrHB9FNAcB6k/AStLKDBpqHTtMVWb3ZbeZFU9is8JzKNOjDcbin2FAGGHrzzmZQv/7F0s+kIBws8gGfXPDqLeK/H4a2z/krXV4Y9dd9qNAm46OmYzpg/JrSwqo8bpiGuvvo8mJcWq48hfGhcK31wS14zx9riShfYuofSjw2GWap3UQ8hoC0LzPwYgTpFxi+P/Djuuyy4d8uA3r3PncHTQ5FstLRnri50MY9SEqw0g9wVf3MMIyw01O0cRojFoevFoApwS3JRuoqngdlYFhLQloFgBYAJRpWRDwAHCC8rVPlGFOqAcpBPmIM3NATQJAbkUZXmdYT1UsuRVQdXEhlaG8WOwd2g4h1zM3gjXnfYtCuz/0jNU2vUxOCjBhvbCGuE3DjRsD1mScOv50v8xHQU8NvQi3iY0FzM4Mb6QJta1gDshn4MIrGGedSGF+92uKovXlVHPBd31V2QbSIMCx1FMGDwPOmYBiJnWwBwpQswDLcoBFPTi78l6YNrAhTU+M0SS+jYSbSQP4kDSh+vKlwCqUnPKSUVLJaIId9qYnZxiEcAXLHsVjY9T26A1y+rG0I164DADFxg5j3bQoQMwnZFAxgJFpP/j8LFRDEDkYmMGpdD1VsJpoTuoiI7WViE2rEp+5VUmOAchXLQEECmy1559Gob2fBN7CsmEfazozTRNTYoxFHlQ5AHu0YjdVbfsGAx4ztQeMBvAYsDfKWAAsMw9IlJA28atAvGQ9fyecb6Impmnwf3+nqnNO4vnjWTNZJwYMNSwHAVYGeTw/U8+Oa98IFYxsVZzVNXPBodIUvoSpql3Pnx/0wR7q7gyxjU782eZ/1Z+N+rRYdfNglASMJmbkZNdTH685xEfH6MhL93j2H2ZwqGMsZRipqFhAwGYGEKSdXoy4B0IAMXPql1vMjTyAC4OTqQPwAuhUqBOhkfKUsVAfwFh70Xdp6PBuPrUBMLpGEsr1PuIiWZrrfvgjTU7R5Ngwtf7+Em89FOAwLjOlAUteI55vIQOPphUs667eRNHWWpFap49S99+fYxWY1eA5SKCLsSf2GFAxsQcs6RkbFQzaHmBtLaDut1/gtYVzJP+bpCnY5uRF28UCiMUcJw9GScAIKpkyF4BpYipOPSB4ZVD8a5ti8fgFQ4PQmFlLN3jMbBPffOIAALt9JuAGyYEZHQx93imswsBrGiClDM1z1r4BoqhrQApl3rNaEgLy4UE8VLXPASFdLw3h+jDOYAEgh4Spv4GP32RAhzrIY+ILBqySFbLExMBk1pkB0thhKkvW8TpAMsI/LoAqiH/zDdWw+88PyaHAz5Mc/BVYdT01ncmaaptsw6C+sTf8/KAdqN2Q+Dx700Zel7pzT6aBj/9OuKXEMzKYQ+3FazZJ6DbT/MUEmUzHWgPxORe/TBdludYD4/Cb95NxJoKBT9+h+vO/Q2WGSXGiMQhBKjL2GGZkxI2dBkQbRIhBxJxpvaC2wXnC2Cirv+qXFN7zEQ1+8AY1XP5TZlo5gWHrEtBig7sHABb4GWkK/WCOAI3ai39IQ/XlorZCAsILsYY5fBBHnkiXYCZVd1E+0tFM9VeewWCpgAfjLkAI4MP/4cRISry2ZlxxjyigxptLKdpeJ2Pi6wjxCep64R7vywhenzmWkNxDAmsUlBe0P5gjfrh95X/1pOqxB7wbqbx4HdVe9hP+d+b4AgSvIfu3jXvrreu+EsJ0oJQzMMoFwGXT53w3hw2xTABTFD78JTVc8TMhHBBP6XrxGyrdKKcaGAj2jJJ1bB8Q24bF0PNkCgaBFKoeGCCICfhWD8C445uEf40dn5qkkfoyavjtTvl8SfE67zUVlZgABsxUCqgWGLE9A2B02U9ouKPZA6EgMBIAAiDNEL5gwBcB01Ni0J6aoM4X76WK4rUCcHzzKLY3kS7lcyvqHsFA6BnVC6nvzacSmRGG8ed+y2oa1sE+DIKAgPtLsZ7J2ixkPqvMRn0GILGkBADmeRlJEeWlhdR07WaKNlSYZ5YLlfnS93Jsv2rBKBvgCqoLg/XkZJxGOluo/lr5DAhAiO1Dql4YFYdtHaoeFAlTLSThzqUvldqYuIsKqevVR+W1lekZGu1qpcbbzvHUMAYzAz6s2nngadQoThuQKi6gut/8ksYH+jxAABjxDQ9sQub2TFSLSZrAf0mZnqY4vmowPU3TcTG+hr58j6rOOZkBXAHQZkRWWwxzApREklhPtb/5OQ3XHqaZCdii/MuF7j89IGqpN/fUhwHGkvES6wWB+lzW323Da6wqsUrXRs3HPMT+aCRptjuKmox22MuWu8731hz0uhzBZL5zyoNRCjU1PhKllvuv8Ow1IlaDeI1RFbo+i9pyWwWVB6qGEpZLkNmkgxgl2/aiesl8Wh6+iiZjQ0aamaFYYzXVXf5jkUygHqkEBMYH2CoAmXw1DAOsmq8roqnhKIObqmUCRr6xGoTJn1XBbeSkvBIiL4XKreREaJAa77mMVRQbAERCE/CB6sZlxqUA8Y7n76KJCah/EzQ9RTQ5NcYg1/XWk+LDpepOhqCka6rrbe1JddoAACAASURBVM/FLdP0QoYAWnWYZdox9iMew6w9HxBbC6n1qdtocmJ0VQIR6OW4BiOc6Lh+Fskozm9Qe6fOxCR1vPKgd3MGQmF/F5WALGJXQk5FpJnUcdvPpY32oUyt6aZbtrNExNftk3GWKgb/8zf+FIgCkfrzCIiJ5ABGwM0PMwS7BhTy/0eLj4176yXrJ+sIovLWMI2RFf9pVmxFKoEBBEVFEZD3r/bZtrXjGzT45QcshankhfGwj/0fvkFV20/kwwHMrc+daYi1xi8IjLLpI9O66eqJm4V/Mwvpu2JrIfX9409yKQD1F9+NMl9NkEMBtrkpmpo8tiIB67gFI1yVTkxM+Qw1dYyZCKcu7EV4dQG3TywFGQkIviHMuJa47RKVErWbH5TOpm5QezsPfSWkmamN7QWq1dWbCC+rKnDEJydoIj5GLfddaRhQ7F585azPybYwscF4do3iQmr9w7U0Me6Dt/aZVRifoEjtIaq9+gyqKrLm7klBBqDYm12k0frbdlC8v4v9vzDWBBwsWbKN0+CBT6n6nFNFjc7Qz8her4WIu3swnz5F9V/v/bty6auQas87laLlX4pkyJ8fweeNBXywFuJs6rpb+BcMAO/l+jtuwUgIGd7CEyL2x8XJEdf4sZYGqr3ip6xy4YRmACrCNf4GUl+deRGaAxxz7SsV8fO8rdu82l//nGL1VeyioAwM0B2q2EtV536TgQySEUtAntTnG1Ir2L6BV1k2UMfLD/INlvSjkmW2YZwmx8eo/YmbPdsVn/5qxFUVDaqKUWU6/vQA26QwLlQ+lfJwmxZrraXai06nSrx8ugrACM+M5+ADCwZ+rAsbutdT43VFNNbT7q2FAJDxcmeXFN/Xa7kCT9C8jlswUkaC/9BkXG59YH/gD4E98Bux+xgnP4AQA1LJRpYi+NTyGDbRAApgSQUS2QBPKpUhVZmOAWDRenW7fsZ2ovgk1Ktp/kEKjI8PU8vD17BEUYHbNTwX2ypEZdE+PKY46xvU+94rnoSl65htiHWHdNb/779S+dknMwiqKog5KChiXDbG7ziJQl9+yNKsjAWpSKQzPM943xGW/uwbOF2HVCE/1wIdDqnGmWsZ057SGqTEEkjrBdT+7J18iPIa6Fv+cEcx8SBmX+55a0CQi/HLllhzXR/fZgYRYxw+ZbEOU5PU+85L3skKJsBpVF1kvksDFcKc0nMlLredgoWbHwRomTCO3Z8yNPquv24LDbc2EMAIEpHcFsorG3i1o6bkBLHXeO/XierEfcB1AEZuqHs7v02DX308bzDSdcecYM/CvMFokABgR8Kcee3NtX/ddUU00tvD88beAchgxIaqDR8cfA+o+cFdYgw2hl93TVOldd0yWeNU/SxUmeeeAAnRvKuH9x8RZwlp24kU+uRdA8jYR7EDYl9lj7OVVLOrnwtgWzQwWgzASzWGC24s4k/IJuJ0gQEwUnGAai75oTAC7CawFcFwaP59EF6TEK/r2dKQTYRK2HaeHWfGS2F3sutmG9exQbBoy8y1tYAaf3sBjfV2WSAC4p2g8ckpig/2U9OtO7zXLsqNpODdqhXLO23or+HC01klctcz+7Sx94zHqeupO/hFY56vuZ3EuvvPsp46Hr+Jxs3NHMBIpCJ4Is+w/xTe2oeHPNufzP+ky3btsq0fdGBk20ey+uz4aVxI8L/YIPFBBWUbpjkQayHtttSz7UwlTXaMTHFDnP0+ZQdS8+n/uAEjF6jg9wIj7MQEDNkTNNrXQ833XGw2W8AGpxBLBPwiqRh4VV1LRkSLla+Mmmo8BSTMufWRG2iCr/blqt2XjuSqveedP1FV6TrjxOkbvrl/I2kAlOuuKaKxUL8FanMj1jgkGsM0/R+/TRX8kut6ARNjJ2Jm31rIDqZ97/6RDa/SRv7rCNRrMB+kJORHyvZQ5Q6xf6Val4UqyyUYYe9EMsfnaECPGzkNm6XuPZxsW5+4iSZiMV4HSCtYEz5cVyAgHbdgBABiwo5PERij550XPTUBrx0AiNhVHx96Z9uLqGg4nZhIHDuDEkgQoQeVIc/+ue20jRK8pt16SGs/GufQevcJUgY8niH9AYRcYgUghyv3U+U535L/rmEYQW1HOgf02/qHq2liZMQDEmaAORE+bHXyzt9Idxs13wxVDdKcGGsxlvjf4PWT02mo6oBRLUWKhWSrwIQQ0tJozxH2VkbbTH54LnvtMmmzWHUSX1YGEJkvZBapTU9otHrrCTTw6T94LeFhr4Z9WRtdo5URrmowwobApsDX2ACfuACQ6tRgQpSFa/ZTzSU/YAKGJCQglBlBJyNOELnNxKiXClDscq1nt08W17r2PDQPgApAQbr7Hy+bdZBnFklxiiYmR3mNxsL91PC7S+X9LqPi8XU+qwYCzJVbT6AjbzzDHzJzJU03nY4ZxGYVZzsdbjY7n75NQN/YRCAZsHRQuoEab9lOUwYA0c7+8QWEAUOAZPufHuLDAuvBn+5AP8bDucY4c6pR2F5Te/3cOOrZdbm/JK/guG0XKm2Pjz55DrxW69k9ItbZJPTNAC/gI2ucGPdBfPkB1KoFIzBDPA41zDbQGzEWoBSHvWSCRkMD1PrQdXx7pvq4nNCpwQgMrkw/F4LT9hq6fSTrO9N8BiKVms45hZ0FbVBm1QbuDLgin5jidep+/WmWCJVZtQ+9Zas892Qa3P2xp9omrq29zpnFx/EBsbiM3fvey1S14yRPTYb0ifFxOLQ8eoMFgOM0Hpdrfewv7zN8pibECTO09z9UcdZJ3Bb2PUi1YFzEmYnhIZ+FvU7rumBg75fW0dAuW+i4zoNVcFWfizdQ5/P30NRIjCVEG6z5QDZSpOy1XNSkOyyWonzVghEIVtUAASUQPcBowtgY4gxW/f/9B1Wf/Q0mXmwwCEqZcSEJKVtCtevznCwGssuSzVHtDZBuaq/bTNHGKgPOZg0MAAkQid1s4Iv3qXr7iYlrgQ+usUpaSDWXnE7D7U0MAPMFIgGRcZqMzzAQRhsrqGbXTxmMMHf9AZA633pOVDLsXXxMpF2evziujk3IoTM+EaeR3m5quvlsfgb0gfXh0BjEGeCs2zZ3LTNNcz/WniTbh7nmu/OY1Q/fOJrXkuCTdN63KFL2hdA2XkhWAGKPeLGNLgXAZDPmGjBq0G++xLbU7UGYLP0wocLTepqvPEU1E+YD4eL/f+GzIEr83vtQaewOIJa0BGPE6VmElKbvoPpBYwXloS3ylRGhpsGPaDwSZukC9jGsgeyPSCV8LRwfp3DtYar7zc8FjHCbCMO98T4HQDfddQGNR0IUh2SSIHFmJgnZbYRIxceLgSkaoaY78DUBORB0DWp2fpsG9vzHjCfgw4cMDhbzHLCBTcRhmI9TfHyUut56Vt4RhFqG/61m2aFYBbfG0DV0Qx0/WYj1FWCT0K2n/bn5SKcq0/paRyUhzdcQLhB4FlFl5esLTfdeQvHRmLGtiRqGNWd1jdfKfHrEuLRkAxSLUTcpGAUB1GLm2YQ7v7gBIoAufGziE/zmOJ6l+81nzMmJE0acyTwmngNgKKEgtAnVJlyN23U1rgSoaTu0y+y4XUfjXM6nv9g6Ol97VKSZ8Tgb67EOWFNhagWmCRoND1DjA3g9RK6SmXEV3LYWUscbj9N4fNjYnrIHIHcfGYSgSk/JzSa8sdlwWyQ3SVgrfCEA9hC0lXkbAGUwFPsXmA0AyYZ5vGZSV0FV53+b4KKAGydWuy0pBi4L9v4grvui+W5a8zVEuf1Dvq4/ACRVe5RpXTvUfUWocS2flcffoTLfOednK6TKbSdSz8dvieqL13XGRRvAwcz7bfyz3H1YiPRCgNWyBaP5Ah+u7fkEHwehjpHYJyZofGyK/VXw+kDNRT+giiI4862nw9hQIwVAUlIimGtoE2NQHP0qwWmoeXZax7fzEHfTbj32S4HD4AXfFXuRp5aJfQXq2dQkVB4BaKi1sCN1vvKQrAMzlDAtpCuob+GDX3hq7kIQMDOIuURA/MgbT7GK7IFgaQE13HIOxUfl9g40AWlIaGNMQMyo3uwIqTbC0Rh/34jnbfzE2HfKAiQFFQ3tPUKephFqXOsGhbr+Gtp92PW9vsxc7H3UtgiT5Wsdu39IfgBxrFvD1WeyP9k4/t06HzgCSLx2kCDnKdHmsv2qBSMh2En2JQIQcXoMt0fTND4Wo5anbhPAKcJ/xADByWaWGwc/Zfi5hkrEbmj3DyC0+1ciTEuIFlMpcbriPIgVZU2/u4TGu9vFXjSlBApAEjUHp6Zn2JyYoL5//8UCYiNBwNnzyjP46pz9WHBjM0+iVgM6gwvmMjlJA1/+m/CfR3TumD8bryenDWNNeKqZjC9qG/ZW1G8xziIdgavCWd9kIJHXd+RZsNf6xUhdO4TumiuA6P5pWkMPVCyJKKE/4x6i9ZOFdj92XOnC7jMhzqq4fB4GKpt9gHa9+jhNxEcMWE8YCUn2DNKwSMTz38P50oDbfhWDkQGgeFykovE4jcenWc1gT+sLTyO8/FlRBEIspApVDZC2/hMFqywQ67P8AXQUeEBkGtfQJjaNI3QByk0H1UGeMpTfF5hvPb/UymI6nn98nMEZzMqSkDHyIw0wAHH07/6Qas+DilNAuArHbRaeve2ZOwj9qIrnElK2aQYjIxWx71N8ioYaD1HNpf8nz2JuwTpfe1ykIb4xUzcN33aEfsQGZqtvUzQxNkwtj91onFZVbZLvk1cXi0qu66ZrZzM7wIPtV+lAxVp7t70CEPY/AWiM5OXmI82vwpjXYXR+Gtr9s4e6BYS676hTd+WvaLipmb99xBLSuH/raB882e5ZruuvajBiD2tW0+TkHB+HmhajVhCpUXWShUooycJk7UAMWuYCSUIZi9ZgktQ/GJDdOsgrx2c3GEAL2cgMwJC0Al8h2036Pv8njY+P0uSYSImQRAAqfD1uVByWLMbjNBYfpVDZPiZmjInnAHjCntaz5wMDZGMGyIIvPtBXpj+eh9ozJsZpuOcI1V91pkgpsHmd+23q/c/bDDYMhKqGZSSVTVGoXL5IgOfgtTfAgj3VPOQn+2kdSJ0qeWpeutDt066vcdThudiAp3MNUMXRzm5rx+3xkN+lX1YwrhOQhGGu0EMn18Ayl/5XLRjJya+vfEywVADxdLB8L39QXjd2oUMQhfbpgpHmI3QBJts0gwT340tFHpPhcyfFhdR0206KHWlliQcAgStwMPWEAWgXNKDORpvrqOnWs/gZoLoeLl7P4BQ70i5gNKY2m8xBxx1H05DUFGSQB5+vhhtKhUHxL5EuPp3Chz5jcPPr+RKv9pM8HKPWp27htS4zkq2oM/6NHfbCZWQ3be+blqVrp/Xs0AY0bZ8MjOx2QXFt75bpXGuv3kThxkqKT02LqQKvzPCNmtiQ5gIWuW6zasEIJwEkAgGlMf6QGL5O2PzoTay+pGP+dGpZuvZQ/1QFRF8a1zBd/+nKFegUlFAf/w1WiHEDS0udLzzARmkwK4AGDA0AgGEfeWLk90FlLD5OY/291HT/lWzEFpWykPAdIQCYvMuHE9ZvM/+4zAtzGh8Zpqa7LmbwqCrawH5Hw51N3nxlrEzBCBLcDEXqDlH1RT9gcMbz4JJC1tY/NJSBswl1/dO1sesBOOz6SAOMbECywcWta7e36wXFK7ZtpK4/PsRSpa2a8aVORpLl4tuU1vDphBMqR7/5E+s8CX9ynMBkQPWh6oNUc/GPjME6tXqUFmzSqFfpwCR9eSLh2oTpx8WWBbUN/SlhY+64RYP9R9dfQAhrqcw/NguMUHd8bIRan76TbxcBnFVnn0qD5fvY4A0wYwdDvqmc577ATmWcGEXqmWQaxAu9zJzFG6j2+iIaHwp7YAQ1G/NXMNVnCwoxz0nMc3Kc2v94v9gHGQxk3/01TLbOmdkJ7cMFcTudeo/9cXXfEueUevz04xRQ/TWbaaSlVvbcHELgA6xXrqWcufSfczDKFcil73eUxgzx4gYIG9Dy9G+pHP9eqAiGzIUBI9umw7acDFWw1IQqakQicfrEK/kyf9iJ1ODOoAT7Q8l6arz7YsL7ZirN+KpZcskCdQEM7X98kCUrnLgtf7iWxoZjIlmaWytVgYNAINM8jMPjQXr1VMcxase/MDKg0fS7i/i/+MbHhIH4VM8QjBh0IQGOT/O/VYItive8SGxsNnDY8fT7Mhsk+DUi64LDTQf1ibkE5SMvVZm2SQ9GG6hs+0Zqfe0JXl+xGU7KwbxAh0mmex1ULwisVjEYwU40youPEzXSVk/VV/xUbCFF4llsA5INKnZ+NvFswCibfoPqgij5itq7BRRfKQWqjjeenKWWKVGoJKJpgALiCkZdf32CvZbLzz6J+vf9l8sAQAogmUgm2nfK0AMZSGniD9b51jPmoCigtiduJgUidc+Qk13UzFR9T8VHWYKaHBObSdfbz1Pl9q9TtVkvZnpzk6oMPp/QBYd0AIc95cPDAjFuE5CfbF7umHY9PqRK1lPDTVsp1t3lScE+8M9fsk21/nMpW7VgBNWMCZkBaZQ6XnuCjbGHwcR87Z5oRHbBSIElWajEpO1S1XPrahphJnF7jMQ2ohZAkkAdGGlho6i59McUqT3gEaCoNqqWTaa9DYPzYXnRBmp56DrCv2uCrQ0ABAnTV/fmR8zsF2RsVzI/6a/7o7fZkxjX4p1/eYT3UABoLKuxGbwmxdiO9ripg2FeGNiotSnVKl8SxZrath8AvgsEbtqWat223N7svQ0g6EP3124/lzgcedlYX3oCHXn3T6yuYu9YIklygTEXAFnINqsYjEQqmhidoFhfF9Vdv9VIReuN/UBOJmV0BQVNI0z10/pKPFpX8zVth25duyxdXNtq/5wGkxRvYKIDyMKLHATdeM+lNDY6zCAyNj7FV/YAFBAjru9VxZW4ScMexAA+Th2vPU41F32PBg58SqNjcQYESJmIu31oX26Yjkjxn0nkullBTWxGsHNVnXMqr303/i0PABD+TUZy4zlmYEDXq2xvHpMTdOSdP/Mb/bJ2swFFgUGAxQejIDBwwcdNo40alt32ACfsN+aBMe22PDd9Ydtc5Wt79KfxdCEDEd+qFlDLvVDZQ3yZAZAWcNd1Xz7hqgWj0fExYaLRMer579tUvhUfqCqkQ8bTGvF0AKAEY9dVYtE8TQf15Za5abv/oDLt0y5DHPmQggA+IEoQHuexd3Eh9fzzNQ9wXJBITIvLA1SwsbERZvixsTHqfvcV6vzrE569htugznjM9GvazevSQ0AQ0iv6B8hgDoNV+6nyvNOovOQE6v3v36WM5yZgBVBF3cTnSEwrcAHEUE8BKdbfxa+XQOpSozEzeKk4vwIU5Kfe+L6konugoe6dApiCiu6P1gsKta3W1TRCjQe1s/PSgZHesqJN9TmnUGjfZ/7N8jKwGeme2OGqBSOWCEZhsBulxkeuo8MlQnDQpfXK2iYGlxA0rcShaZsg3LjW1Xy3jZvWekGh1rX7tPM4H7ddxiALf6AyfO7jip/SyJHWlMzKzD8GsFZJyYCLYfrhrmYa7u4gdhKFgRniPVQ1E2eXiXkBUSJ4KLCAMCPNtVR9Mf7l0Ndp4KuPzHPA/iPAonXThxMJoIX2E2Oj1P33F6msdKPH9ArkAKdDRlrRPHe93bS3bwbEeE+SXIzYZXbc68Npl6oOytKBEf4JpD4HgLL1j/cZ946Fc1q1gWQh4mtwEubil55YgglyodqBcQBE4ZpDVHH+t0UXh1pTIu+i2ZuNuP5s4nDr2GV23K7n5ttl7hiadkP0oe001DxNQy1TYgMglRXJ2+lNf7gugQlTrSczON7bMyocQAaSCm4hR3Htbhwc5VZS1DjQSqo+syubDRgwtlZf/mO2G4WqDxAk3Oz6VLpS6U3AdGwszs8F58366zYRmBVrqnY2HFAAdLW/uftor7/ul5unbXSPNLTr2XHtR0O7vZvnltlp7VPzOMQtqwEt/Hebmit+TtGORiMlpr8AWAhwybaPnIFRLgAuXZ820TLTTMTpyMtPiiRkXp2QDROdXTfcDRM2NcDI7Jajfao87V/raDpdiPp233Ycpx2DEa7yt8i/+anc8Q3q2/3vjJiXpSK4PoyNew6hDDoAIAYnSCM4qGAzggoFUJAr9vHRbKUUBQg3BBgBLGQeCEdCA1S76xdUueNkZh4Z124n4GLvdbI4bgel/3H+WgPTz/gEtb/6GJWXft17ORqqGq8t366JtIm1h8uE7pkdBu2blgeVpctDWx7fojW7TVDf2sauZ8dVhbf77Xn/dZEwR+cK8PY+SDxbwElVf1WBERObJ+nhq389VHfzWXS4tIDYwFsCO4tcgdsbl01ciUBDbasEo6Hmpwu1voZa304jbucjzrYNzl/P3+3B89Vfu4mGB/r4mjwZg2o+iIKveT1VDcSl9pthlq7EnjPKb4CjHdIj4+LNrv3MNWSi9Ow/RooZHaPRaJjqr9lCVed/h7/aKMCoTCDglZinZbNDrjcx5ktXhgmHWuqo5tc/ZTDSm1WouLLOvnFZ90BDXncLOHRP5hva+xvUlz2+lrt5s9OgeajuIv1BSmr+/S4aC0cylpznurdzbbdqwWh8dIz693xMZWedSGXmalbUGrmBwsmR6qebnmloE5Qdz7R9pvW0b8z9kPGXAhBBvWh79k4htIwkF1GRlLEZnPAFx/FJw7yQVoT5R0eHPWlrhN/+z1w6SUaYenMn5apSjdPo0BDV37GTanb9gkYG+kRV9NRII0lldLLL83H/bMgWCQx0gUOr+ZHrGeAh/WDtsa6HVI03jofI05/uj66/G2ofWi8onazM7UvT2gfS+tM+gtJahpAN6qadFz/vNApXl+XBKFFqyY2dKnGMOHW8+jAT2iH2LSqgwywZ4SZqQ0ogAqPrbZULWG4+0koEdl3NSxbadbOJ6/ggRoAQ+oeUVL7jG9S/50O+kWJnT09CDF5rMCXsMVgzABJCts+Mxik+Eud+RsZGOQ/pOJh4RBh6dHS2FJIMdFLlKxDK7ZgAHLy9mx6/mepuPZti/X0eCNqgpe1S9c1lcAnwgEzmDtCFOtrz6T+o/OxTmGl1DbEPrP4WrfOYX5neDXVfM8nn/i3p1m5rl6EvN+32b9fRuPbnhlxuLmxQBtrp/efLzpouzF6m3YsMLjxWrWQ01NVBDbfu4A3AdT5vlLl5QjoVACjDu3WQ75YhrUTg1k+Vdvux62qZhnaZH5dnUhW0+spf0kjPEYqPTTGwJALzbEDCO2hQy7x6DDTjrIaNjsdMPkApTqPjIwa4kJ7d19zy/L4EFGWM0dFRan35IWq89zKK9feacUd4XIAgxlLpJjUDjIq9Cz5JxiiP+gA+3AwO93ZS7a6f8qdYcIsmN6zqe5RoA8T+Kigki9vA4NqatI3SiYZ2G7eOjpdJqG3t/iApQzXj73QZv6by4nXUfP81NDIUWpaAtGLBiAmLGQOEGicYVYVQ4wRVoverj6ni7BMZdKCmgYl5s0r9mzMliqDQZ3pfnbPBwW0TVD/TPLtfO+62t8cEA6EcDnSQkFofv4UdHRkYRsCICwUauepHgA7AIlLaiDhVjo1Q1wdvUuNjN1G0r8fsLaQ22Wf4IvHN2Dyfb3xklJqfvJUZFusHFR50gjXGutr7gLimUa5Mr0CheZrW8lT5KLPL7bi2t/sLytM2Gtr1Aa5l+OSuenUXyTPVnHcqRWoP0yje12SJ2PhisduGquZLIy2twUmUi99iMANOVD218QwMRhAHx0ao7fWnmaiUoWEPwKbZhKVlmYZKkKiPvjJtt1D1MGbCr0gcH2EXw0fUVIpRyWEx9mB+YwCQjNTDKqMcKIMHP6e2F+6h4f5eD1RFepL6Ep8fSKKP/i/fI7x/h/1R+lCDdtCeJay9ASUFCbcs12kFHozjxnVsPAPiCFFHDuUN1P3+67yu6jemTqRQX0V6FJU5teS58ICVMzDKBcDZfcJ+wTYNgClAaVTSyIMvSdO9l/OpgI2wQQSnoPxyCyaJYy7sWExsRuVkYrz8xxTtbBUpYkxVqvkx6/xAJpOxBYQUjJjwjXEZ/jCdf3uRYn3dBqwEpPA6CuYlUlImYySvA8Ae6mylyst+wioaaEKYWHzRbDCSfOcgcEDArZNJe7dNtmkFQg3R3o77FxzIN/MvKqTWx27gD9lhDSAdKbhrqHuSigZyAVQrFoywkAAegJINUogPlO2lygu/zyoMTjwQBjbqoFFpbELJRRxjZdKvDVjJ4sn7ETcFvJvWcP9vaGQwJKedZZhORUxLXaZGdgAL9lJ9jTCvWHiA+g98zv86yVbLFIwyYZZ0zweDPHya8JkSBgFj6AUz62HF+a40akkb7p656aC9Q58YA3W1voZ2/XR5CjoaBs3Vfg6ooegf9eAACU938ArWHmuloRtPt44LWb5iwUglIYCR/kZg4BwdZpsDbtBkcyXEJgCM8O1oe9NXalxsRuv5FYaOt5+XNVgge8pCEljqvmAcV0YQFQz1R4dHaBT2otFhi1FU4oN9MLnEk3o8vx2POzJM7a89QmWlAgyQHgDuShNBDK55WkfDIPDQMjdEH6ivbey41tUyO51JPa3vh+atA8MPzAclG6hvN1618S8w7DVV+2uma7lQ9VYsGEEq8iWjYcJNC8AIviktz/yWRW9hWB+M5NYE9oF1HsH5m5aZNJNpfZXIMq0/l3ogrMPbT6S+A5+IqA3VdWSE4BfkSou5TmdPkGI49cFI1C/Y+1R1UElIGMUGI1HXsh8zEYxgY+v97H0q334iAwOu9bEPKkXonigAQQpRSUTLNLTBw40riNj52k7DVGVaJ5PQ7UdtYJqPEHn4MsNoLOqpaDYYLcQFwVz2ZkWDkc9gBozGRln8rLlxm6WW+SCjRkq9icpkc5drHX6WokKqueKXFGmrFWlidHzRQcjfg9nqcqoylmKNii0AatkALftfsj7mQux2GzAfDrBwdQVV7vwOgxCARvY7End6lAAAIABJREFU2PVDQYkPgRSquDC8T3e5oCF7LgqQyLPjWkfHR1pvlhvvvpCivUdY8rTXZSnjKxaMQKS+vUjAaHQkRgOH91DZed9JUMfEVlRAZVuEQA4Y/Vk3KdNwMaSdjOdimKH+3isoOtDNIARJEQyWjIGXUz5LtUaCGx6FNOeD2cjYMKtoCXkjcLocZ2lYntOvb9fLNM6q/dgIRdoaqGbXL1nd9SXnYDDC3rgMnmy/tJ6GyerZ+bb0YucHxbXfIPDhPOuCQw9f5LMrSMkGqrz0RxRuqeWbZwZmXAKZ9xDVnrfYwLQGp1IufpkSxVzrKTGDQCHqw84A8bLrw7eorGTjvNSw+YJOqvapyoKILlUebktaXnmIRoajDMxYE2HUxVfT5rqPS9tumD/JWnvXRewcmGxv7Hw7nmpvcl0G4FLwwlhuOt34cAcZ3PtfT01jD3tzW7nYIKTj5QyMcgFwdp842UZGYjQ6PMZgOjwa41uYphfuoYNbEk+25UJA6QjELtc5I9Q4yu04HNrwATK1ETEwL4G9aGkBZW4S0siIuIPgxeKWx2/kGzRlbkgd9l6szngh++Lh9RuAAXhLpWpcHKTbUwWQhQxXLBiNxEYJAMSLODzG8Uh7M9Xceg7rxcrECA9uWcdMbOflOr4YBIz/dBKq2GekIVVbjcpqqT3pCOt4Lh+JRKj95Qf4plVvYI8HMIIRu/GBK/mVG+YhvPLDKj7U/PRglAuaWblgZKmXIh3FKFRbRuUX/5AOpwCfTIEp03rzBTV7HDueCYiW7/wODdZV0vAIwBjqdozjvi1tblJDLght2fY5PEJtbz/PNqODRStLInJVM6XFzA7C9VRz1Zk0fKTDgNCwJx0thE1uLvu9YsFImG+EYiPDbC8Cug/s/4IO7/hmTqQgGyjsuBKAhihLVa717FCJx85LFz9YtJaqry2iodYGT1VVMIIhH+uxlL+5EONitlGGg/G28/03qKLU9y/S/VhpIWgm0znDqF1xwfdoqKFGXiMaHiFcHGAPdG0Wcz8w1ooFIxiswWwKSogf+fAtOrTt62wzspk5W3BA27m0scfMdRzzq7vrIor2dtJYDDo/AEh0f4kvLRgtBRBmwzw2w/V88g7/c0+oZ9i3TBnarWfvuVu23NJQSSvOPZX6vvwPQVVluxGD0TDfWmazlgtVd83w8DDhtxTEM78x9fQXRhweilDbS/fxh/cVSEAANoEsVnyxxm14+HqKhgdoJIb9UzDSdTn+wGiu9NTz2b/oYMlGphV1A5kLrSw3wEk1HzzfwZINdORvL1C0s1kM1vyOJ8BoadR7D4wUlBYrnCvhaDsYr4HIkAaGh6MU6e6iut9fwacaHLvmQkwL0QZAqGCoIW98GjuWXdedh12mcYTNz9xNI9EhTzrkQwW+RuaGUdcqHwYBM+hGVJLuz96jQ1tP9MBoKenH3ftUaaUF1FHg0RtBTScL8Q8cUNb85O00ULXPM16rqrZQ0k42/SwZGM0X9GArgn8NwqFIiEJNtYT/p46NOeAwvm4aTj383HLdcGyOxrUN0nac0xbYaZmG2j73YQE1v3CfZy9bTvailQF+RpIcG6Weff+h8lIBI/huZQpG6fY8XXnuaSTxUFb69udVwF/U7Pn83wzM7Hw6nGj6SLaX2YBMpnVXLBgJmEVZxYz299BA9SEqv+RHdGDzWgYbLLj+dNMBQvrTMoSah3qar23ckMstMHLLNY16GnfDVGVuXSUgNx/p1pceSAAj9p3BjRrfrAVJA/k8ZS7YHHELiXTf/s/E1sj7igPJP5SC1n015VVcdQZ1fvSWZ6bhdVki+lkVYASX/p49H1HZ+d8XfxELVBRcFHAQqnRkhyo1aagE5wIH92f1r/XsUMfUPLcPO98us9vZ+ag/K120lpqfv4eGozEGZKiqrKbFhllaTCd5KlMev6GANpivb9//6NC2E+hgcfIDRPfMDt09scuWOo654SALOszsvPLLfkwdf3/RByNj+lgKulixYITFig4LI/Yf3k0d7/6Zys47LQGMlCBsINK4go4dKlBxniXZ2ESncbsfbeeGdt+IaxuuZ9mWdJ4I0b/+NG2Xaxx1Gp+8k2KRsAEj4+IQkwuJdGC01OVLQez2mABvqLYAo54v/kOHt8GAvY5VNN0fXWsNde+RtvdIy+cauv1q/9pfULmWpQozAaOK879LHa886tGQSNV6K7u4kvSKBiO2G+FK/79/p8bnf0eHzzqFGd7eIAUBGxhsYtONdomL64DoDIggRL9az87XuhrqWEjbeW5a+9B8t67244Zcb8t6qn/kBooODoq+b25FVTpaarBZjuPbYKRxMF/3pzBgy21apvYim8ZWapzB6qyT2IgNYMYt2lKq+GtisRjN5bcciA0EhXm0v/Wc3KRtP5HgRcugYQGJzeQeYxvJR8HIJSgbILS9gICI8l4/FlhpPbsMcbcvrReUb5fZbd0+DxYVUsPvLqFIzxEDRqOinsEOskKko6WloVGKDcua4eXqAyWF7J+G9xozsRkloxuXjrJNL1S/tiqWTELCc+K5G+67yriGwPFRvomlYL2Y4ZzBaC4ANt82NvEqEKHP1j89SLU3n81+EwpGNqPbjKz5dp4SjM38Wk9DLVNisdt7ZQYAtUzbaqj5CHXMZKHdBnG7rbQvoOprzqRQW70nYoukKK4O9lrl40lU15Exig1Fqe31p5gpwZwCRo4UbKnU2H/9Ye/suKY11DKE7j5rntbRcjut8cDQobXZ9DF7bjovHYuft2g9Nd59sQdGuPlaTACyx1pRYOSCGYy3YMCGp+6gql1n0H4g/RZfEtENUsbWEPkat0M3302jrkcYaYjBbou4pjWOfpQotE87rfPS+jy2NSarEztPo8H6ciYeBRy8QBwbEWO25uXDIDAStxD8o0jY3mRvRSraX7RWpGt7vy1JGvtl74cdt/dL84NC5Ol+2yHTQorDSulGx0kaWv1rG3ccBqPidfxyudjQxlhLWgh6sUEm0/iKBSMGIqNiNj5wNZXt/A6raLzxTCwAnFQ//0ofbWb/UrXNpCyoz/nl2YSHf0R5oLiQ+g5+Ls57rJqNspSUV9OCwCc4L3ykg+ruvoRphdcXAJQCDDyGNt9Ut/eE2yXJt+spjXp9WfZIzdP6Ll1qfrpQ+wkKPTA1fFJzzWZ2HIbauhBANNc+ViwYQUri27RojKrvuID2l2wQ8CkuoP3sa5QcMKDKuZs8O528fWqQ03bzA57Z80nsD8SIebS/9yqvQyw2RNHYCA3HhigWG5mTHdCWPOdKUCulHQAb6wS3kIpf/8KTUmTd06vRQWCAtkH5gXmO1MUSkZWn+x/UVsuCxtOyIBCy87hfA0aVu37BYLTUe7eCwcgwXzRG+Oa1ov2+QCkniJET83QTV0q4HyrblnVU/+RtFBkcoOiwgtAQRaNgtLldTCyXdrlmDKj3+PWVf0VlZ3+T/XF85pb/JBMEBMjTesnCZO2S5SvNJSu38926mtbQq2sBG+jEBiI7jgOt7OL/Y9V+qSXqFQtGoqaNUDQapaprtggYFYvNCIutm7OaQxhbq64t5n9GKCAiEpGtwi4XcFlu84BUjdeJOv/1Gh3cupGlaQA8aAc2I6UbZW6kNY7QLteyoNCu57Z309re7l/bu6HdNihuAw7iruTFabZBFrCzMOyMCkYA6VwfBkH9rwEz5+K3OMQnzFdx1SZWWVha8IzYosYkV6nSSUbp2qcrT92/TXBKTEpwUpa6f9Rh5tl+MvWWfcnS0NCwSEOigqxsySjX9APAHhoYoMaHbqT9RZAcCjhkeikW4AkCB3vfdL+0np2eT9wdA+mF+NlzwkGGNICq4vzvsZS4asEoFwBn9zkUExDF1Wz5rjPowJYCgooGe5GoaqmZOTlIrax2eN7m15/kAwV2I5w4uWbk1dL/YGsjlf/65ywJHSoqJHywTugi+UHiAoUyeFC+AojWySZM1zZoPO0/XRn3bd06V17wPc/+ir0NkloWIy9nkpENHLmKA5AARmWX/pQObF5P+7esp31bBIwQn88vHVil6ztd+/mXw81ATjd89zvS3WmM13mJKBOwhJrW8+k/6MD2b4hEtNmoMhlL1pBW1JUkMZ5ub+126eoGlWfWPjmgArSUdhDHFx/tS4+lkqxXLBgBhCLRIQajil//VNQ0MGfxegYm3UQbNDQPoZ2/FHF7DjovnYem7VDLvHDzWlbTDm8uoAM7TqHuQ7tpKDpMw0NRc7uWB6VUoAQ1rfHxW1mixjqLNGFuWUFDDPSpw8xAIXUf6cbBGHMbJzUY6TOj77ILvstgpFL1UtkcVy4Y4Wrf2LsqLv+xGCCNdISFBtNqGBS3y7QcefrzmN7qS8s0DGqnZYc2ryMGii0FdKBoLe01KgDUqv2Y52aMtU6kuc1QMeWU3b8JRAQJT8q0P50P0twH6myWH/KanvktrwcAKRqNcBzX/JAeAdpDsQjHh4ZinNa1y1WYCggWqyw6HBYmi4rLA2xqYDTcPIaaGwl0o+vLTI+b2GJZf81PrvrY0pDYXvw2OBTFm1uN4bBLHdwieenUKB0zVciqlmVIT1U3qEzmINLg4YsgGeHwWtoLkBULRgk2o8t+JuDDDJ7IyAlMbAGLDSRaJ1memw+is9sExo2BmW1Ym2DLwsYX8PeWhDABJGu5HxaZN69l0Rl9AYgANErciXkFAmCos0k8wlHv8GU/pcGWBpYUBWAASAaUonLriDQbbod8IM8VGC12v0kBbiTKjDYcHWEwFhVkhFpef4a+KoVv2jpW07AnwrQCMrht0jTWF3vEYMKGbh+IfMlF9sJjcnP44B3C/Vu+xrdZMBbLeBJK/zqOG/r7r3SQGEp9G5RkbD8/Wf9+G3mu8gu/Z2yOSytNrxkaGqKg32ITU7bjJYDRrl8ayUKkC5UqAkHCAhLdXK2naTtEWbq0trdDEC+kocOW9IIPvyEfwASwEfFbJCAwA+xdezeDmABIuN0xEh4DmQFAOHQWiV2M26OvLaKytf71KeNjBPV12AMmSEZYXwEikZayXe+VVp/BCSprLESRWJRpnP2vohGK9HZTzfWlfBjIWq+l/SW4nRTpBXkiuWKPJF9tkT6Df42BRfLXsiSE/QLtoY0CD2yZGgctwIyAV3lsmso2LnQT3Idf5oJbYpoPQJ6r/JeQpGC+iP5qScEoCKAWMy8T4ofKEY0MUflVm7wbNAUPGxiYuCwQ0jpKBFrXTrtt3LT2YbfVOEKcrJCKDm4uTJBy9nK+EhIACCezpLlP9SBndU5ABvn7NifWFekJtz9yJY2xKn79cwq1NbFK5jOgGPljRkrCukJly2R9V3Id0CoYDM8A9UOlRDx727/+QgdK8V9kRLrUwwvAAvDgvWZggUot0quAkxx2vLcoNwZsYWzskajbLA1b/eyFZIz6RjrmfbYOOTuNuP5senTraFlQ6AOSPAvSs/IwDsC3CGD0fXMLK2u2VMC0bMEoHfABhCIKRtds9lQe3nhrQ3VjMwmDNlbbaZlNFMhLmgYQQaQH0ZUUMlHjVMUpyXmQcFiqUbBSdQEGeAEhUdWMLUnVNwNmDHRmfKhrki6ghj8/JAwYjVBsOMxSQTQSYykJ0iTUFZWUVjLYZDp3PDMOLUiKMO6H21up8vptLIECYGT/8AqRMKekRa3WOPYNcZZqGUREgpJyY8Pj/VxLhzYBAMy+Q9VDv9u/Li9xexKxjish+gn62TTnlivt6Ry0rh26bTSNOiKhi/0SX0gV4M78kMoFYK1YMAJYAYxwq1Z54zbeTJEWQFTG7oKTL8sf2vLPIRB783VT7dAuR5xPSQabdbTv3G9T86tPUMurj1L1g1fxfEEA+4txkhq/KJykzBByggJc0A8TtiljQjd1MEfPtwpzZUlqPZVd+n80UFtB0aFRlhohCUBKAvN6AG/SmTL0yq0XYSaT5x9mIG5943naW3KCqF9YXyP5eBKmOSxkfUWywD4n0pH4tMHmJ9IVynForGNXgcO//jlV3r6TGh67hf8VUNNfHqfDO07l/WQ1vDgYfILoSWhA5uHGtb7mu+nU+Wa++H7TxT9aFpLyygYj2EIiQ1R958W0f+vXReUBYy4AGGEjdXMRuulE4gwGPcxjL979OedbdOTglxSJRCnc3009lYeo47N/UuvfX6CmF++jqnt3UcUVv6D9W08Qm5ECjjmF95l+AFb4KegiZLXPeebax2/j/5gCGwnWh+0mkYiA01CYoLJ5wGRshisXcILfINBbRRxW/GzDQ9RXe5jKr9nM+yq2HyMNGeCHKqzSLIO72Xfe+yKRXLmOMWZjv/AN6eo7LqL6p++k1teeoM4P3qTu/V/QQHMT7wHmceTLD+jw9hON9BV82CmtKZ0hDIrb9bRc8zS087UfDbWOSN1inyy74lcOGOFGNnhdc5m/gsEo5jFU7QPX0KHzvsOSBk46LDQYdT6gZG+obqAdpgMj1IWxEvVA+LUP3cB+QKpeQnVQm1eoo5l6DnxO7R++Sa1vPEN1j9xAFdcW04FzTvNOXBjDhYCEgRiU2I4EURs3NiDedQQ19cDZp1Ln5/+iSCREQ5ERioZDFGbgxphhb91cQFrMdC6JGn2r1MyADLtRNEINz95D8LSGNAojM9YTYM40Y1Qx3mMjHekeI+9g6YlUdulPqPLOC6nh2Tup5Y3nqePjt6h736c00FTD/0wTKiHUQYwPEJQLgzCBPjGWXO2vo33F5tLCOfBkD/1D0AWQbNKp6BdlTEvGrlV5TZHY1Ni2JmptrvcnqP8VC0aRiJzuMEzWP303lf9mE+0rEfEZ+r8SUiYhQGs+wBU0Bs+BN3sd36qV4+q9sY5vu6IeIPjAEImG5TSKDFGov4/66iuoa/cn1Pav16jxpftY7D94wQ/4UylgJmaaBPUBN3Fqayqgsms3U6ilQSSjyBADIcBGxvaBfDEBaFHHgpE+IreKWNuO//6DDp77LZE2WHL2DdMK8mqYPrj1BDp8yU+o+o7zqfHZe6jl7T/SkU/fpZ7Du2mgrVEA3Xj/i/8WxlJ3CePPxQ6oERpsaqDyi38gh4VhfozjAovup52vcTt0AUvTbh3tzw1Rz8uDBL55LVXdfI4x8MsN7NCI3L4GAUYu89aAqRfqt5jExkZYqCBDYWr844NUfcsOOlC6kRcaxGUDRBDYpAKfVGV2v6nja1lK4bFBACUb2LcFEgpObUhFYBL8cIpi7bAPrFYAPJCODlEYTnoAqPY26q7cS92fv0fNb73EtqdDu37F/+8LEhHmsn+zGGLFDlVAdX+4nsJ9fXK7FgXwoa/jAIiMPRFAEQ4P0UBTHZVd/jOWgqA2gxlhu0G4b0sh7d9xKlVcX8JfDG1/9y905IuPqbfqMEU625m+sA/4CX3H2B6HOKQuPhQjIW8PtY5IvkPU8vaLtLdkg+yPSiQ2INiqoJVvg4Ydx5xt4EkWd+sh7f7U0F5718XebaOn1i6FmrZQQLRU/QyFI9T01vNUe/+VdHDribLgWdqMgsAqNdAE24jsNuIvZG65igr4tq/mlh0U6T3iE7UxKoeHIoQfg89QiAEKz4VTSJggzIDEcZzIkSEGmf6mBuo7tJc6P/47Nf7xYaq961KquPxntH/bSez3AkkJhnP+3hFLYwaQbGN2Ej8zYSplwJUXMrBHhmigq52q77pc/IaKN9D+s0+msit+QTX3X0lNrzxGHZ/+i3qqDlCovZWGQv3eeos6i8NCnj0RxLGOYQEi9nAXCZelIz5I5ADBv1zH5Yqqz3pZgcPSBQY37QKQXZ6qzK4XFPfAy8wB7gl1D169LNw9FlQyWkxAArOCgRG2fvQ3anj+bjqw/RQ5gbIEIxtE5ht3gY0JQm0TO06h1o/eMcAS5vnjdGWJZcgCHMThFwTJzwMkMdbjeVml8yQcYQSsfRj/WbelgY5U7KP2D96gxidu5xud3vKDAnBGPVRJbKUDTqr5w3YDIIF6hpst/MPLjv+8zcAz2NZKQ709orLiZhFG/YhZRwt8sP4Yg/cA6wt6Y/AOC/N6AC/qIPZRDhXZv/aP/0YHt51kpFZxoISNypXc50tzc2kPukQ7HFz1T97B4IrnxZopAKda3/mWBal7Kx6MwIRHDu2mtnf/RAfO+RYv8Fw2Z6HbwKEMKgGufJn4IB1tWUfV9/2GPYBjIYDKoBBvSNTNSChMQ+GoUZsRRjmNjQeRKzOEw2EKRQb909kwDEtThoHQBv2Futr53xmpTxaIQPuZL0Et5/bhoRADR+hIK4U72igSxnoZQAeg8CEwxIeZgE6MjfxgRAAZgMVlTKwd2oUjsjcAdZbAUN8cEjCUQ3Id6uum6t/vYhePr86Uj7UJjYkrx0LTG/rTgxBhpv3j4qfl5UcFmI1pYKn2dcWCERgShAAigDTQ+cWHtH/n93kT+PTJ0r8o083LtB7UNNgjEOImTE+iAxd8lzo++SdFwsMMFmAaBQeEeCb8kA9mwHPC7gEwkTieO2SASp6f882pLW0jhmGkHvcZBsNEKRIS25SOM9dwqQg203GjkREGH/+Uj/HNIqtXbD9T1TPGayv1wsyU0ZCx4WH9zZ5AehLjv0hQOg8GediOuM8woW1kaISO7PmUDl/4Pbm1ghPk5rX0lTFgC22kV/VtWnMBxk3bdRFPVw53EdQru/jH1PH2S74ZwAbsRVbh1yiBu+FciXQx2zFBhCM02HuEVZMDF/+Imd/dmIVOp91oBkLzdj6kI9zWweWgWAiw9r6raSjUx4AC6UdBR8RkgE+YhkIGbHFaAZyQFzbgY9RTXmuI1QGXEKgLYznaoV8wVTg8KNKYAfKgdislT8EgWQipMxITAzNUYQESAJBcHIh6LBIp1kdsQmrc9wFHylSikosH9KEuEp50xGq1ANtQZIDqHrnJSMZQy7Dva73XR/RgypQuQW+Z0Vw2ACeSetmVZ7BKL5KdPqcC9eKGScHIBafFTmfCFMxckQiF+geov76Kyq8+Qxjf6MOZbnZO6nk3egaUYDfiVwXW0f6d36b2/7wj4BAaZuc4AAckl0G2XcSMdCRSEhOKsVl462JJOFIepRAkKAYmqCg+mLHBGxIWgAuqIBgyAMBWUx6DsQHtkJFuhiyJUp5V1C3EdY0lHxKlJaVi7YYihH4QspRkfJmwluEYbE4AtlEaig5S15cf06ELvite8bi54xuwAr7NA63hVYx0NDdf8NH2yaQw+KlBg6i5Ywd1fv5vuRk0TsT6XmMyoM9Vfs7ACJuZawCD3QRqB8K+thaqvHeXpw6xegQVKdlvkzEkMkiIsyAcBvFbDANj1R0X0EBnBxM224YYIMAEIVHLLGawGSMf90FiKdeCwctInuxZrxLqYIhq792VFmzSgdFClSsooT87/hVeCt6ynhqeuIN6K/YbNVMlP18yzBXwBPWbMzDKNRBJ/wJGg+EBvr5u+tND4tuT5ORJACYFnQAwYlBKBmILlb+lgJrffo5CERijw2JsjhgVDcbQPBgt8zWAbWhAmJhVajGYt3z4Nu3bKjdoCwUoueiHVcXiDdT+1ovU31wv9jWmOTHKB9FfEIAsZN4KBiNIRMK8UNcATm3vv+75GqmUkyxk6QeqVDIwMmCl7e16KjklgJsBKRAO5xspS9u7Ifo4dMXPqbemTGxHITwLwDVMoRCkI322xQmDiC+fl/xQgErNqiDsb0Yqgq9SxQ3bxD64xBcoaQEMxvQdp7BKORQaNGpqyITJASmXNLHywQi3UYZxu776jJ3avtos3s8uANhpDzQsSUc30AYTBp4A0LLbB8YtMArqgz/7sWU91T1+J88f9p6ByIDceBlw1ec6HsJcEnmu+g5HhvnWk0EpEqXmV59MuM211SKlraA8LQsKs60f1EdgHr76sPO71FdbIX5ufMkhtjK+vV0CyXwNTuFc/3LBTKGQ2KRgL+LFC4X5bfj9F/5AbtRSSDwAJWyQK9nopiEfviFcLwCIbFBLFk/Wv44JMXk33hbfdgq1//c9NmLDFwbPAiN2LtYs32fwus4NrEJ8YYCbM7THqzoHL/ihfHXT/LsspaflGa6lsl1n0kBrc4KNkm9dLReTua1NcokyVX+LAka5ALvwYIjCoQEK8S/CYW9zHVXcvpO/DZ0MJDQ/SFrRMjvUeprnpjXfDdOBEW7WuM6mdVR21a+ov6NJ/I4GI2yUzwNHMHAsp3URlTpC4YF+qrr3cm8/9cDJJEwGVK5E5KaTtcs0H4chXqEa6OlkNRMmj8QbxbkBSiqwSVe2osEIQASCGBwcFENwfx/Vv3CfZwdS6cYFCk0DWDS+2CH8jkCs8EHBPGueup0iA7hijualokW2l80V4MRmOUjNb73AnvZfbZKvd2ZES5Z5wAYtBRM7b65x9MU0ZuxXGuewqJAa//oURcL9coGyBGqZC04rF4zCYRoMi4oJKQmANBiKUNt7f6W9JYVpQQYA4IJREHghLyg/I4IzdqPgPsyb45vX01cApeKN1PL+X/kZRNqbn/o8VwZbrHYgxMUaK3fjDFHXwS9p/45veS++ApAYUFIcdC7dZUNL6eraknvQOF7e9pPoyO6PeQ8YFHCoh41/FV+m5FYydYEI6RULRnzjBBAK4wd1LUShwX7q2vsZ7T/vO2LvARhsWU97NsEVX9zxmfEt43LQ5ir4aBhUZyHy+OSC/crMZ98lP6Ku8r1G/YTqmQhIePsetjI3fzmmcwcAuWUSe968rsbtIhKS13EgDfHH6sJD1NdYS5W3nOMdagAi+O9ABVf6wN7aPzefv3tl/pWVXc8GFW2DUMEEErV6cqvkBHriPEhdm4zdE06XOHi5rfrRraODl/yEemsr+J09PLNIefr6kdxO22vhxnNxmKxhiQJSRZa/5cAAkIiEOX0m7amroMM3bGVpgyUSowrpaQUw4s1LAkjJiMAmiIWIAxwx1pd8khYQn6ibC6jizouot7XZ2ML852LQDUUZiMRWlgiMn+jzAAAgAElEQVRUy2E/spkD2/xg90vyy6avoLou87hpqPepfqEwXteJ8Gs5bE9hZ1R4tcseDPQeodonb+evbO7ZgoNO6Ar7CICxaURBxs7TuIKLphEG5dnlHFc6DghB65gH1zMXMXuQx7wgntdVd11E/e2tLBkJEC2NS4m9L3MGo2zBa6HrKwGGByNM0AAlqGmh7k6qe/a3hrmNCgTd2XxQyyMas0mzNjkJSC10PXY/wJwwHk4uzJEluHVU/+x9FBoY9J5LjfSqluK2TZ8/H+YOlJme9IIkMsh7gjwAKBxW8TE/fDMKhxuk7/1nyqWE61pig4sdx9676aC8dHVQ7tYBIEJKwg99KhDhPxZDqmr6y2P8GhWASMHIBoaliK9YMAK4DYRAIGLAZrAzhNLyz7/QbrPorKKduZb4ZACzwwZkTg2OW6CkaTdkwLBAyt14tzyTNE5LW0KTMcXlYM+2E6nl33/1bGJspGf7WIRVUlHXcseEeYATiS00GDU2PNgk+0WKCA1Q6yfv0r5zT2PXDOwh6AHMzgedd7CISpSOFuZLS6AbjBHUDx9wkJzwXXTM8Uz9esQG6vzsA5byFHRAY4gvJTCtWDCC5CBgJCGIRaWv9r3/o30X/oBPACEWObmU+dWGpKHYk9by6aZ5XBcEBuCyRHBNu4ClaZf4lFiS5WNsjMnl5oSF3WH/ud+jzoOf8zOFB6BGy60HS4J8WufBKJegCSmUGRWmAKhsAxHei+7De+nghT9gxt63aT1BRfPBSPYS+e5+u+kg8HDrpEtrHxra9fGvskB7+J4WgyRobAtAcy17/vfUlLOJQ0wdBnwNXcHXLZu1VUCbb7iiwQjgA1DCwgkY9TNA9bQ0UuU9v04AEjgY8umlOvQmIRwFolkhpCjnp6CEEACS6qcnpYYCcnJ6Is9Lb/oagx0IB3PU/L1nrqeDV/yK+hrraWBggE/ogQEhmsGBIQ94FYBzGWZDmKulLuxyYUhGRiINDQxRd205MzKkWnybSOkJIT4Ror5jKLOBIdN4EKgka5vskPPry/zYBID5qAQHN5LHbqZQd5cneXvqPy6C2DywNJckKxaMGIj4tmmABgdVVVPpqJ8aXn2a9mz2b9LA6AxIRk0LAhIFJC1LltZ8DbW+HWoZQs0PyoP+rvPSmz+v/qa1VHH3FdTbUCeSUV839Xb3UH9fDw30Hl+/wb5eSvx102Bfqp9bP7v0QH8vDfT187fGwaDdNQfp0E1bBWSMhKG3ZtgvqEEIAUx8aFlqvQ8QqVW3bMAIfaaqD7CCaWKW8XxzIbW895oc4HoLbd6FZGmQL4WWRupeg1N3KX7zPcmhokkfAKCwZzvCt40GBsPU/vmHtO+sbxgRVWwxu7FBmwBKX0sACGV+O7SBQwHFzrPrBsW1Lsrs9nYaBCVEI6cqDNgMTMb+gHbQ+w/fdDZVPnozVT94I1U9dB1VP3wtVT98/Yr+4Tky+aV6Tm2POm48VTu7vrZzQ27/0PVU+4frWZI4dE2xp/aLtAFgMRIHbtPOLPClITUaO/bIVKCUXtJJDT5KSzoGDjmW2Ni4LSAI2jq08zTqLtubcAutl0AKRiopLbaUu2RglGsA7G5posO3ns/MvvvMdfTVGQCidbTnDLHPsIhtNkwAIkCFSqGOob2201DzgtLI05+MDR0eYwpY2YDlxxPH0PbZhH5fiePYfegcEvP89Qh6Lm2j/aOtnaf5mmeXJ47jt7Pr2O01323n5rtt7PpBcXtudjnyk6nkOobW1z7cEOWyz4nrqGvp1td+NV9BZc6h5XOkY+KZKu+7juCWsNhAk8l4qxaM+gf7qO6PD7PdBycCfl8ayYilEQscVGJSAkMadbgeQOyM2WnUCWqnfdihW9cmUrtesrgSk7ZDPZ5fACB6ZahjGd9BiHbaHUuZQEO7XPM01DJN22GqMrue3vTonNQ+pyCAuujLDu329jhBcc2zQ3v9kK/9aR07nTAvQzd2G63rhtqXHeq4iWHi+OgnoY2hv7mAEWgDt8loizHhfoAQ/be+82dxUUjjV5gJeCx0nVULRoP9IWr9/CPaV3oi7T5T1LKvzjSShkVcNgFo3AYjBSU7BDi5QIS2QXl2nxrPJNS+NNT+kcYP80nWj84V87SBFPlK3Eqc6CORSZSAje1DbSBO6DKhnbb71DnqGFrGjGIxnM5Z52e307gdan/JQrsu4m49yfPX0J4/4greDJJm3ew62h55btxO223cuNbT0C5HnpsflNZ6WqZpgD3HzxQPbGgFX53zbfbwn6+JJFftVy0YwW7U09VG5beebU7XdXxa7DHAZDO5bqAyelCZ1skkDOrH7jOoXPu1yzSuZXaozKv9aqj5Wlfz7VDjWico1H40dEHNboP+7D7tuF0PgGCnEbdBIlnaztc4wmx+9jgSx9iJP+0P+S4Y8Tpgvkba1Loaal92WuNBodbX0K6jeW6IOnZesjZcD4ejAUqEkI6qHriS+rs7aQD/xCKNZLQU5Wv6+/tpLr9c23zm23//oBjm6/7yOO05Q0RWnA4wEu/5lW/Atjc0GRO5dZT57BB1tL2G2s5Na91U+cnKtC1LPQFjoh0Yx20flEae/nSuXhggVSkwuf0H9e31EwAaqK/ApG01TNUOZW49O23H0/VjlytQaZ6ClaYRes9ugZG2Cwrtthq36/l5AjCa1hB1NZ4qTApOWGN7rmeupaZ/v84qGlxElgJs0o05ZzCaC4AtZJtMwAo3a10VB2j/ztNFrTHqFfRpbLASrx0irukgItByu05Qnt1W66arp3PSenYfGs+USLW+hjqHZGnNt0Odh902VZ7dFnGta+e789e+g+pqmfZlh3afQXHtT8OgOprnjmOnUSeTPrQvrW+n7bgNSJnE0daul9iXLynNzl9He3BrzP5PX6PDu35FPU217IcH3kkHDEtRvmLBKB2w9Q2IxNfX10NlD17P4CMn+jrC7Ro2T4nODm3C03hQaG++xrUf7dtOa51kYdAYbns3rePYod1/UH2tm6xMy+1+0sXRV6r+tL3WcUMtTxXOpQ3603bJ+kZ5ujrJ2tr52of2p2mdg+bbbYLiqeppmd130v7PEP81lMMOV/PivTQ40EewpfJ7nKtJTUsHBktf3kv9vX0EUGr54E3aU7yRPt/0Nb5Rg/gatInuZttpN+62z6YcbfWHdnZfblzrqUShoeYnC7WehloPac2z4yjXtJYna+Pm2+3stm48WT3tz56Dm6dldpgqbrcPirtzSTbXoLa610FlqfJ0r5PVyaQ8XR3tWy9tYJrYv+NUav/yI4J6JlJRf859C+ciWa1ayQhgCCDC4uOTHAev28o3S/hkB674dVMRuj9saKpyt366utqf1rPTQX1pHtu6zjqJyn5/FdW+dD/VP3MfVT73e6p97i6qefaeZf2rfe5ems9vqZ+v8vnfUuVz91Dt07/ntS+761LaW7KBfdXA6LpHGioI6N66Bn/P5mRsekhrHbb/We4jXGYdmHbfyeKYhzc2t1XfurWEuQ909bC9SG2pmZg5FrvOKgajQRoY6GOXfoBS3cuP8eshACMY/ZSI5hrqxmv7oLSbp3XdEPXcujLP9bT3gh9S51efUt9AL1804HTr6+ub06XD0kurmV+WpGIEPEeq8oUv66OW//6Dvjr7NLNPwRcguo8IXfBxAceum4we3DqaRn3E7dDtgy9q+FtZG6npH69QP95Y6Jd3zxZ//TJ7y2MNCHsxfkvBCAAhZdzu+lrad8XPSK72YTfKHpCUADJta9e34257lLnlKr0duOhH1L7vC+rtG6DewV5+L20p1vJ4GxOMCxuLAFuIWj75F+0/+9vmujz4pkv3Vfczk1DbaJisDcptGnHrabnm45UVXOkfumkb9bS2+OAdwiEt6trCg3ZmoJNs3EUDo/9v78zb4ziO+8+3ExMAKcqOxceJbD+xf6FjJzhJSuRPl01TonVFjBhJsSxbtu7IkmxJsY5EFJXYsk1ZUmTK1kHcixvEfR97zF4A6fdQeb5VXbO9gxnsLoDFLoD5Y57u6enumenu+nRVdc/udgDPvkc2m6Xsaob0g0eAafL1Z6jnpkNG1c7NLN5O1oHhDe18es0vTa8FhcWWgXY0eNcRivV8xu+xuira0erqtV2vGVUL/PCxLI6lT9+j/u/+LUVaat2tE+hfb1/iPChNr3mv2/VoHnvsaH695hdq/ty1A+wnnfv1rxg+7MNZvUoYQwBtEBAqmb5rYQQwZbNpEiitsEYRH+ylwTuP8E+9su8I/qNNHvyZiU8dOji8oQ4sb7r/+QF+3nhPK/u/4JAXECmUijd7qkW4d8xzXBNTeGXlKq2sXqPoZx/yDmaYX6q1os+8/ZmDgVzzXtd+1nx6rqGdX/PYaX731LIacrmmOhp+8Dglp8cJK8oM1atXCZ9JFdMHlYDSLoZRhlayf2HhBZTYXFvJ0OQvHuXBVAyEgkBTVNkNmIE6mBBiwHc21zCMlgGjlavi/2LIZgua1sUMuDBPMMwxXkSDgI/uKsOo9/Yb2encZbQfGxY2MDTd7s+NxLUeu267Hr90LRM5fh3NvfUCryjDd7qahVYk73t1pTo1610MI1nWl064xiYbNIvlwS4aKFI78oORX1oxcCo1T1/TATYJ8A+5y72XeSCxtre6PT4+3Gszhw78rQrxLFtVV3H1QGBzGuji53+g/u/eSJGmGtlAaxzIgIMCwAaFHdfrfvCw8xWKe+vxq0/zDD1wlBITQ5S5puC55i7mwGVRXBtsb759MGM2M+iquyxU7BTPCpkVcf5eTWdp/Jf/tu5KBAYF4OEHHr+0UkFTTH7sEscMPHD67wlmWjYrvosswyizi/tsLQQhOKWOs60RNvmBNdS1/NkH1G8c2Dw2fDRfBQHGjx1fDzJ+QNHy65ULuqb3nXrrebqaMT6ilVU2NXNwzUF2a9ppa6DFMGK/Chy+FThKHWTF5lfIivCu0EomS5lrq7SSTVJ8aIgGv/8N6sZHs00HJcTekaaDDAB0dDHAKGcefQb4uJZ7Lhth3FsQKravy5Pvah4Alz59n2Cmcb94xodOUAg1rpDR0A8eek1DzeM913Q7hBmPfDjgVOdNjmav0vD9zZSanuFfxly5Ju8BnxHAA18QdmFXE4T0WSoOo3ICEADS+lcyq8aZnaFsxqHxXz3BnYhOhQaCEHACYLBrtVjQaJli8yOfDlgN7bKahoGH9BBGazWl8sDHe5+1MMJPcHC/eGBk95/GFRzFgKWYPFqfW7+7V66Wx1Mn/hwA4/j4AcLH4X+BBn01S1ljkimMqtVEA5B2NYxEO8pQOpthMwdAymQylL66QsmpMeo7c4QB1NNYR91NB6i7CWEdRUyo534hw6uIfN6yKKdlNQ6TDIeeo4wNo2gvHNheYQnPy9smm4ORQmOjocJHx4FfPTxpNgmM8L0l8gydO0qZ5UXKrK5QGq4JOK3xWVQmK3BaLY92rdrNZsJdDSP4ibCsCSghDr8La0hpgdPcb9+k7qMHXQB1okMBmOZaF0xemBRz7oWNnqOsDZz16tLngM9oKfK5q+GpprfZsLyCvBtAWRhGqsX6gWI70lgTapa/S2Iz7cQNtPDn93iDLPrXBRFWYFflqOZ+37UwYuhAVc2maTUj+41EQxKHPcCUWpyj4Udu4SV0/ojWwAJL6uuBwu9asZDxK+uXVm4YbRZmmy1fzUIhz1YYRjZwNmKu2+U3EgeA1MUAv9Hok/fRSioh/x4DH5HRiGwQAVDV2vb7YLb4HZsdbJUur/4iDjMpXtpHJ+C5REvKsrm2+MlFipy4gbobZcm2uxEdvDnNyA8udpqtKSHdD2RqKpZLM6p0/1T6/oUFci2M8hzYxtxG39kmtval9rF77rMxdiMAyiuDsQMfJxZibruRYv1t7kIH2pff8eoqa0WIY5sL9ky5izpVZvoHwsgPUNuZthWDFc+r9SiA8L9jmgabOhVfpvGfP0Iw0ToxsLCi1lS8ZqSDbT3Y2NcUPt4073kIo9zig/bX9oZmwcOsMC9+8gdeTYs0FTdRKYzcfjWLI3kw8QAqz+yzYKdjzA7hI4JWhLC9pY5m3niOsqkEL+EraNdqRFd57Ov1agurFkZbBT6GTzpf+0un07Ri0mC6xa70Ue8PjrBp1t5Us8aBrYPAHVgbcFyvV9av/hBGlYURaxDWVhc/GKHf1utX+xr3cYvxR8In6XMAVJqO/tcxYNejcbgSMHn2NtfQ0L8cI2d+hrUeAAbQVstAAc7p7obZ8jixNwu3XQ+jIKilsyl2ZiMEkGbfO09dN19vnNeiJeH3hDAg0PGAVBevuuG88CDsaixuBkU+O6/GeWBi38iZIxTr7xKVG3ulVrJsVusgC8PyQEs06TRlMikWcvyESM9tX+FVTmjPCgWEhcBh57XjCjN7MtI0rhc/BmhNfLxi1lRHHU01/LvuGCs9Jw/T4ucf8FjO4B+HLYBWQ7wUQO1ZGAmkBEj4di21tEyjz97P/qKOpjoGj84+GBgw4yTMLc3bA6vUuELHWw7puWsHqPfUN2n+4/d55ovPTpEzO0HJmQlyZqYKHonpScKheb3nSNc0O5/mT85Ou2W9abhW6NAyGtr57TRv3JtPz5HPjms5vxD57HQt500PqjM1O8n3SizMUHJhluY+vEA9t97IfaMThbfvtvIcS/pSH8yxWoIvE35NNvMaZSzCTBt/5THeyKv76DSsBhCV+gx7FkbpzArPepj5YLah4aCB9N31HdaOAKJIo8yArAk1iIa0lQPOW1cOQgI8DLbe41+iwQeO09BPvk/Dj52moR+eouFH76DhH32v4DH06HcJh+b1xoOu2+ka1xB1IT78o0KHPJ+W84bDP7yd+MC7VOXxPbryo9N05bHTNPLYnTTwQAtFjl3HY6OnSK3X27+lnMtPJB9kTQwg4vGISbLFaGXNtTR49iglJscps5L0aET5/q5SoVCp/PsgiH5HkHmze9JTBH8Sq+PpFbMxMktz773NHR5pFFMNS6bYEAkw8MbI5lrqKNKJWcrgW5O3oY5NQ/YhNNawai558FziLwAkg4419VnqPq4FlSs13XufYst7y1XjOd6FzSTLv4O07gbVWjYX2iaZ9/0FPvKb7T2NByhigOTmO3EDLX36IY9faEOQS5hEMNWwnaVSQNnMfQNh5Aeo7UwrN/TEsb1C6XRWYLxyjdLpJKUSURp5/hwLKwCElTUMQNjpGCC29uIODEvQ1xtgdn7kW68uWd0DhMT3JKaj+qFyu8XtOouJ6z01DCqz3vX1rgXVt9PS4R/Utsc4kH49wH2mJns530lXddksa6qlDrgJmuErOsim2uTrTxnfYZqyK3+Rby+xhSW7M7UiQKxqYVR28CUzLohgqmVTacpmUpRKZykxNUYD99TzYOSZEE7KxgMGTAcIYNjsQFQYBQk239faCY5z3nKgs/QmnyHovpt9L7/yfvfSNA295fh9W4I1OG/+rT7HxKMrWwCTOql5ad/ql628r7YFQtyTl+2b9jN8oJUDTPh0qf9fj5OzMGe0n1XKpBPscoDvE5Nrhl0Q+SvI3sl9MxpMucruXRilk5RJJw2QciE6DSBcbL1EPTcfFg2pURzarJ24mpKYa5g9ITg47Lim2SGuax477pcHg1/3PmFwuvtbOB4spFqXClJQyE5YBVuBEBDMA2ExwligzkJCjPeARqLv4w0Lld/sdfleEffHnjNoJbIcL+ebn4xs8Pg9K2tErhkuGhnGDJzo0cEe/hXTTEpWVlNZgCdFGUyoWE3LOL4bmb1AquS5H9D2LIxSmTShM7GsL1qYmGtIx3kqk6SJd16m9hZoQrIJEiEGEaDkFQ6/cy9w9FxDLYNzxNekQzVvFGEAmPS+7UXcX+v0rbfJXrHbvGDpe/gJValp0BjFJMqFpdZh51eht9OKicsufIEAYKQQkncVf2JQPcgTdK2UdFc74+0DtdR105do7sN3SBZfdPPuqvg+3S8pdGFmfc2okiAKuveehVEhM1BhNfbcWWpnWGBgwqksDu0OnrXhR5KBKsBSU058PSqkxYYKEIWSHXrr0Guabp8j3tm4n/CzEmpS4tmRF+YmX3dn3RxYtY5iQtSl+fyewb6u+eywFKEMyqvQsoGjcWiW/M5mRz2WyhXmQfVputah54VCza/hevn1mQEabiMsjPBKbZAfUH7NAfknXntS/ESeTbxBwr3T0kMYBa0mptKUTKfImZ6koYdvNStYNbzfAyDifR+8soZZUAYShA0DMUgQVWj9QhVULeuXx5tml7GvcbrRpDD4xfkupkbn8S9S162HqRvf4524gSInD2/bofcs9317/v9h6j55mDqPHcpzOKMtoPGgrdYDxnZcwzOwKWjMbh47zbXU2SL+IoAUZiqnN9bS0BN3U2p5kf2axfiEdhqI8Lz7UqkUVeIopJlU/rqYbXBqL0baqPeeemOiYTAf4NWNSLP8SiRmLQwaDDCE8O8gLOZQiHjzanpQiPx6v/XKYl8K4ClAqqGRpx+g+UvvsroPld97zH5wgbbjmPngAm3lMfvhO4QDdSJc+OO7NPjj02JeQchZg4UWK9s0gtpV21Svaztrun2uaXao5ezQW4avQWODyW+t2DKAGELQaNU1UEvD526i2JV+yvJ+orRrpu1E4Kz3zBWDUSUAaN+zMOyS7DeCUxAm2+JnH1H37V/jwc2mD7Qi42DlzwMaZKkewq8D0W8Q2mlBcS1vh8jrPfS61qPXkY6BDicoD3ijscHXNPnfr/D7FH5///1nO6ZcNkOjr/5UtCCGkekfY65q2wWF2qa4bsf1XNO8odan6Zrfmw7wyCJFHbVy34qG3QHNDSa2+XA7cubbtNzVyitkqZRDqXTcXQXeTF+sB4VKXduzMLLB5BeHicadn8pQKpVhk2364lvUhpkVMxo2RTbUEAZPK8KmOmpvhINbfDIYjDi3Q8S9g1TT7HQduJsJ+fnM8jQGPkxJPOPUG0/zfqrNDOSdUDaTTNGY+TUG/lmYJvSF7hkTrdILCru97f7QPtLreq55vKHWq/m8525+fHFvfJDdDeJ7bDcgwtjpPXGY5j55j5wMIGQ09fRVswq8sycLP+CFMAowU9PYh5QEkDLc+QBWMpWh8fMvsGMUgg3wAEhqpkHoGUpmpkM8+MjBSgfteiEGp33YeRV6SHPjjQfcOOApMKqlkafvJyeeMCuIO3tArwfF+Nwsf7YCDUN9QLIKqQsO+ZqmgkbBoSHa1I5ru2uaX4g0TfeW13T0ifSLaF6SDzutzWR27Hqauvi6TBwYh5kkZVNJSqdWeQl/vXffqddCGAXASLQlh9KpODnpFdaSAKNkMkljv3yM2ow21InPNhprCQMd4OGVkQYM9GAQIf9614u5xve06vGeY3BjsANOrMFBc2uqo/776ik+PbbtfsLtFpDocIQid36DzR1ZDTVOa+6rfMAoPLyhgsSbrud63Q4R9x6aH6Few74laNWY0Fg7wq82cn/WUFfzdTR54UVesseYwz4iTIzY0AgoqZa03W1a7vuFMCoEI+w5SqUok3RYS0o5SUomHBp54WFqg7OxqYba8BV1Yw21wkwz35QpUNZCQiDlBVJQPq3HL7TLeOMY+JzWJIOdTTX4tY5/mZZ6OrcdRn6mcDnT5j/5X2NS57YuwDeD/oK2pFDQ0AaGxnGt2Ljm1fq853Y9kseYzmYRBJ97IE/X0YM0+V/Ps+YKfyX7LAGkjG7ShTaLTbq7T6vdh5l+I0c5B9JOqNtZnKORf3+INRw4HNuMH6kNGyPZdBMYACLQllhLMeYbwGDDwwaNN917jrxI0zIQLD3XkPPAjDSbNFVrUzNy6t3/YBhhtpXBnmKfGBz10vYAb2VWWUu9L7QF8e+lKJlMyISRStH4m8+xXw9tIu1dw+fSbtAYc22obRkU+uX1ptnniOOeAj35rATbCtAP0IJwjTdStsi1TvOjap0th2js9ScplYCTevfBptA7bRhGGwHYVpYpddBuff4MxeYnaPTZcwIWzKIwz6B2W/ABnNjXw/6cWoKj0p49g+M5Dcoe6AwaI0ia7g1ZqNj3UOeaaLgPmysNNTT0o+9TMrbkCm4y7QiUkglKJtMEf9nWt9fWwo21g5TDz4pxJc+LhQaHYrOj1PvgMTMBoA3EdBIzKGc+a7sJNHIThKYXChVemk/PJZSxgP5mGDbV8YSlPj2kIR+Ph3rsL6qjkf94jBLLC2KObXIyKCT41Xh9x8JoK8G2kbp0pQ0/1jXyvGhIGFyAD2tHBgYyUAECWVlDHh2QCiKGlVl50zQN/a5J+ZxQyeDP15h4sLMTez/7JVQzg/+o+8RhWox8xkv8DpyiDJ8M+8egHbGfYpPCUHaYJVfMAoNADu+hGtL8ny5Sx9FDDGLWRgy8ocEqOBCud2ibBoVaVvrTT9Oq5XEg95e+Z22ooVa0aOwjMv5GmGijrz1BzsI8Q1U0vK2Fd9n7wzNeNgK7EEYbNFMVYImkQzDZhn/+qECm4QssBBB+DH6BiszODITG/WzGeYGk8EFoXwuGkeTzu446+P6sEUAQjJnYUOduSRh7/mE2zwFVEeIMLyGnsZfFM7Cq8VzNM4Gp/NoC+/NiSzT8+BnWhgAMWe0UrQRtIlpKPjxssATBp5h01KP5oI3hftIXsq0CcVlM0HzQlOto7I1n2A+Jd+IVXNdc3tlAKnXchDDaIIxSCYdNGkAJAoHl8pGXHmU/DWZD2ciWP/gAjram/XxNIYIQgxSHN817bufTuJbzO8fAh5YmAlLL5iMEBmmdNx+mxY7PCTBNpmLEgpx2yHFSErfapdRBtR35AU1oEJiBU8a8dNIpWrj0e+o4dj21w3HPMBLBV1DIhJCfpgBBHu+h1zTU63Z7e+Pot1bzbRz7Ek1c8gGM4j9qazlAE2/93KyUpXkcCZCq30wuRx+HMLKETrWdYkLshGXTAP4KJ0mOI0I99saz1N1u/k0AABXISURBVHn0i0a7EZMMgxMrJeqzceHg2Tuk8MGg1XixoS0QdhkRBoEdIIRNdXy9qZYGf3gHJZcWKIHv8PQ9YO5ssE3KWc47+AEeON9xT17pTK5QbGacBs4ec2Gvwg8/nvpopG2lPew288bRRt40KZu/3ysoH6AHrUfLcJ9jxawB5Wup65av0PSvXyPRRDF2BEDweYkLYG9pRejfEEYbFbwENqKlKeVgRkswmFLJFYbS5G9fp+7vft0MvP28iiKDUP5hRAcwQ8EHSDqAg65rui0smpYLReBkJq9hkxEwRBnVmLDCM/b2LyiVjLGpxiYPaxzVCSQbdhi8yURKtNJkmpLxGI288rgr/Goioz0U/tgTxlphg8Be20/bTM8RSrnC0Aoqw8v05tci1X/X1rCfzeTe00do/qPfsDms5iaby9jHltLNtnsQRpjRN3vYg2SvxPkTETYPkuQk1VSAEAuYZi/9jvBdEWsi+JLf+BAQwlRTAdhsqMJg16PChHtDEKAdAUBIZxMBnxzoDH3H12mh7U+s3UHDE7hWP4wwzlQzRXzmj7+lzhN/TbIJFX8tJWapQEnOsXKV005z2qe3DbX97NAvj/e63QfYc4aJQPOgvbHVou/sUZq7/BGb+AAqZM/VhJw0JVKiaXs1wb1wvm+zIKpU+Z0AvaXOT6n33AkXPAokDFrWTsyuW3F0mqVlOJ8xg/rs5LUHe6HryKuCoHE9RyhwqqPWxv3Uf3c9LY30G9+Lgghan8AVmlPKyVIcznojLOVv/xzgAUiBD7YeAEISMviTaVrq/Iwip46w9iemaA4C2k7adva5HfdrI02zy9px8T/lt7Omab62ekBPwDf441O00N9RlWawtz8rAb8dC6NKQVDv6+087zlWRSC48YkxuvLMA2weYGbEwBTnNuLQUMwKD38gKcv1uhysA9ovhCDZ6XquAhYUumXgxDarbRDg/rMttDw+Lv4v9hsZwcenMAwlAVPajSu0yhPaWg80B/iFnARMmBXWPgEitPlSfzf1nvmOmFXNgDhMsZzm6dcObhv4mMjea9qua9L5Z1nQXzKxcL+iPtPHohEfkBVV7CF68VGKz82Tk8YnRQrT8rSddyzulPMQRltgpiqgvCFWqnhWx0rbWz+nzpu+KNoKfzKi+4Jq6bLZm8Takln98g7+oHNb2Ow8KkT29bVxzOqAooCp72wLLQz35sxO/hZPtBJe/mf/GATIpG3U31ZkOceJUzoB00Xup4Dn1TMnSwvdn1PvXd+iVqN5AES8dG9BRt8Z7+iNa3vZ6ZrPDr1x+xw/IyOTirRjTssV07Djlhtp4rdvypK9k2TtEu+xUwCxnc8ZwqhMMEo6UfYHJBz4BeK8j2T60nsUuafeCL9CoIbg2MQAx0BmM8NsjESafajQIFSB0LjfuV1W45of94Hw4udPsAwtvqQa6rn7H/m3m3SF0EnEWMNLJKMiQAkx1bZlkKYysvXA0iQAfAjzzEe/oZ7v/R1rmt38Uy7wy5lPLjwmqr67tpF9vl5c28q3HO+yl9VS9Bu+tpe6xB+HiaXv7DFabPtETFvjS4TGx+OhSCBvSztXybOEMCoTjBKJJCWScVkcgNkDIXZStDQYoYGn7qWO49cxAAADrLwoFDrqYWrkQ8gWGAiIComGej3omjef5oe/SPwZEsLpyitPt32VRt9+iaL4O+1Ehp8dzw+wYk8S3s2rBZbjHP9hl0iISZNwlvn+0ZkxGn3taeo8eQN1sZkpy+dtDV9wd7mLdpJvxuo7B7WFXrdDO68dRx6BufxaA0DOH0kbE63j5GG68sLDtDw2yCBKOwJ0tBGvmm2TZrnTQBbCqEwwYuGFn8NxWKB0NoRwOYvz/IuLXXd+i8GDgY2ZFAfgAGGyhaJQHILiFRb73D8un4mgbkAJAMRzqJaGvTmDP/sBzbd9LNqJExcwYDmdtb3Nr8IWBFg8If6qmKwwzfz5fRr44R2yUmaAjWdGm8kHw2Juqtmm7Wa/v6YhRLp9ze9c89v5pKy5r9V26D9ovjPvv02JWJw1STUtFQy88rpNfje9504J90E4ijkKDpwyCfWOvi9rFfI1ubyHmGw82yccWrr8Zxp+7DS1mt3C+I0kBhJ/sxSsHakgqaAUE9qCxoJlTEEILrQh/Boi+1wARN5BXkfQNiKn/x+NvPYMLY0MC1gZsLIkXe6+4U9tnDgtDHbTlZd/Sh23fZWXxwFMtBO2LOgvEyBNwIQd7mI+abt4QaLpxYRBZe22YoAfvZ4Gn/pnmu/poDhrxYB1nEEu7+FQxslQMp7YEMx3ClA285xFw6gYYG1lnnIP9LLXn4yKRsHmmWgR8MPw5xeJlCyTOyk2hcYvvERdd3wtp52sY6YVI0BF5cGeoyZZzYNQw0xkzYi1DAEh71EyWlv//Udp/M1/p8WBTmI/Upknn0TMocXIZRp99QmK3NfA2hCeD78XJXt4ZPsDls4VtFillHfXMBjoNmS0vLabfe7Np3nc1bPG/RT5/rfYSZ1aXjDmuCMbMo2vUDXJRCLG/Q9IlX38bWH/bAYwpZStWhhtJdg2Ule5BwvMOOwgFge3Q3Odn9Pgz87wrI5ZV3w5OWFCGrQYNeWgvSAN5xAYNVcgLBLPlc0J0No0FjZTXgVPQ70X6pPNg3XUc9e3WQOY/uhdSkxPUiKedgVQQJsz38RPljtHm2qa+tPYDwUHKnxS0Cgmx2ny/fM09OTdFLnziPwGEHxb/K6yebSU9wt6d34no4lyfe5KnHxVL9sr7C0C0nYAN3xEaPuO49fT0LNnaWEgwnDhfU8Mge3RHMs9Rre7/hBGRZqpGwHaemXwYS3PlFit4niC4ouLNPWHCxS5v4nB01Ev2ouaIB3N+NcI2aiowEAIYVLtxguxIGHUdLe8pY0hjYXNaBqoG+cwiQAlPj/xZYrc20gDTz5A0+++TvO9lyk2N01OdHGN5oTZUQe2xuFTcZaXKTYzRfNdn7APbeiJ+yhy5h8J/+2m78H7ePhXKwEDwEHNsbVg1XcqLpTfd5JleWhS0tbu4gHaFe9dn9vFzru6eS/Rfur71+M0/fHvKB63VhkZRNB6dpbmo31T6TCEUYVgFE+m2FcH/wLUeIApFnfY8bk8Pkoj//ksddwuS9dwMEMwsHTdWg/w1PEX+GxaYbc2dvniuyv1OUGwjDMcoV+chc/k4XqsMrim33HJ5xO6MVM29TEIjV8Lpl7HsUP8LR7+W67voVto6Kl76cqrT9LkhZcI3+lN/P4/afx3b9LEu6/RxNsv0vArT3Ce3gdPUt8P/okit93IPxErK2Ly7HhfPQQU2IIg4HU/+fBsfbAhJED1N9cUwPwe0CSNnwzlpZxoPoA8IMztj98fwsevp47Q1K9fpej0BGtzcSfBkwn2k2HyERM21Iw2ArYQRhWCEeADCLF5EpclbFkyj1PcibETdHmgh4aeeZA6bvtbav0naAK1LBiAx2Xem6TQEcc3NChcY1+PD4xsANlxhRHS9ICAKgRxnQ9AEfUCfNDa+B65fKyhsXNZwIi/dWpvuY7aj14vR8t1BjqiyfHzNu6ny/XybigPfxBrJMYJDU1MzEUBA4Cx0dXGfEAZjRK7tXEvs4igdePd8Dy4N5vCd3yVhl55jKJYrjeaj5qabG5jHOHnWJJphtNGhHGvlwlhVCEYAUTxeJxnUsyomGGh8mNmFfPOhNFFmuv4M/tpOm79G3E0s+YCE8KYF421dNmsLgEmDBEDIxs6dpyFzWhNEH7ARq/jGuprrdcNfAIehRaHWL2yyuDTEoCitfELnC7PYPYvGZhJfhFyXEd+NkHh96qvY+AiD35DXOrxlDcAlPuLRoP8QQfex3toXn1ffmdoQLy/C/u9tIwAGAsLw88/Qku97TxJYGleHdKAUhJgimMvFFbJjN+LNzbm+8r2OmiKef8QRhWCkfiLkmyaAUoCoKSYbtgkF0/yQEc6tKd4bJlmWj+hgSfupa5b/oZn7c8BA5gR9X/FK2MQNGhQbN5YoEC6DRoVSDfNAyMWYJiERjtQjYfLGZNQVrSMSWXqRzmGEDQcAwlASu+ncbkmMGO/mNHyuLwLrtx1gAL1QhvU+t1n97ybpiPUuN7fDrUurs+Clgvg279Gg8+do9nuNjG94glZsocphrgDnx/6S/oMPrA4zGw21ZZNfxa3bUb6XmBWjNDu1jz7IAjFHtpo2xHmBLS0Dt2OZ9u6e8gvREIb4j4wO5vZuctObVxPitbEgBKfxHzXZRp+7hx1fu8b1F4v2gP+LgmzOsAhAi4AUoG0hVPTIJyIAw4KDxVYAEDziQaW02igzYhWk/O3XDZaGswcrsNjxkHoxUdTKyYenO6WpsPPzmUFQqwxGb8RytrPiHfW59R30HN9Zj3X60jPO3hLQB23FbQy1urqa6j79Ldo6KVHaKG/ywWKbmXAbyZBG2ITO57mHfaxZNRotSJHWzc2tnfcVwPgSoJRsdAqR76d2slBz82OTzbJxD+EfGqi8aY544PQ8k48zTMz/Ek6Gy8ORWj41Z9R3z3foVb8bhG0EQhwU76w2oLpjUNAVdDZOa6ahtFu9BqDwwAHcIDwqgOYBZm1KNFe9Ds32/yz78O+IheAeNb9OTAZZz2gqr4p1I8jv1yweRYIoDwgSXmG8NFD1HtfI11581mKjg7wBCDtbj59ictqYMw4q3N9IpNFTkOKsSmH7Q6aJwz9oeoHvx0Do3IArpg6q3cwJXmPD54vNjFC4+++QQM/vpN3KbP/hc0jY9o0YHVMNBYIOAug0WAUEvARsZ+IzStZvRNNQhzUXMbSpAAaAYRlAtYDbDDVclqIH/xQ72XLfGOAus9jtDRoLvWiueDeuWczDm5bq2LHuoGagRw/hws8Ax7kczXH/dR1+puE7QSTvz/PWwx4z5fRSKu33/2Fezc8bwijEszUYuC1VXkKDi5n2ZgH+J0fzMgJ3hYwe/kSDb/6OPU9eBO1H/sim3HQmiDQomEYKJlv0hQygJUCC2kaB0wQV9NP86v2wVqN2eek2guW6G0ICdRyviO5ps5xgR1rQgoxs5yuGphuvtR6ELJZx8DK+YawKsdgM5+G4Nnw3OJHA9j2U/uJG6j/4Vtp5FdP8kZTtDOvXhqNEzM2f5RbMV/i7oVNoTEdwqhKYVQIarGEOEyRD50ci8Hv5IgTNR6lhZFhmrh4nkZe/gn14Ncmb/oSAwIaiQo5QjWlRJMQjcXVWozPxgUPm4BqMmmY789R0NgwWi8uYFnrs9LnQqgQUtAAKogDPoCjApLrgrMb19nMFO2t/eSXqe+R2/jTkokP/ocWJ8bEFOP9XbKKiTaEfw5HIaEJr5cHmCGMdiiMAB4AKZaIciggAqCifOAaHOGA1MJQD01dfJs3IvY8dBt1nfwK2Q5vaDQq2AwBa+WKBd1AiQUf2ocFAPiZFAgaqkml534h38cyvzQPgGLDywWR+sPUjDQ/zYu8ovHJ3iv4q/Bu3bd+lfofOUWjrz1FU//7Di2NXvGABv4g2T7B2pDHRxcCpzzAWa9dQxjtWBgBOtixLbu2BUL2ymjUXYJWLSsaX6SFK3009ceLNHr+JRp4+ix1/+Db1HH8S66GBEhAuG2fCzQowEL8SmIiIS7QEF+NwkShpudBIZc1+6NUU8uZeTlti+9t4MgmoQEha0ENosl9jt3gN/01dd/TQAPPPkhj77xCk3+6SEujQxSLiTkLMCewuZRhre0kQOe2iy0zvBnqvGy//cK4nqDuhWshjHYojFjrYVNNNCAFDkIx4QRWqiE5UYc1A74eS3CeKL4L622j6UsXafydV2jo2Qep+9566jx5mNqaD/JnJ1hFUxAhVB8Rm3tmVzhrM2ZVTrWaIAhpup2PfT0GbnovQBF5OL9CSzWylgOEHzDDN3zYCzTxP6/R1Mfv0XxfJ8XnZ3jvFjRChg8gFIP5qu2CdsD7Q6OMmk9wckCPxs02iwqPi70AH+87hjCq8KCzIVJKPBHNFxqFDgQP37jJuQihagOcHpMNe3zd+JqiJi2+NE9LVwZotu1Tmvnjb2j8nV+ysEfgczr1DWq/+cvU3nJIQNV8kE27HJxyK17FaEeuKQeIqRloTL7L+Aat+SC1459hT9xAnae+Sb0P3ULDLzzK4Jm99B7NdnxGi1cGKL68wM57vIPuz9J2BJDwnry7nTUfbZuo8bHB35ZkDZPzwf8GTTNPe1ItaveHXjiU8xx95K1/H3cYOq3EQzs8DCszSCFEmNnFPBMh46//4+pDkk9N0D8QNDZX8PkJlq6Rhx3eolXxjmIPlFU4o4sLtDg6QrM97TTb+hFNffAOjZz/Bf+sas9PzlDPuZP864Ydt39dYNV8aI0PSbWh/LCW2psPUceJG6jj1N+xiRU5dwv1P343jbz4CI1eeJmmP7zA/zE219tBS2OjFFtadDUc/qgYK2Ge59ZzvB/g5OdL4zwxfI4jZhuPfeNjU5hrPWG4PeMbYNowjEqF11bnDwfJ9gwStPPy0gItzk7yfqalgU6aunyJJi++SSPnX6TBlx/nj3n7H7+L+h6+lXrOHuOfFonc/R3qOvMP1Hn6CGs20G4QRxqu9dzXTL3/cjP1PXIHDfz0Hhp47iEaeuUJunL+FzR58b9oqvVj/iG35YkrtDg7RcvLAqKw37ev37e7rXcsjLYabqXWt90dtf33E+2JHb/sczHbBlQbccx2gqhqIHExD2Ei8hYDERoubzQQ0VQkHZoXZkPVTtg0ii2zBodVrrhrhpr7uo56lMs3Ube/bXYvECrZliGMSjRPS4VWufKXe9CwaacOcgVQnkkk/ih9Ds0v8MqBSa9ryH4rC1aajlDgZBzNgJ25vwssNrtCENhttpviIYx2KIzKBTmtlzWTqPgSo9Gcj0kHv62dKIgUHrYGpPm9YVAepLNfy6yASTn1jSmI8kHorTs813baWWEIoxBGvosXWOLGoXDKhTDPxERDmphTYkoBArl8fmXXT2PoLUfdOuU+urs8J1iqQYXQybXJbmiLEEYhjHwBwqtKeW0j/hysykXjciDOq3Tw75hjIzBS8GnIdcSX+Dec8DtOm6l7I8/jV2Y3CHu1v0MIozyBW3/m9hukuzUNAMC7KSBUS0K4HIsS9vXgsLWk0tpiWWCzBmJSp94XdfL9LC1Nn620++2svq12cJTj+UIYhTDy1Yy8Aq/aiQxCMaWCYIA8Qdc0XeGm9Wq6G/LeqBjFjNmG9ByUcmaimz/sx4JtXkpblQM2heoMYRQO4i0dxKUM+DDvztLWyt1f++A09DvKfeOw/nAghmMgHAP2GAiEkR+gyplmP1QYDwdpOAb23hioGhiVE3TF1B0O/r03+MM+r64+D2EUYKYWA7CtyhMKRXUJRdgflemPEEZVAKOtglop9YQCVxmBC9s9uN1DGO1RGJUCrnLkDYUyWCj3atvsWRihw8shZGGd/quz1dYue1Xgq/m9/w+Rw3QMv/hUDQAAAABJRU5ErkJggg==;" vertex="1" parent="1">
          <mxGeometry x="470" y="-901.1" width="61" height="52.2" as="geometry" />
        </mxCell>
        <mxCell id="8M1PxrnFKsvRRrVdLFiL-7" value="" style="endArrow=none;html=1;exitX=1;exitY=0.5;exitDx=0;exitDy=0;entryX=0;entryY=0.5;entryDx=0;entryDy=0;startArrow=classic;startFill=1;endFill=0;" edge="1" parent="1" source="AeGNpR7aDOQoZc7-FQpF-8" target="8M1PxrnFKsvRRrVdLFiL-1">
          <mxGeometry width="50" height="50" relative="1" as="geometry">
            <mxPoint x="390" y="-861.9" as="sourcePoint" />
            <mxPoint x="440" y="-911.9" as="targetPoint" />
          </mxGeometry>
        </mxCell>
        <mxCell id="8M1PxrnFKsvRRrVdLFiL-10" value="" style="endArrow=none;html=1;exitX=1;exitY=0.5;exitDx=0;exitDy=0;entryX=0;entryY=0.5;entryDx=0;entryDy=0;startArrow=classic;startFill=1;endFill=0;" edge="1" parent="1" source="AeGNpR7aDOQoZc7-FQpF-9" target="8M1PxrnFKsvRRrVdLFiL-1">
          <mxGeometry width="50" height="50" relative="1" as="geometry">
            <mxPoint x="265" y="-991.525" as="sourcePoint" />
            <mxPoint x="480" y="-865.0000000000001" as="targetPoint" />
          </mxGeometry>
        </mxCell>
        <mxCell id="8M1PxrnFKsvRRrVdLFiL-11" value="" style="endArrow=none;html=1;entryX=0;entryY=0.5;entryDx=0;entryDy=0;startArrow=classic;startFill=1;endFill=0;" edge="1" parent="1" target="8M1PxrnFKsvRRrVdLFiL-1">
          <mxGeometry width="50" height="50" relative="1" as="geometry">
            <mxPoint x="280" y="-951.9" as="sourcePoint" />
            <mxPoint x="490" y="-855.0000000000001" as="targetPoint" />
          </mxGeometry>
        </mxCell>
        <mxCell id="8M1PxrnFKsvRRrVdLFiL-13" value="" style="endArrow=none;html=1;startArrow=classic;startFill=1;endFill=0;exitX=1;exitY=0.5;exitDx=0;exitDy=0;entryX=0;entryY=0.5;entryDx=0;entryDy=0;" edge="1" parent="1" source="AeGNpR7aDOQoZc7-FQpF-19" target="8M1PxrnFKsvRRrVdLFiL-1">
          <mxGeometry width="50" height="50" relative="1" as="geometry">
            <mxPoint x="290" y="-941.9" as="sourcePoint" />
            <mxPoint x="500" y="-844.9" as="targetPoint" />
          </mxGeometry>
        </mxCell>
        <mxCell id="8M1PxrnFKsvRRrVdLFiL-15" value="" style="endArrow=none;html=1;entryX=0;entryY=0.5;entryDx=0;entryDy=0;startArrow=classic;startFill=1;endFill=0;exitX=1;exitY=0.5;exitDx=0;exitDy=0;" edge="1" parent="1" source="AeGNpR7aDOQoZc7-FQpF-20" target="8M1PxrnFKsvRRrVdLFiL-1">
          <mxGeometry width="50" height="50" relative="1" as="geometry">
            <mxPoint x="235" y="-916.4" as="sourcePoint" />
            <mxPoint x="510" y="-835.0000000000001" as="targetPoint" />
          </mxGeometry>
        </mxCell>
        <mxCell id="8M1PxrnFKsvRRrVdLFiL-16" value="" style="endArrow=none;html=1;entryX=0;entryY=0.5;entryDx=0;entryDy=0;startArrow=classic;startFill=1;endFill=0;exitX=1;exitY=0.5;exitDx=0;exitDy=0;" edge="1" parent="1" source="AeGNpR7aDOQoZc7-FQpF-22" target="8M1PxrnFKsvRRrVdLFiL-1">
          <mxGeometry width="50" height="50" relative="1" as="geometry">
            <mxPoint x="200" y="-764.4" as="sourcePoint" />
            <mxPoint x="480" y="-865.0000000000001" as="targetPoint" />
          </mxGeometry>
        </mxCell>
        <mxCell id="8M1PxrnFKsvRRrVdLFiL-17" value="" style="endArrow=none;html=1;entryX=0;entryY=0.5;entryDx=0;entryDy=0;startArrow=classic;startFill=1;endFill=0;exitX=1;exitY=0.5;exitDx=0;exitDy=0;" edge="1" parent="1" source="AeGNpR7aDOQoZc7-FQpF-28" target="8M1PxrnFKsvRRrVdLFiL-1">
          <mxGeometry width="50" height="50" relative="1" as="geometry">
            <mxPoint x="272.5" y="-875.4" as="sourcePoint" />
            <mxPoint x="490" y="-855.0000000000001" as="targetPoint" />
          </mxGeometry>
        </mxCell>
        <mxCell id="8M1PxrnFKsvRRrVdLFiL-19" value="" style="endArrow=none;html=1;entryX=0;entryY=0.5;entryDx=0;entryDy=0;startArrow=classic;startFill=1;endFill=0;exitX=1;exitY=0.5;exitDx=0;exitDy=0;" edge="1" parent="1" source="AeGNpR7aDOQoZc7-FQpF-24" target="8M1PxrnFKsvRRrVdLFiL-1">
          <mxGeometry width="50" height="50" relative="1" as="geometry">
            <mxPoint x="286.25" y="-723.4" as="sourcePoint" />
            <mxPoint x="500" y="-845.0000000000001" as="targetPoint" />
          </mxGeometry>
        </mxCell>
        <mxCell id="8M1PxrnFKsvRRrVdLFiL-20" value="" style="endArrow=none;html=1;entryX=0.008;entryY=0.464;entryDx=0;entryDy=0;startArrow=classic;startFill=1;endFill=0;entryPerimeter=0;exitX=1;exitY=0.5;exitDx=0;exitDy=0;" edge="1" parent="1" source="AeGNpR7aDOQoZc7-FQpF-23" target="8M1PxrnFKsvRRrVdLFiL-1">
          <mxGeometry width="50" height="50" relative="1" as="geometry">
            <mxPoint x="255" y="-785.4" as="sourcePoint" />
            <mxPoint x="510" y="-835.0000000000001" as="targetPoint" />
          </mxGeometry>
        </mxCell>
        <mxCell id="8M1PxrnFKsvRRrVdLFiL-22" value="" style="shape=image;verticalLabelPosition=bottom;labelBackgroundColor=#ffffff;verticalAlign=top;aspect=fixed;imageAspect=0;image=data:image/png,iVBORw0KGgoAAAANSUhEUgAAASMAAAD5CAYAAABs8lPQAAAgAElEQVR4Aexdh3dc1dH3PxTbkk0IEBLSyJeegG0V22DAdAgOvbdAINTQOySBQGgJISG0BEKxcVfvXbL67mpXbdXs+c5v5s57d6/eNkmr5tU5e24v796Z352ZO+9pDeX/8iuQX4H8CiyDFVizDOaQn0J+BfIrkF8ByoNRngjyK5BfgWWxAnkwWhbbkJ9EfgXyK5AHozwN5FcgvwLLYgXyYLQstiE/ifwK5FcgD0Z5GsivQH4FlsUK5MFoWWxDfhL5FcivQB6M8jSQX4H8CiyLFciD0bLYhvwk8iuQX4E1x44do0x++aXKr0B+BfIrkMsVyBiMMgGsXNXJ5QLk+86vQH4FlscKrAgwyhXIpep3eWxPfhb5FTh+ViAPRhmqqamAKxdlxw8J5p80vwKyAnkwWqZglAuAy6bPPIPkV2CxVyAPRnkwyugCIxsgW4i6i80I+fGWfgXyYJQHo2UJRgsBaPPpY+lZ8/ibQR6M8mAUCEZgBTAzHYXrx4z1O0ZH6RgR5yW6hSAb9emohAoGylZeGnVmtI72rWPJeBhDx/fnkDie9reaQl2r4zHMg1EejALBKIjBBWhs0BDsQd2jR48yYB2lGQaroPZ2HsBG6s7QzDG0BZIBAA2eMaBJmvO4vgCh3U8+vjAAvRzALw9GeTAKBCOVTFxmVwBh8YelIEWPRKZI1h79oWzmqACND3CQlHxpTMdxx8+nE9d5NayHAmEejPJgFAhGyYmc6CiDBtQrYQyRaBDXPA39cr+O5IkkJXHtxwYwGUPVPh/wFLy0TT5MXMOVvB55MMqDkQcqNiGz3cfYjY4enRagSbAj2Uyg6ppIN749yACPUbG0fwEUlYQgEIm0pGCUCFxQ+6DKYQ46pkhQflrz8+FKXpM8GHkEnifkREL2VSY2TB8T2w4AA2ACO05CfcYWWcN00guXGynKByLfkC39WuNDHTTGcZRxMr9vieu/CtZjDcTlhfglEOYqWJj886hRGuADYMAFGCQYAQkGEdalZgw4HWNDtEo3Xqh1js0YI7dvhFYgwlrLIKaOSmAcytg8sLmlS5Sc8ofIaqHVBQOjhQC0ufSxWjZiuT0H74W5Xp+ZnKCp4ShNR/posquRhqsP0dBn/6D+f/6Zel59jHqev5uOPHIDtf/+Muq48zxquXkrtd5QRC3XbabGq35JLVf9in8cv24zl7Xesp3a7zyf2u+7nLoeu5H6XryHel97nAbee4WiX7xLsdrDNHWkhaYjAzQ9GqPpqQmWBPJAtHrBd8WD0VwAbCHaLDV4eDadGVyLi81G1SO5qQLRQvWB0OHHbZDxn0G0IDC69qHtpmJDNN7eTMMVe2loz78p/P6r1P3qE3Tk8Zuo5XcXU/MNJdS86yfUcP63qHbrBqor3cBh7dZCwq9uG9J+HGnJk7p120+ghgu+RU27fkItN5ZS6z2XcN89rz1OkQ9eo6GvPqCRyv0U72qj6ZFYICAFA9QMPxSeETYnrAV8o2QtRNryJTMRzFCG9cGz+2uzepl/uT1jHowWSE1dCIDLpg9hMl/lsQlrxhh8GVjAZ2qAFoRhhoTdxQceYcKJoRCNNZRRdM8HNPjha9T72qPU8fDV1HxTKdVf8n2qP+tEagDgbC2k+q0bPbCpR54BnaDQzkMcv5qtG7gPtK3dLnncTyni0jfS9Wd/g+ou+T4137KVOh65nvpef5IGPnqdovs+ptHmKpqKRTyAEqDx10RVRcZYqJh4Zl4P8YmiowpOomJiDbncSIT2mubjuQflPBitVDA6Os0gwyf5jNj94DyogHYMEtMM0cyMseXA7oP0MbSTk39ioIdiFbtp4KM3WUXqeOgqat71C6o/+yQGC5V0IO3UlPrSTe3WApF2tguoCHgIqKAMYKUA5EpHKiXVbjP1SgupZpv8vDLtH/3ouKUSZ8lr20aqP+dkar7mDOp6+DoGqPAn79BI9X6aCvcLOB0lmqZpXxqy7U8s+Yh0JAAkHpYcZ+t4omtCHohyD0RY4zwYrVAwmj46xaACYAEACRAZH6CZo+xUyFfiMzM0MwPDMNGxeJxGWqoo9OnfqP8vj1D7/b+h+st/TLXbv87gwqCwFcCzkUGgprSA8AMg4IfyaoBDSSHn2+Us4WzdwOUKXD64CJBpfQ55HOkLoMc/7lfGqCmRvgQQfVDSugp2LGlhfjtOZvsUJDlIdJFP/0nj7XV0bHqC14cdCIwRHRKTp+Ya73HOg1jkqbWLw4B5oPPXOQ9GKxSMRPI5aoBG1A5IPSL5GAlpZoqOTU3RaEMlDf7zZTryzO3Uess2lnwSgcLYekqM9LEVYAMAEZDQuEpASAtgiaoFcEF/Wg9AInX8PPTl5iWAkwd6MhcGRvRrARTPuUQAUstZUiqR8UXNK6R62K3OO5XabjuXOp+/i0IfvEGjrY10dFrUMqitAGoBdF+qnD4qEhGXp6GLPIj4ILJQa5EHozREp2rPcgvlfS5fKhLpxwehsc566n/3j9T+xI3Uct0mAxQCIgIaIq14IAGwYPBRKUSBqICqtxaIKsWSUiHXUyABQPjlaKvtBMwUgLxxGMhUuvLBSutpCAkMfWl/dprnz8BpxoJEhjmizbaNDJQKjgyU27/ON3xtT99K4fffoHh3u1FZZb2OTSsIQbVFnqzrctvzhWL65dpPHoxWLBiJ7YcZZkZUtpnRMRr66kPqfPxGarlmkzAyAISNzaL2QN0C4wqzGtuPue0C46JMyn1GZwmpJFGlAnApcDA4eGnte7Zkxf2oSsaSlI4vYwFwuF8DigJ4/risJpq5V28zYFpi1MhtG0WFNP3Xl4qExGBk1Mc6bnsCNV9XREeeupWiBz+n6YlJUWnZBqdAhLU1wJ4PeS0WA8DyYLRCiQ0nOK7woVJMdDZQ39vPUtttO1g9qTWqDAzJIpFAWhD1RsqEkYNARKQRsRmhrQcQLNEoeKj0BMlGwaeAavkWzKhZAWqeDUYekHkgJnNiWxDPX6Qm7t+oYQqArLoZVZBVN+85AVxiGAegqlTFN38lGw3IigSFfhsu/A6133kB9b/7Z5ro6zAAJGuaB6PFB+M8GC0RGAmQ+BsONYvvntnIat2UGZ8XMAcDEOxAAKLJCRqu2sd2oMbL/4+vx22g8ZlUAEOZX8BJwcgHFwUVv50v+fhtfBWMb7lK5AqexzVqngIAQEUAQQBR4jCUow8ZX0OMbY8v6UQVLmgOmqegKn37c9S0liP07F4GBDEHgFzLFT+jrhfuoZGmSprhNRZQ0hvKY0fVHjdtDoGjbHOC/xIDFx0jtjnxLaa/r3lQy3wt1oAJcv3Lb8jsDQFx08w0A5ASPK7h+dbL2C3EfnGUUPfosUkumxkbo8j+T6j9wSuo/sLvUS0kk+0bqLYE0owCQCLDC6MLk/oMLADgAoEChDKyhsrQdhrqn6h0qkoJgNhSSRVLKBsFBEp8+xODgANC/tgCYDpWUKjzQahx1LPjQWntS9eK60DK2lYoLgkXnc7e5HB5mB4f9w8A3LpNC/B4zpM4FPimUm1NuEg4xu4UeZqfTfPp1mRRwCjXYBfUf7oHXw7lTLjHjtL0jLmZMHaLadw8Q2LDh8pYFSN+HQP2oI57LqHaHadQnTHg8q2SsZ8IYxaQXLP70k8QGClTusys+TYwKGBJP0aqKTHX/EayYADSG7XtegtWIHYcBktIYWIIbyjxgVHH03loqPl2iDKk7Tp2XMvcNioN2eVYN9y6cXv4OVk3dyz1nXcqtT+0i4YP/Y+m4iPsDImzYxofggMIHcPGHBNcMn5bSlPwb9J4PswclFYtGAUB1GLmpSNCJmhzawNRH2obruXpGIzR2EBisf/o+ChF931Krb+/lK/kq6DiwJiMWyzPLqNGab198pnWZkCbSTVuMzPimm+DUVAczMu+R9xG7DB1pRsJhmP2ETK3W/Wod8kPqeHS71Hd9q9TlfFR8sfx1SodX+dkh0H1g/K0j6Ay5Gk5wLMe0pACnBq+LbCrKT2B6s89lTofupKih3bT9NR4AsiwxHqUaOoovmgwySDFb5x4xvDMGTEdvRwP5XkwWgQ1NTUITnk2ChDy9PQ0TU9Pcl6saj+1PbCLas76BtUUCwAJAEDiMMZlPtU3Um3JCXLKG6ZSplMGtNN2HvLtnzKxW1/baDmnzWsgKjGhDealdRouOZ16Xn6YouWwbd3GZVInUbXSvnVMDbWfoDCbOkF14ScF0ASwQ2XD+sJ2xGBvbvogPSkQ151zCr/QO9ZYxeoaS0Z494+Nf753O17FEUDKA1G2AJoHoyUCI7U/sIoGG9HMFE1B7J+eorG2eup84W5Wx2ATYidC61Rn1czYW5TRYJsR+w1AypcAbEbXugiT/ZTxU9VFHQYdI+VUmVs3VcPA4G23n02jLXUs4U0MHKGmXT9jkMIcq0vWe+qWPZ49J83X0J2P5mtot7XrotxNcxvM3ahnACP25Davn6hkxyAFd4eS9QxUAKa6C75HPW88SqPdbWzzAyixcdvY+2RfjZq9RJcj2YLAcqmfB6MlAiN4/+LWBoQAwzVAKT7QRwPvvESNu34mznvFwvR8vb6tkKpK1xsQgVp0AlXhChynuWcYLqDKkvVyHW8Zdm1GdZnTLrPjyZjcZmxIRAAlqGaVan8p2UAdD11P8WiYjk7DmDtD3X9/QYAIdibjUR00lo6pc7TruPF0dey+NK5zl7TvrIk5aX8csk1L1E0GKkh7JYUEwJc+Cqn52iIKffgmTQyF+YsAcLHQi4hMPLiXCwAsp3nkwWipwAgn6bR5b2wqTpED/6PWuy/wTnGxBxUy0OBEhkQBRlC/H6hrcPwDEIFRAAqwxwhTieEYdd0f++oYSSaoTPtPVmbnA4wgXWBcbldaSJ0PX0uTsbB3QzsVjVLbHecyCFXjup9BS54lCGAUFNwyAQFfyklVT9uijv60vbbjdTNSk3ht+2uldXjN8T6e8VmSZ4SkBKmqgFU6fI8Jaqh4cYtE5INSXlXLBuzyYJQjMALQQNqB+jXDP7nyhS8K/3CDBpWsp43tKnUXnCa3TXhB1ACPMhBCGwQQB0D5thowt+V8aIzbbptM0wAsZUhlbDfUOegb/Bi/9fadNN7dzs/HXwuYmaKxrlZquOx0nj/cD/RZ3P6SpYPmEZSXrL2dr+2CpDO7nsa1PqcBXLYTKAOZrDtsY71/e5rGw4OEmwje32nxQ8LeIw0JUWlC6GHhXGqyYfjlXDcPRjkCI/YZguRz7ChNzUwzIeL0FGlIHOQi+/5DzXec59tftp7A/kICLCIFBDJGCpuP1s8UeLSeKzFpP8lCtGNblplLw2U/psihLw3TiXoGQ3ys5hDV7zxNwAgMzHaaRJtVAtM76mVQWbI5LXR+wtiONIlnr8OzICyFCldIHb+/gobKvuBPl7DqPY0rfqKZKfFH0osMvn3LGd0tHMjpfNOFCwVwa+T2ZtoTq9MNnC/PZrNFKpKTUSQjnIrxyCAdee0xqrvodJZoAATwDVKbBMBooRkr2/7AiPoLagvVkPNZYthIPX99lGYmxUnw6MyEp4LCQRPX46gLiU+N1wmMHgCubrnOxc0PmhvyMq2XrP2sPgIkI1afjZQq9rwCqv/1T6j/3ZcIzqli2BYJ2ZOSpydZIs7z0Ww+8sBIQWmxw9W8KUyAxojLz3mUaKTmILX89gJjYxHVig3QYEhztcw3Y46EoEyjTKnpVKHW1dCuq3ka2mWZxFkyMqDZfPM2wofaYJSfZvVkhmamcMAdo+iBT6j63FPEzsKqDVTO1Gpg0JyC8lLNE/Xtcjdtl2UaVykSofh7yUvIvBYsOYmhu3b7CdT24JU03tbAqvrM0QlPdVUVfTXT/VyfbcnBaLHBT8eb64Jl2w6AxCrb0Wnq/+gNavj1j9ngDHVF3iUT50G2E0EaMcZgJXxlFGVGDTV/IULtM1kYPIbc5NVsO4F6339V7CHTeGXlKPtKYZ0ATMPVB6h257eMzUucMpl5LbDVcXUcO424na/xTEPty+4no7ZGEmL1NUByYxVVwXVrAcmBAgO92PIwBv4BQWTPB57WoUCkFxfZ0tJqr3/cgpGCUq7CqWmiKXhTT03TeCREXS/+jr+oqKcoTlZlSmUU9k5m9UgYXesi1DrKSMibz0+ZVPtzw/R9Q63cQK23bqfJcIgZbmrauCmwkV4Mt2NdLdR44enm1k3UTzG++3Yj99nsuaQqs+sli6d7zmTt3OefVQ/2IkhDJXitRD6zi7R9mHB6x8nU8+aTrLYBqKdm4NAqNrXVDi7ZPl8ejNjjGV7PC/sD0U1OzdBwWw213nsRVZaK/4/YhXAdj6th8+O4qC84YWEzYvsKbtXM1bKmvTAdGBknSK8+xsIcnHw2KIOx3HEy6B8M2vf20wxE4jU+I69GsIomL5XCPtZ4fak8k+kzyEA/i9kdyckuzwSg3DoKSm6+3a8dTwZG2o+nSpt1Y2DC8/FNqIAu92EcJtsfvZ4mjrSJ5Ghu17Jl1tVePw9GCwxCCmozk1MU3v8xNVxfLPYST3wvYGBS6QAEy0AAr2QFIfP2vQscblrBBaEdd+vNJQ1Q1J/LmDxnfLzs8v+jWEs93xbiuaF+TOLmcGqSbUbTk1M0NT5CbU9c571LJ++m+VKRDQBBcWV+uywTQEnWLpO2GEufWUHGHh9x6d9XybRc/KjkYMGBw0Zu/qjbBmq6/VyKVe/zjPurHVyyfb48GM0TjKamYLSdpJnpOPEnlifFz2Tg47ep9tIfiiSCj44ZSQhEDgJV8ABQIG5LJnY8EyDRvjTMpA3qpBqHmdCc8jpHZVABowJ+bw5uC/jh+toD4il5vw7pqck49b/3F/4UrDemkSDceWY1f/b6FsdDAAD35Ukm5ubOkQITxrMAx34ujduA5OWZ630AkZ2ngCV2IwEyqOEMUGpXYqN9ITVe/Ssa2v0+HTV0wvZEeOLP4OYVjrBw+5jw7EzZMvRKrp8HozmCEW6LxEYyw+oYCAmgBHDqfespqjn3m3KdvU1e14BqAtFeJCJfDVMGSQUMWieXYbLxXZURjIdf5daNfIUtdhCRihSMJDSG7KlpijUcptqdp7KkhXFUWpjP80DtrTNrCncBAYINLHWyPc4CokCQSwNGCjapwmSSI68RbhqLxROeveXNeHj22ou/T4Mw+uvrQPBF8uxI6gIy++p7JQNNJnPPg9EcwWhyWnyIRDI6SjPTkzQxNkrtz93N9hEwgDIBGBAMwgwDJjEnuM2MLhi4abvucojXXvIDGm6qIahiDD5TE566hjSf8DPHaGJ6iuKxEDt3srTABnpfcrHXKZvn8iQXADxsYfriK0sis8F+Vt/pwMgCs1ltdQ9T9IG9Zt+x0vUMkABPkZZEEq7ctoGOvP4kTU1MGsnSt1nC3pgI7H7ZXPMzAYOlrrMGzBT0m+tDHy/tAD5TU/CoPsYSEl6Y7Hj0aqMuyHW0R8SeMdYwId4js4zJdtxrk44ZFrg8aA4MFHgJNwA8G28spcnxuGEaAWNcXQs4q5oG6WiSpqcmqP+frxjVRpw75/uceDEX6hLPkW+1RNWtwqdBAuY7a7wUQBL0vHZ7Xiv4Ghm7WpD0hPlpGw84Yczml4vVTlhInS/cQ5PjI0xDWDsGBKzZHA/J5dYuG4BLCkZBAJXrvOW2kKnmAyBiNW1qmh3+2v9wjUhEhnn5toVffTBfPWTpyLxkaQzVKv0kAwIlZjfU+hqi3I679ZOlk7VBvje3IDAqLaSWB6/k55c1OsoGaz3RQYCSD1uaGLOHm+up5sLvMCDx2swTTNEHMzZus2CH23EyNd92LlVfeGogeM5agxRg5EmwaeaIddIf+tc147FK8CUDkdB4nQ14oUznDl8lxPG/3eJDESNZiqSUivZWa9myAqNcg12q/rPdYAARnPrGjzSzty18bvTUY2LjD3fJB+tBgOWwb5gPeaE86DRlJkjBJEFt5poHxmEmcZgogaHsuRjGZGlg6wbqefUPLPHIuslaTE7D8HqMVTf4V/nG7WmaGh6htkeuolp84sRhcp2HnR+UZ5cj7j3Dtg3U/dL9NPDBa1S785v8yolbd1baPFuyNU9YB2e+s/oKKPf22JTx7Zt+QgWq6nYAkawFQKnj2dspPtjFNIWDLlt6XA3182CURE1NBVxaNtbTSS3372KmhiheWVxAFeb/i7GNoESu8ZEPIGJGNnkaV2bQG5m5gou20/40nSx0mS2Q+QPACKc9/h12379ekRugqWmanIRaIQZrP4SqpnnTrL71f/Yu36qpxJAJU9t1EuZoXsnAunWBkaNh6nz+TnbE5NuuAICw+0q2LsjHGrrrk9DW6jtVPU9dxDqa7yHxQcWGd99bG+NVQEJ66laKR0Ki2q4SNS0bkMyD0RzBaGKwn5of+I0YpUFo/OEzkXgARJXF4msCImRCZCMrHB9FNAcB6k/AStLKDBpqHTtMVWb3ZbeZFU9is8JzKNOjDcbin2FAGGHrzzmZQv/7F0s+kIBws8gGfXPDqLeK/H4a2z/krXV4Y9dd9qNAm46OmYzpg/JrSwqo8bpiGuvvo8mJcWq48hfGhcK31wS14zx9riShfYuofSjw2GWap3UQ8hoC0LzPwYgTpFxi+P/Djuuyy4d8uA3r3PncHTQ5FstLRnri50MY9SEqw0g9wVf3MMIyw01O0cRojFoevFoApwS3JRuoqngdlYFhLQloFgBYAJRpWRDwAHCC8rVPlGFOqAcpBPmIM3NATQJAbkUZXmdYT1UsuRVQdXEhlaG8WOwd2g4h1zM3gjXnfYtCuz/0jNU2vUxOCjBhvbCGuE3DjRsD1mScOv50v8xHQU8NvQi3iY0FzM4Mb6QJta1gDshn4MIrGGedSGF+92uKovXlVHPBd31V2QbSIMCx1FMGDwPOmYBiJnWwBwpQswDLcoBFPTi78l6YNrAhTU+M0SS+jYSbSQP4kDSh+vKlwCqUnPKSUVLJaIId9qYnZxiEcAXLHsVjY9T26A1y+rG0I164DADFxg5j3bQoQMwnZFAxgJFpP/j8LFRDEDkYmMGpdD1VsJpoTuoiI7WViE2rEp+5VUmOAchXLQEECmy1559Gob2fBN7CsmEfazozTRNTYoxFHlQ5AHu0YjdVbfsGAx4ztQeMBvAYsDfKWAAsMw9IlJA28atAvGQ9fyecb6Impmnwf3+nqnNO4vnjWTNZJwYMNSwHAVYGeTw/U8+Oa98IFYxsVZzVNXPBodIUvoSpql3Pnx/0wR7q7gyxjU782eZ/1Z+N+rRYdfNglASMJmbkZNdTH685xEfH6MhL93j2H2ZwqGMsZRipqFhAwGYGEKSdXoy4B0IAMXPql1vMjTyAC4OTqQPwAuhUqBOhkfKUsVAfwFh70Xdp6PBuPrUBMLpGEsr1PuIiWZrrfvgjTU7R5Ngwtf7+Em89FOAwLjOlAUteI55vIQOPphUs667eRNHWWpFap49S99+fYxWY1eA5SKCLsSf2GFAxsQcs6RkbFQzaHmBtLaDut1/gtYVzJP+bpCnY5uRF28UCiMUcJw9GScAIKpkyF4BpYipOPSB4ZVD8a5ti8fgFQ4PQmFlLN3jMbBPffOIAALt9JuAGyYEZHQx93imswsBrGiClDM1z1r4BoqhrQApl3rNaEgLy4UE8VLXPASFdLw3h+jDOYAEgh4Spv4GP32RAhzrIY+ILBqySFbLExMBk1pkB0thhKkvW8TpAMsI/LoAqiH/zDdWw+88PyaHAz5Mc/BVYdT01ncmaaptsw6C+sTf8/KAdqN2Q+Dx700Zel7pzT6aBj/9OuKXEMzKYQ+3FazZJ6DbT/MUEmUzHWgPxORe/TBdludYD4/Cb95NxJoKBT9+h+vO/Q2WGSXGiMQhBKjL2GGZkxI2dBkQbRIhBxJxpvaC2wXnC2Cirv+qXFN7zEQ1+8AY1XP5TZlo5gWHrEtBig7sHABb4GWkK/WCOAI3ai39IQ/XlorZCAsILsYY5fBBHnkiXYCZVd1E+0tFM9VeewWCpgAfjLkAI4MP/4cRISry2ZlxxjyigxptLKdpeJ2Pi6wjxCep64R7vywhenzmWkNxDAmsUlBe0P5gjfrh95X/1pOqxB7wbqbx4HdVe9hP+d+b4AgSvIfu3jXvrreu+EsJ0oJQzMMoFwGXT53w3hw2xTABTFD78JTVc8TMhHBBP6XrxGyrdKKcaGAj2jJJ1bB8Q24bF0PNkCgaBFKoeGCCICfhWD8C445uEf40dn5qkkfoyavjtTvl8SfE67zUVlZgABsxUCqgWGLE9A2B02U9ouKPZA6EgMBIAAiDNEL5gwBcB01Ni0J6aoM4X76WK4rUCcHzzKLY3kS7lcyvqHsFA6BnVC6nvzacSmRGG8ed+y2oa1sE+DIKAgPtLsZ7J2ixkPqvMRn0GILGkBADmeRlJEeWlhdR07WaKNlSYZ5YLlfnS93Jsv2rBKBvgCqoLg/XkZJxGOluo/lr5DAhAiO1Dql4YFYdtHaoeFAlTLSThzqUvldqYuIsKqevVR+W1lekZGu1qpcbbzvHUMAYzAz6s2nngadQoThuQKi6gut/8ksYH+jxAABjxDQ9sQub2TFSLSZrAf0mZnqY4vmowPU3TcTG+hr58j6rOOZkBXAHQZkRWWwxzApREklhPtb/5OQ3XHqaZCdii/MuF7j89IGqpN/fUhwHGkvES6wWB+lzW323Da6wqsUrXRs3HPMT+aCRptjuKmox22MuWu8731hz0uhzBZL5zyoNRCjU1PhKllvuv8Ow1IlaDeI1RFbo+i9pyWwWVB6qGEpZLkNmkgxgl2/aiesl8Wh6+iiZjQ0aamaFYYzXVXf5jkUygHqkEBMYH2CoAmXw1DAOsmq8roqnhKIObqmUCRr6xGoTJn1XBbeSkvBIiL4XKreREaJAa77mMVRQbAERCE/CB6sZlxqUA8Y7n76KJCah/EzQ9RTQ5NcYg1/XWk+LDpepOhqCka6rrbe1JddoAACAASURBVM/FLdP0QoYAWnWYZdox9iMew6w9HxBbC6n1qdtocmJ0VQIR6OW4BiOc6Lh+Fskozm9Qe6fOxCR1vPKgd3MGQmF/F5WALGJXQk5FpJnUcdvPpY32oUyt6aZbtrNExNftk3GWKgb/8zf+FIgCkfrzCIiJ5ABGwM0PMwS7BhTy/0eLj4176yXrJ+sIovLWMI2RFf9pVmxFKoEBBEVFEZD3r/bZtrXjGzT45QcshankhfGwj/0fvkFV20/kwwHMrc+daYi1xi8IjLLpI9O66eqJm4V/Mwvpu2JrIfX9409yKQD1F9+NMl9NkEMBtrkpmpo8tiIB67gFI1yVTkxM+Qw1dYyZCKcu7EV4dQG3TywFGQkIviHMuJa47RKVErWbH5TOpm5QezsPfSWkmamN7QWq1dWbCC+rKnDEJydoIj5GLfddaRhQ7F585azPybYwscF4do3iQmr9w7U0Me6Dt/aZVRifoEjtIaq9+gyqKrLm7klBBqDYm12k0frbdlC8v4v9vzDWBBwsWbKN0+CBT6n6nFNFjc7Qz8her4WIu3swnz5F9V/v/bty6auQas87laLlX4pkyJ8fweeNBXywFuJs6rpb+BcMAO/l+jtuwUgIGd7CEyL2x8XJEdf4sZYGqr3ip6xy4YRmACrCNf4GUl+deRGaAxxz7SsV8fO8rdu82l//nGL1VeyioAwM0B2q2EtV536TgQySEUtAntTnG1Ir2L6BV1k2UMfLD/INlvSjkmW2YZwmx8eo/YmbPdsVn/5qxFUVDaqKUWU6/vQA26QwLlQ+lfJwmxZrraXai06nSrx8ugrACM+M5+ADCwZ+rAsbutdT43VFNNbT7q2FAJDxcmeXFN/Xa7kCT9C8jlswUkaC/9BkXG59YH/gD4E98Bux+xgnP4AQA1LJRpYi+NTyGDbRAApgSQUS2QBPKpUhVZmOAWDRenW7fsZ2ovgk1Ktp/kEKjI8PU8vD17BEUYHbNTwX2ypEZdE+PKY46xvU+94rnoSl65htiHWHdNb/779S+dknMwiqKog5KChiXDbG7ziJQl9+yNKsjAWpSKQzPM943xGW/uwbOF2HVCE/1wIdDqnGmWsZ057SGqTEEkjrBdT+7J18iPIa6Fv+cEcx8SBmX+55a0CQi/HLllhzXR/fZgYRYxw+ZbEOU5PU+85L3skKJsBpVF1kvksDFcKc0nMlLredgoWbHwRomTCO3Z8yNPquv24LDbc2EMAIEpHcFsorG3i1o6bkBLHXeO/XierEfcB1AEZuqHs7v02DX308bzDSdcecYM/CvMFokABgR8Kcee3NtX/ddUU00tvD88beAchgxIaqDR8cfA+o+cFdYgw2hl93TVOldd0yWeNU/SxUmeeeAAnRvKuH9x8RZwlp24kU+uRdA8jYR7EDYl9lj7OVVLOrnwtgWzQwWgzASzWGC24s4k/IJuJ0gQEwUnGAai75oTAC7CawFcFwaP59EF6TEK/r2dKQTYRK2HaeHWfGS2F3sutmG9exQbBoy8y1tYAaf3sBjfV2WSAC4p2g8ckpig/2U9OtO7zXLsqNpODdqhXLO23or+HC01klctcz+7Sx94zHqeupO/hFY56vuZ3EuvvPsp46Hr+Jxs3NHMBIpCJ4Is+w/xTe2oeHPNufzP+ky3btsq0fdGBk20ey+uz4aVxI8L/YIPFBBWUbpjkQayHtttSz7UwlTXaMTHFDnP0+ZQdS8+n/uAEjF6jg9wIj7MQEDNkTNNrXQ833XGw2W8AGpxBLBPwiqRh4VV1LRkSLla+Mmmo8BSTMufWRG2iCr/blqt2XjuSqveedP1FV6TrjxOkbvrl/I2kAlOuuKaKxUL8FanMj1jgkGsM0/R+/TRX8kut6ARNjJ2Jm31rIDqZ97/6RDa/SRv7rCNRrMB+kJORHyvZQ5Q6xf6Val4UqyyUYYe9EMsfnaECPGzkNm6XuPZxsW5+4iSZiMV4HSCtYEz5cVyAgHbdgBABiwo5PERij550XPTUBrx0AiNhVHx96Z9uLqGg4nZhIHDuDEkgQoQeVIc/+ue20jRK8pt16SGs/GufQevcJUgY8niH9AYRcYgUghyv3U+U535L/rmEYQW1HOgf02/qHq2liZMQDEmaAORE+bHXyzt9Idxs13wxVDdKcGGsxlvjf4PWT02mo6oBRLUWKhWSrwIQQ0tJozxH2VkbbTH54LnvtMmmzWHUSX1YGEJkvZBapTU9otHrrCTTw6T94LeFhr4Z9WRtdo5URrmowwobApsDX2ACfuACQ6tRgQpSFa/ZTzSU/YAKGJCQglBlBJyNOELnNxKiXClDscq1nt08W17r2PDQPgApAQbr7Hy+bdZBnFklxiiYmR3mNxsL91PC7S+X9LqPi8XU+qwYCzJVbT6AjbzzDHzJzJU03nY4ZxGYVZzsdbjY7n75NQN/YRCAZsHRQuoEab9lOUwYA0c7+8QWEAUOAZPufHuLDAuvBn+5AP8bDucY4c6pR2F5Te/3cOOrZdbm/JK/guG0XKm2Pjz55DrxW69k9ItbZJPTNAC/gI2ucGPdBfPkB1KoFIzBDPA41zDbQGzEWoBSHvWSCRkMD1PrQdXx7pvq4nNCpwQgMrkw/F4LT9hq6fSTrO9N8BiKVms45hZ0FbVBm1QbuDLgin5jidep+/WmWCJVZtQ+9Zas892Qa3P2xp9omrq29zpnFx/EBsbiM3fvey1S14yRPTYb0ifFxOLQ8eoMFgOM0Hpdrfewv7zN8pibECTO09z9UcdZJ3Bb2PUi1YFzEmYnhIZ+FvU7rumBg75fW0dAuW+i4zoNVcFWfizdQ5/P30NRIjCVEG6z5QDZSpOy1XNSkOyyWonzVghEIVtUAASUQPcBowtgY4gxW/f/9B1Wf/Q0mXmwwCEqZcSEJKVtCtevznCwGssuSzVHtDZBuaq/bTNHGKgPOZg0MAAkQid1s4Iv3qXr7iYlrgQ+usUpaSDWXnE7D7U0MAPMFIgGRcZqMzzAQRhsrqGbXTxmMMHf9AZA633pOVDLsXXxMpF2evziujk3IoTM+EaeR3m5quvlsfgb0gfXh0BjEGeCs2zZ3LTNNcz/WniTbh7nmu/OY1Q/fOJrXkuCTdN63KFL2hdA2XkhWAGKPeLGNLgXAZDPmGjBq0G++xLbU7UGYLP0wocLTepqvPEU1E+YD4eL/f+GzIEr83vtQaewOIJa0BGPE6VmElKbvoPpBYwXloS3ylRGhpsGPaDwSZukC9jGsgeyPSCV8LRwfp3DtYar7zc8FjHCbCMO98T4HQDfddQGNR0IUh2SSIHFmJgnZbYRIxceLgSkaoaY78DUBORB0DWp2fpsG9vzHjCfgw4cMDhbzHLCBTcRhmI9TfHyUut56Vt4RhFqG/61m2aFYBbfG0DV0Qx0/WYj1FWCT0K2n/bn5SKcq0/paRyUhzdcQLhB4FlFl5esLTfdeQvHRmLGtiRqGNWd1jdfKfHrEuLRkAxSLUTcpGAUB1GLm2YQ7v7gBIoAufGziE/zmOJ6l+81nzMmJE0acyTwmngNgKKEgtAnVJlyN23U1rgSoaTu0y+y4XUfjXM6nv9g6Ol97VKSZ8Tgb67EOWFNhagWmCRoND1DjA3g9RK6SmXEV3LYWUscbj9N4fNjYnrIHIHcfGYSgSk/JzSa8sdlwWyQ3SVgrfCEA9hC0lXkbAGUwFPsXmA0AyYZ5vGZSV0FV53+b4KKAGydWuy0pBi4L9v4grvui+W5a8zVEuf1Dvq4/ACRVe5RpXTvUfUWocS2flcffoTLfOednK6TKbSdSz8dvieqL13XGRRvAwcz7bfyz3H1YiPRCgNWyBaP5Ah+u7fkEHwehjpHYJyZofGyK/VXw+kDNRT+giiI4862nw9hQIwVAUlIimGtoE2NQHP0qwWmoeXZax7fzEHfTbj32S4HD4AXfFXuRp5aJfQXq2dQkVB4BaKi1sCN1vvKQrAMzlDAtpCuob+GDX3hq7kIQMDOIuURA/MgbT7GK7IFgaQE13HIOxUfl9g40AWlIaGNMQMyo3uwIqTbC0Rh/34jnbfzE2HfKAiQFFQ3tPUKephFqXOsGhbr+Gtp92PW9vsxc7H3UtgiT5Wsdu39IfgBxrFvD1WeyP9k4/t06HzgCSLx2kCDnKdHmsv2qBSMh2En2JQIQcXoMt0fTND4Wo5anbhPAKcJ/xADByWaWGwc/Zfi5hkrEbmj3DyC0+1ciTEuIFlMpcbriPIgVZU2/u4TGu9vFXjSlBApAEjUHp6Zn2JyYoL5//8UCYiNBwNnzyjP46pz9WHBjM0+iVgM6gwvmMjlJA1/+m/CfR3TumD8bryenDWNNeKqZjC9qG/ZW1G8xziIdgavCWd9kIJHXd+RZsNf6xUhdO4TumiuA6P5pWkMPVCyJKKE/4x6i9ZOFdj92XOnC7jMhzqq4fB4GKpt9gHa9+jhNxEcMWE8YCUn2DNKwSMTz38P50oDbfhWDkQGgeFykovE4jcenWc1gT+sLTyO8/FlRBEIspApVDZC2/hMFqywQ67P8AXQUeEBkGtfQJjaNI3QByk0H1UGeMpTfF5hvPb/UymI6nn98nMEZzMqSkDHyIw0wAHH07/6Qas+DilNAuArHbRaeve2ZOwj9qIrnElK2aQYjIxWx71N8ioYaD1HNpf8nz2JuwTpfe1ykIb4xUzcN33aEfsQGZqtvUzQxNkwtj91onFZVbZLvk1cXi0qu66ZrZzM7wIPtV+lAxVp7t70CEPY/AWiM5OXmI82vwpjXYXR+Gtr9s4e6BYS676hTd+WvaLipmb99xBLSuH/raB882e5ZruuvajBiD2tW0+TkHB+HmhajVhCpUXWShUooycJk7UAMWuYCSUIZi9ZgktQ/GJDdOsgrx2c3GEAL2cgMwJC0Al8h2036Pv8njY+P0uSYSImQRAAqfD1uVByWLMbjNBYfpVDZPiZmjInnAHjCntaz5wMDZGMGyIIvPtBXpj+eh9ozJsZpuOcI1V91pkgpsHmd+23q/c/bDDYMhKqGZSSVTVGoXL5IgOfgtTfAgj3VPOQn+2kdSJ0qeWpeutDt066vcdThudiAp3MNUMXRzm5rx+3xkN+lX1YwrhOQhGGu0EMn18Ayl/5XLRjJya+vfEywVADxdLB8L39QXjd2oUMQhfbpgpHmI3QBJts0gwT340tFHpPhcyfFhdR0206KHWlliQcAgStwMPWEAWgXNKDORpvrqOnWs/gZoLoeLl7P4BQ70i5gNKY2m8xBxx1H05DUFGSQB5+vhhtKhUHxL5EuPp3Chz5jcPPr+RKv9pM8HKPWp27htS4zkq2oM/6NHfbCZWQ3be+blqVrp/Xs0AY0bZ8MjOx2QXFt75bpXGuv3kThxkqKT02LqQKvzPCNmtiQ5gIWuW6zasEIJwEkAgGlMf6QGL5O2PzoTay+pGP+dGpZuvZQ/1QFRF8a1zBd/+nKFegUlFAf/w1WiHEDS0udLzzARmkwK4AGDA0AgGEfeWLk90FlLD5OY/291HT/lWzEFpWykPAdIQCYvMuHE9ZvM/+4zAtzGh8Zpqa7LmbwqCrawH5Hw51N3nxlrEzBCBLcDEXqDlH1RT9gcMbz4JJC1tY/NJSBswl1/dO1sesBOOz6SAOMbECywcWta7e36wXFK7ZtpK4/PsRSpa2a8aVORpLl4tuU1vDphBMqR7/5E+s8CX9ynMBkQPWh6oNUc/GPjME6tXqUFmzSqFfpwCR9eSLh2oTpx8WWBbUN/SlhY+64RYP9R9dfQAhrqcw/NguMUHd8bIRan76TbxcBnFVnn0qD5fvY4A0wYwdDvqmc577ATmWcGEXqmWQaxAu9zJzFG6j2+iIaHwp7YAQ1G/NXMNVnCwoxz0nMc3Kc2v94v9gHGQxk3/01TLbOmdkJ7cMFcTudeo/9cXXfEueUevz04xRQ/TWbaaSlVvbcHELgA6xXrqWcufSfczDKFcil73eUxgzx4gYIG9Dy9G+pHP9eqAiGzIUBI9umw7acDFWw1IQqakQicfrEK/kyf9iJ1ODOoAT7Q8l6arz7YsL7ZirN+KpZcskCdQEM7X98kCUrnLgtf7iWxoZjIlmaWytVgYNAINM8jMPjQXr1VMcxase/MDKg0fS7i/i/+MbHhIH4VM8QjBh0IQGOT/O/VYItive8SGxsNnDY8fT7Mhsk+DUi64LDTQf1ibkE5SMvVZm2SQ9GG6hs+0Zqfe0JXl+xGU7KwbxAh0mmex1ULwisVjEYwU40youPEzXSVk/VV/xUbCFF4llsA5INKnZ+NvFswCibfoPqgij5itq7BRRfKQWqjjeenKWWKVGoJKJpgALiCkZdf32CvZbLzz6J+vf9l8sAQAogmUgm2nfK0AMZSGniD9b51jPmoCigtiduJgUidc+Qk13UzFR9T8VHWYKaHBObSdfbz1Pl9q9TtVkvZnpzk6oMPp/QBYd0AIc95cPDAjFuE5CfbF7umHY9PqRK1lPDTVsp1t3lScE+8M9fsk21/nMpW7VgBNWMCZkBaZQ6XnuCjbGHwcR87Z5oRHbBSIElWajEpO1S1XPrahphJnF7jMQ2ohZAkkAdGGlho6i59McUqT3gEaCoNqqWTaa9DYPzYXnRBmp56DrCv2uCrQ0ABAnTV/fmR8zsF2RsVzI/6a/7o7fZkxjX4p1/eYT3UABoLKuxGbwmxdiO9ripg2FeGNiotSnVKl8SxZrath8AvgsEbtqWat223N7svQ0g6EP3124/lzgcedlYX3oCHXn3T6yuYu9YIklygTEXAFnINqsYjEQqmhidoFhfF9Vdv9VIReuN/UBOJmV0BQVNI0z10/pKPFpX8zVth25duyxdXNtq/5wGkxRvYKIDyMKLHATdeM+lNDY6zCAyNj7FV/YAFBAjru9VxZW4ScMexAA+Th2vPU41F32PBg58SqNjcQYESJmIu31oX26Yjkjxn0nkullBTWxGsHNVnXMqr303/i0PABD+TUZy4zlmYEDXq2xvHpMTdOSdP/Mb/bJ2swFFgUGAxQejIDBwwcdNo40alt32ACfsN+aBMe22PDd9Ydtc5Wt79KfxdCEDEd+qFlDLvVDZQ3yZAZAWcNd1Xz7hqgWj0fExYaLRMer579tUvhUfqCqkQ8bTGvF0AKAEY9dVYtE8TQf15Za5abv/oDLt0y5DHPmQggA+IEoQHuexd3Eh9fzzNQ9wXJBITIvLA1SwsbERZvixsTHqfvcV6vzrE569htugznjM9GvazevSQ0AQ0iv6B8hgDoNV+6nyvNOovOQE6v3v36WM5yZgBVBF3cTnSEwrcAHEUE8BKdbfxa+XQOpSozEzeKk4vwIU5Kfe+L6konugoe6dApiCiu6P1gsKta3W1TRCjQe1s/PSgZHesqJN9TmnUGjfZ/7N8jKwGeme2OGqBSOWCEZhsBulxkeuo8MlQnDQpfXK2iYGlxA0rcShaZsg3LjW1Xy3jZvWekGh1rX7tPM4H7ddxiALf6AyfO7jip/SyJHWlMzKzD8GsFZJyYCLYfrhrmYa7u4gdhKFgRniPVQ1E2eXiXkBUSJ4KLCAMCPNtVR9Mf7l0Ndp4KuPzHPA/iPAonXThxMJoIX2E2Oj1P33F6msdKPH9ArkAKdDRlrRPHe93bS3bwbEeE+SXIzYZXbc68Npl6oOytKBEf4JpD4HgLL1j/cZ946Fc1q1gWQh4mtwEubil55YgglyodqBcQBE4ZpDVHH+t0UXh1pTIu+i2ZuNuP5s4nDr2GV23K7n5ttl7hiadkP0oe001DxNQy1TYgMglRXJ2+lNf7gugQlTrSczON7bMyocQAaSCm4hR3Htbhwc5VZS1DjQSqo+syubDRgwtlZf/mO2G4WqDxAk3Oz6VLpS6U3AdGwszs8F58366zYRmBVrqnY2HFAAdLW/uftor7/ul5unbXSPNLTr2XHtR0O7vZvnltlp7VPzOMQtqwEt/Hebmit+TtGORiMlpr8AWAhwybaPnIFRLgAuXZ820TLTTMTpyMtPiiRkXp2QDROdXTfcDRM2NcDI7Jajfao87V/raDpdiPp233Ycpx2DEa7yt8i/+anc8Q3q2/3vjJiXpSK4PoyNew6hDDoAIAYnSCM4qGAzggoFUJAr9vHRbKUUBQg3BBgBLGQeCEdCA1S76xdUueNkZh4Z124n4GLvdbI4bgel/3H+WgPTz/gEtb/6GJWXft17ORqqGq8t366JtIm1h8uE7pkdBu2blgeVpctDWx7fojW7TVDf2sauZ8dVhbf77Xn/dZEwR+cK8PY+SDxbwElVf1WBERObJ+nhq389VHfzWXS4tIDYwFsCO4tcgdsbl01ciUBDbasEo6Hmpwu1voZa304jbucjzrYNzl/P3+3B89Vfu4mGB/r4mjwZg2o+iIKveT1VDcSl9pthlq7EnjPKb4CjHdIj4+LNrv3MNWSi9Ow/RooZHaPRaJjqr9lCVed/h7/aKMCoTCDglZinZbNDrjcx5ktXhgmHWuqo5tc/ZTDSm1WouLLOvnFZ90BDXncLOHRP5hva+xvUlz2+lrt5s9OgeajuIv1BSmr+/S4aC0cylpznurdzbbdqwWh8dIz693xMZWedSGXmalbUGrmBwsmR6qebnmloE5Qdz7R9pvW0b8z9kPGXAhBBvWh79k4htIwkF1GRlLEZnPAFx/FJw7yQVoT5R0eHPWlrhN/+z1w6SUaYenMn5apSjdPo0BDV37GTanb9gkYG+kRV9NRII0lldLLL83H/bMgWCQx0gUOr+ZHrGeAh/WDtsa6HVI03jofI05/uj66/G2ofWi8onazM7UvT2gfS+tM+gtJahpAN6qadFz/vNApXl+XBKFFqyY2dKnGMOHW8+jAT2iH2LSqgwywZ4SZqQ0ogAqPrbZULWG4+0koEdl3NSxbadbOJ6/ggRoAQ+oeUVL7jG9S/50O+kWJnT09CDF5rMCXsMVgzABJCts+Mxik+Eud+RsZGOQ/pOJh4RBh6dHS2FJIMdFLlKxDK7ZgAHLy9mx6/mepuPZti/X0eCNqgpe1S9c1lcAnwgEzmDtCFOtrz6T+o/OxTmGl1DbEPrP4WrfOYX5neDXVfM8nn/i3p1m5rl6EvN+32b9fRuPbnhlxuLmxQBtrp/efLzpouzF6m3YsMLjxWrWQ01NVBDbfu4A3AdT5vlLl5QjoVACjDu3WQ75YhrUTg1k+Vdvux62qZhnaZH5dnUhW0+spf0kjPEYqPTTGwJALzbEDCO2hQy7x6DDTjrIaNjsdMPkApTqPjIwa4kJ7d19zy/L4EFGWM0dFRan35IWq89zKK9feacUd4XIAgxlLpJjUDjIq9Cz5JxiiP+gA+3AwO93ZS7a6f8qdYcIsmN6zqe5RoA8T+Kigki9vA4NqatI3SiYZ2G7eOjpdJqG3t/iApQzXj73QZv6by4nXUfP81NDIUWpaAtGLBiAmLGQOEGicYVYVQ4wRVoverj6ni7BMZdKCmgYl5s0r9mzMliqDQZ3pfnbPBwW0TVD/TPLtfO+62t8cEA6EcDnSQkFofv4UdHRkYRsCICwUauepHgA7AIlLaiDhVjo1Q1wdvUuNjN1G0r8fsLaQ22Wf4IvHN2Dyfb3xklJqfvJUZFusHFR50gjXGutr7gLimUa5Mr0CheZrW8lT5KLPL7bi2t/sLytM2Gtr1Aa5l+OSuenUXyTPVnHcqRWoP0yje12SJ2PhisduGquZLIy2twUmUi99iMANOVD218QwMRhAHx0ao7fWnmaiUoWEPwKbZhKVlmYZKkKiPvjJtt1D1MGbCr0gcH2EXw0fUVIpRyWEx9mB+YwCQjNTDKqMcKIMHP6e2F+6h4f5eD1RFepL6Ep8fSKKP/i/fI7x/h/1R+lCDdtCeJay9ASUFCbcs12kFHozjxnVsPAPiCFFHDuUN1P3+67yu6jemTqRQX0V6FJU5teS58ICVMzDKBcDZfcJ+wTYNgClAaVTSyIMvSdO9l/OpgI2wQQSnoPxyCyaJYy7sWExsRuVkYrz8xxTtbBUpYkxVqvkx6/xAJpOxBYQUjJjwjXEZ/jCdf3uRYn3dBqwEpPA6CuYlUlImYySvA8Ae6mylyst+wioaaEKYWHzRbDCSfOcgcEDArZNJe7dNtmkFQg3R3o77FxzIN/MvKqTWx27gD9lhDSAdKbhrqHuSigZyAVQrFoywkAAegJINUogPlO2lygu/zyoMTjwQBjbqoFFpbELJRRxjZdKvDVjJ4sn7ETcFvJvWcP9vaGQwJKedZZhORUxLXaZGdgAL9lJ9jTCvWHiA+g98zv86yVbLFIwyYZZ0zweDPHya8JkSBgFj6AUz62HF+a40akkb7p656aC9Q58YA3W1voZ2/XR5CjoaBs3Vfg6ooegf9eAACU938ArWHmuloRtPt44LWb5iwUglIYCR/kZg4BwdZpsDbtBkcyXEJgCM8O1oe9NXalxsRuv5FYaOt5+XNVgge8pCEljqvmAcV0YQFQz1R4dHaBT2otFhi1FU4oN9MLnEk3o8vx2POzJM7a89QmWlAgyQHgDuShNBDK55WkfDIPDQMjdEH6ivbey41tUyO51JPa3vh+atA8MPzAclG6hvN1618S8w7DVV+2uma7lQ9VYsGEEq8iWjYcJNC8AIviktz/yWRW9hWB+M5NYE9oF1HsH5m5aZNJNpfZXIMq0/l3ogrMPbT6S+A5+IqA3VdWSE4BfkSou5TmdPkGI49cFI1C/Y+1R1UElIGMUGI1HXsh8zEYxgY+v97H0q334iAwOu9bEPKkXonigAQQpRSUTLNLTBw40riNj52k7DVGVaJ5PQ7UdtYJqPEHn4MsNoLOqpaDYYLcQFwVz2ZkWDkc9gBozGRln8rLlxm6WW+SCjRkq9icpkc5drHX6WokKqueKXFGmrFWlidHzRQcjfg9nqcqoylmKNii0AatkALftfsj7mQux2GzAfDrBwdQVV7vwOgxCARvY7End6lAAAIABJREFU2PVDQYkPgRSquDC8T3e5oCF7LgqQyLPjWkfHR1pvlhvvvpCivUdY8rTXZSnjKxaMQKS+vUjAaHQkRgOH91DZed9JUMfEVlRAZVuEQA4Y/Vk3KdNwMaSdjOdimKH+3isoOtDNIARJEQyWjIGXUz5LtUaCGx6FNOeD2cjYMKtoCXkjcLocZ2lYntOvb9fLNM6q/dgIRdoaqGbXL1nd9SXnYDDC3rgMnmy/tJ6GyerZ+bb0YucHxbXfIPDhPOuCQw9f5LMrSMkGqrz0RxRuqeWbZwZmXAKZ9xDVnrfYwLQGp1IufpkSxVzrKTGDQCHqw84A8bLrw7eorGTjvNSw+YJOqvapyoKILlUebktaXnmIRoajDMxYE2HUxVfT5rqPS9tumD/JWnvXRewcmGxv7Hw7nmpvcl0G4FLwwlhuOt34cAcZ3PtfT01jD3tzW7nYIKTj5QyMcgFwdp842UZGYjQ6PMZgOjwa41uYphfuoYNbEk+25UJA6QjELtc5I9Q4yu04HNrwATK1ETEwL4G9aGkBZW4S0siIuIPgxeKWx2/kGzRlbkgd9l6szngh++Lh9RuAAXhLpWpcHKTbUwWQhQxXLBiNxEYJAMSLODzG8Uh7M9Xceg7rxcrECA9uWcdMbOflOr4YBIz/dBKq2GekIVVbjcpqqT3pCOt4Lh+JRKj95Qf4plVvYI8HMIIRu/GBK/mVG+YhvPLDKj7U/PRglAuaWblgZKmXIh3FKFRbRuUX/5AOpwCfTIEp03rzBTV7HDueCYiW7/wODdZV0vAIwBjqdozjvi1tblJDLght2fY5PEJtbz/PNqODRStLInJVM6XFzA7C9VRz1Zk0fKTDgNCwJx0thE1uLvu9YsFImG+EYiPDbC8Cug/s/4IO7/hmTqQgGyjsuBKAhihLVa717FCJx85LFz9YtJaqry2iodYGT1VVMIIhH+uxlL+5EONitlGGg/G28/03qKLU9y/S/VhpIWgm0znDqF1xwfdoqKFGXiMaHiFcHGAPdG0Wcz8w1ooFIxiswWwKSogf+fAtOrTt62wzspk5W3BA27m0scfMdRzzq7vrIor2dtJYDDo/AEh0f4kvLRgtBRBmwzw2w/V88g7/c0+oZ9i3TBnarWfvuVu23NJQSSvOPZX6vvwPQVVluxGD0TDfWmazlgtVd83w8DDhtxTEM78x9fQXRhweilDbS/fxh/cVSEAANoEsVnyxxm14+HqKhgdoJIb9UzDSdTn+wGiu9NTz2b/oYMlGphV1A5kLrSw3wEk1HzzfwZINdORvL1C0s1kM1vyOJ8BoadR7D4wUlBYrnCvhaDsYr4HIkAaGh6MU6e6iut9fwacaHLvmQkwL0QZAqGCoIW98GjuWXdedh12mcYTNz9xNI9EhTzrkQwW+RuaGUdcqHwYBM+hGVJLuz96jQ1tP9MBoKenH3ftUaaUF1FHg0RtBTScL8Q8cUNb85O00ULXPM16rqrZQ0k42/SwZGM0X9GArgn8NwqFIiEJNtYT/p46NOeAwvm4aTj383HLdcGyOxrUN0nac0xbYaZmG2j73YQE1v3CfZy9bTvailQF+RpIcG6Weff+h8lIBI/huZQpG6fY8XXnuaSTxUFb69udVwF/U7Pn83wzM7Hw6nGj6SLaX2YBMpnVXLBgJmEVZxYz299BA9SEqv+RHdGDzWgYbLLj+dNMBQvrTMoSah3qar23ckMstMHLLNY16GnfDVGVuXSUgNx/p1pceSAAj9p3BjRrfrAVJA/k8ZS7YHHELiXTf/s/E1sj7igPJP5SC1n015VVcdQZ1fvSWZ6bhdVki+lkVYASX/p49H1HZ+d8XfxELVBRcFHAQqnRkhyo1aagE5wIH92f1r/XsUMfUPLcPO98us9vZ+ag/K120lpqfv4eGozEGZKiqrKbFhllaTCd5KlMev6GANpivb9//6NC2E+hgcfIDRPfMDt09scuWOo654SALOszsvPLLfkwdf3/RByNj+lgKulixYITFig4LI/Yf3k0d7/6Zys47LQGMlCBsINK4go4dKlBxniXZ2ESncbsfbeeGdt+IaxuuZ9mWdJ4I0b/+NG2Xaxx1Gp+8k2KRsAEj4+IQkwuJdGC01OVLQez2mABvqLYAo54v/kOHt8GAvY5VNN0fXWsNde+RtvdIy+cauv1q/9pfULmWpQozAaOK879LHa886tGQSNV6K7u4kvSKBiO2G+FK/79/p8bnf0eHzzqFGd7eIAUBGxhsYtONdomL64DoDIggRL9az87XuhrqWEjbeW5a+9B8t67244Zcb8t6qn/kBooODoq+b25FVTpaarBZjuPbYKRxMF/3pzBgy21apvYim8ZWapzB6qyT2IgNYMYt2lKq+GtisRjN5bcciA0EhXm0v/Wc3KRtP5HgRcugYQGJzeQeYxvJR8HIJSgbILS9gICI8l4/FlhpPbsMcbcvrReUb5fZbd0+DxYVUsPvLqFIzxEDRqOinsEOskKko6WloVGKDcua4eXqAyWF7J+G9xozsRkloxuXjrJNL1S/tiqWTELCc+K5G+67yriGwPFRvomlYL2Y4ZzBaC4ANt82NvEqEKHP1j89SLU3n81+EwpGNqPbjKz5dp4SjM38Wk9DLVNisdt7ZQYAtUzbaqj5CHXMZKHdBnG7rbQvoOprzqRQW70nYoukKK4O9lrl40lU15Exig1Fqe31p5gpwZwCRo4UbKnU2H/9Ye/suKY11DKE7j5rntbRcjut8cDQobXZ9DF7bjovHYuft2g9Nd59sQdGuPlaTACyx1pRYOSCGYy3YMCGp+6gql1n0H4g/RZfEtENUsbWEPkat0M3302jrkcYaYjBbou4pjWOfpQotE87rfPS+jy2NSarEztPo8H6ciYeBRy8QBwbEWO25uXDIDAStxD8o0jY3mRvRSraX7RWpGt7vy1JGvtl74cdt/dL84NC5Ol+2yHTQorDSulGx0kaWv1rG3ccBqPidfxyudjQxlhLWgh6sUEm0/iKBSMGIqNiNj5wNZXt/A6raLzxTCwAnFQ//0ofbWb/UrXNpCyoz/nl2YSHf0R5oLiQ+g5+Ls57rJqNspSUV9OCwCc4L3ykg+ruvoRphdcXAJQCDDyGNt9Ut/eE2yXJt+spjXp9WfZIzdP6Ll1qfrpQ+wkKPTA1fFJzzWZ2HIbauhBANNc+ViwYQUri27RojKrvuID2l2wQ8CkuoP3sa5QcMKDKuZs8O528fWqQ03bzA57Z80nsD8SIebS/9yqvQyw2RNHYCA3HhigWG5mTHdCWPOdKUCulHQAb6wS3kIpf/8KTUmTd06vRQWCAtkH5gXmO1MUSkZWn+x/UVsuCxtOyIBCy87hfA0aVu37BYLTUe7eCwcgwXzRG+Oa1ov2+QCkniJET83QTV0q4HyrblnVU/+RtFBkcoOiwgtAQRaNgtLldTCyXdrlmDKj3+PWVf0VlZ3+T/XF85pb/JBMEBMjTesnCZO2S5SvNJSu38926mtbQq2sBG+jEBiI7jgOt7OL/Y9V+qSXqFQtGoqaNUDQapaprtggYFYvNCIutm7OaQxhbq64t5n9GKCAiEpGtwi4XcFlu84BUjdeJOv/1Gh3cupGlaQA8aAc2I6UbZW6kNY7QLteyoNCu57Z309re7l/bu6HdNihuAw7iruTFabZBFrCzMOyMCkYA6VwfBkH9rwEz5+K3OMQnzFdx1SZWWVha8IzYosYkV6nSSUbp2qcrT92/TXBKTEpwUpa6f9Rh5tl+MvWWfcnS0NCwSEOigqxsySjX9APAHhoYoMaHbqT9RZAcCjhkeikW4AkCB3vfdL+0np2eT9wdA+mF+NlzwkGGNICq4vzvsZS4asEoFwBn9zkUExDF1Wz5rjPowJYCgooGe5GoaqmZOTlIrax2eN7m15/kAwV2I5w4uWbk1dL/YGsjlf/65ywJHSoqJHywTugi+UHiAoUyeFC+AojWySZM1zZoPO0/XRn3bd06V17wPc/+ir0NkloWIy9nkpENHLmKA5AARmWX/pQObF5P+7esp31bBIwQn88vHVil6ztd+/mXw81ATjd89zvS3WmM13mJKBOwhJrW8+k/6MD2b4hEtNmoMhlL1pBW1JUkMZ5ub+126eoGlWfWPjmgArSUdhDHFx/tS4+lkqxXLBgBhCLRIQajil//VNQ0MGfxegYm3UQbNDQPoZ2/FHF7DjovnYem7VDLvHDzWlbTDm8uoAM7TqHuQ7tpKDpMw0NRc7uWB6VUoAQ1rfHxW1mixjqLNGFuWUFDDPSpw8xAIXUf6cbBGHMbJzUY6TOj77ILvstgpFL1UtkcVy4Y4Wrf2LsqLv+xGCCNdISFBtNqGBS3y7QcefrzmN7qS8s0DGqnZYc2ryMGii0FdKBoLe01KgDUqv2Y52aMtU6kuc1QMeWU3b8JRAQJT8q0P50P0twH6myWH/KanvktrwcAKRqNcBzX/JAeAdpDsQjHh4ZinNa1y1WYCggWqyw6HBYmi4rLA2xqYDTcPIaaGwl0o+vLTI+b2GJZf81PrvrY0pDYXvw2OBTFm1uN4bBLHdwieenUKB0zVciqlmVIT1U3qEzmINLg4YsgGeHwWtoLkBULRgk2o8t+JuDDDJ7IyAlMbAGLDSRaJ1memw+is9sExo2BmW1Ym2DLwsYX8PeWhDABJGu5HxaZN69l0Rl9AYgANErciXkFAmCos0k8wlHv8GU/pcGWBpYUBWAASAaUonLriDQbbod8IM8VGC12v0kBbiTKjDYcHWEwFhVkhFpef4a+KoVv2jpW07AnwrQCMrht0jTWF3vEYMKGbh+IfMlF9sJjcnP44B3C/Vu+xrdZMBbLeBJK/zqOG/r7r3SQGEp9G5RkbD8/Wf9+G3mu8gu/Z2yOSytNrxkaGqKg32ITU7bjJYDRrl8ayUKkC5UqAkHCAhLdXK2naTtEWbq0trdDEC+kocOW9IIPvyEfwASwEfFbJCAwA+xdezeDmABIuN0xEh4DmQFAOHQWiV2M26OvLaKytf71KeNjBPV12AMmSEZYXwEikZayXe+VVp/BCSprLESRWJRpnP2vohGK9HZTzfWlfBjIWq+l/SW4nRTpBXkiuWKPJF9tkT6Df42BRfLXsiSE/QLtoY0CD2yZGgctwIyAV3lsmso2LnQT3Idf5oJbYpoPQJ6r/JeQpGC+iP5qScEoCKAWMy8T4ofKEY0MUflVm7wbNAUPGxiYuCwQ0jpKBFrXTrtt3LT2YbfVOEKcrJCKDm4uTJBy9nK+EhIACCezpLlP9SBndU5ABvn7NifWFekJtz9yJY2xKn79cwq1NbFK5jOgGPljRkrCukJly2R9V3Id0CoYDM8A9UOlRDx727/+QgdK8V9kRLrUwwvAAvDgvWZggUot0quAkxx2vLcoNwZsYWzskajbLA1b/eyFZIz6RjrmfbYOOTuNuP5senTraFlQ6AOSPAvSs/IwDsC3CGD0fXMLK2u2VMC0bMEoHfABhCIKRtds9lQe3nhrQ3VjMwmDNlbbaZlNFMhLmgYQQaQH0ZUUMlHjVMUpyXmQcFiqUbBSdQEGeAEhUdWMLUnVNwNmDHRmfKhrki6ghj8/JAwYjVBsOMxSQTQSYykJ0iTUFZWUVjLYZDp3PDMOLUiKMO6H21up8vptLIECYGT/8AqRMKekRa3WOPYNcZZqGUREgpJyY8Pj/VxLhzYBAMy+Q9VDv9u/Li9xexKxjish+gn62TTnlivt6Ry0rh26bTSNOiKhi/0SX0gV4M78kMoFYK1YMAJYAYxwq1Z54zbeTJEWQFTG7oKTL8sf2vLPIRB783VT7dAuR5xPSQabdbTv3G9T86tPUMurj1L1g1fxfEEA+4txkhq/KJykzBByggJc0A8TtiljQjd1MEfPtwpzZUlqPZVd+n80UFtB0aFRlhohCUBKAvN6AG/SmTL0yq0XYSaT5x9mIG5943naW3KCqF9YXyP5eBKmOSxkfUWywD4n0pH4tMHmJ9IVynForGNXgcO//jlV3r6TGh67hf8VUNNfHqfDO07l/WQ1vDgYfILoSWhA5uHGtb7mu+nU+Wa++H7TxT9aFpLyygYj2EIiQ1R958W0f+vXReUBYy4AGGEjdXMRuulE4gwGPcxjL979OedbdOTglxSJRCnc3009lYeo47N/UuvfX6CmF++jqnt3UcUVv6D9W08Qm5ECjjmF95l+AFb4KegiZLXPeebax2/j/5gCGwnWh+0mkYiA01CYoLJ5wGRshisXcILfINBbRRxW/GzDQ9RXe5jKr9nM+yq2HyMNGeCHKqzSLIO72Xfe+yKRXLmOMWZjv/AN6eo7LqL6p++k1teeoM4P3qTu/V/QQHMT7wHmceTLD+jw9hON9BV82CmtKZ0hDIrb9bRc8zS087UfDbWOSN1inyy74lcOGOFGNnhdc5m/gsEo5jFU7QPX0KHzvsOSBk46LDQYdT6gZG+obqAdpgMj1IWxEvVA+LUP3cB+QKpeQnVQm1eoo5l6DnxO7R++Sa1vPEN1j9xAFdcW04FzTvNOXBjDhYCEgRiU2I4EURs3NiDedQQ19cDZp1Ln5/+iSCREQ5ERioZDFGbgxphhb91cQFrMdC6JGn2r1MyADLtRNEINz95D8LSGNAojM9YTYM40Y1Qx3mMjHekeI+9g6YlUdulPqPLOC6nh2Tup5Y3nqePjt6h736c00FTD/0wTKiHUQYwPEJQLgzCBPjGWXO2vo33F5tLCOfBkD/1D0AWQbNKp6BdlTEvGrlV5TZHY1Ni2JmptrvcnqP8VC0aRiJzuMEzWP303lf9mE+0rEfEZ+r8SUiYhQGs+wBU0Bs+BN3sd36qV4+q9sY5vu6IeIPjAEImG5TSKDFGov4/66iuoa/cn1Pav16jxpftY7D94wQ/4UylgJmaaBPUBN3Fqayqgsms3U6ilQSSjyBADIcBGxvaBfDEBaFHHgpE+IreKWNuO//6DDp77LZE2WHL2DdMK8mqYPrj1BDp8yU+o+o7zqfHZe6jl7T/SkU/fpZ7Du2mgrVEA3Xj/i/8WxlJ3CePPxQ6oERpsaqDyi38gh4VhfozjAovup52vcTt0AUvTbh3tzw1Rz8uDBL55LVXdfI4x8MsN7NCI3L4GAUYu89aAqRfqt5jExkZYqCBDYWr844NUfcsOOlC6kRcaxGUDRBDYpAKfVGV2v6nja1lK4bFBACUb2LcFEgpObUhFYBL8cIpi7bAPrFYAPJCODlEYTnoAqPY26q7cS92fv0fNb73EtqdDu37F/+8LEhHmsn+zGGLFDlVAdX+4nsJ9fXK7FgXwoa/jAIiMPRFAEQ4P0UBTHZVd/jOWgqA2gxlhu0G4b0sh7d9xKlVcX8JfDG1/9y905IuPqbfqMEU625m+sA/4CX3H2B6HOKQuPhQjIW8PtY5IvkPU8vaLtLdkg+yPSiQ2INiqoJVvg4Ydx5xt4EkWd+sh7f7U0F5718XebaOn1i6FmrZQQLRU/QyFI9T01vNUe/+VdHDribLgWdqMgsAqNdAE24jsNuIvZG65igr4tq/mlh0U6T3iE7UxKoeHIoQfg89QiAEKz4VTSJggzIDEcZzIkSEGmf6mBuo7tJc6P/47Nf7xYaq961KquPxntH/bSez3AkkJhnP+3hFLYwaQbGN2Ej8zYSplwJUXMrBHhmigq52q77pc/IaKN9D+s0+msit+QTX3X0lNrzxGHZ/+i3qqDlCovZWGQv3eeos6i8NCnj0RxLGOYQEi9nAXCZelIz5I5ADBv1zH5Yqqz3pZgcPSBQY37QKQXZ6qzK4XFPfAy8wB7gl1D169LNw9FlQyWkxAArOCgRG2fvQ3anj+bjqw/RQ5gbIEIxtE5ht3gY0JQm0TO06h1o/eMcAS5vnjdGWJZcgCHMThFwTJzwMkMdbjeVml8yQcYQSsfRj/WbelgY5U7KP2D96gxidu5xud3vKDAnBGPVRJbKUDTqr5w3YDIIF6hpst/MPLjv+8zcAz2NZKQ709orLiZhFG/YhZRwt8sP4Yg/cA6wt6Y/AOC/N6AC/qIPZRDhXZv/aP/0YHt51kpFZxoISNypXc50tzc2kPukQ7HFz1T97B4IrnxZopAKda3/mWBal7Kx6MwIRHDu2mtnf/RAfO+RYv8Fw2Z6HbwKEMKgGufJn4IB1tWUfV9/2GPYBjIYDKoBBvSNTNSChMQ+GoUZsRRjmNjQeRKzOEw2EKRQb909kwDEtThoHQBv2Futr53xmpTxaIQPuZL0Et5/bhoRADR+hIK4U72igSxnoZQAeg8CEwxIeZgE6MjfxgRAAZgMVlTKwd2oUjsjcAdZbAUN8cEjCUQ3Id6uum6t/vYhePr86Uj7UJjYkrx0LTG/rTgxBhpv3j4qfl5UcFmI1pYKn2dcWCERgShAAigDTQ+cWHtH/n93kT+PTJ0r8o083LtB7UNNgjEOImTE+iAxd8lzo++SdFwsMMFmAaBQeEeCb8kA9mwHPC7gEwkTieO2SASp6f882pLW0jhmGkHvcZBsNEKRIS25SOM9dwqQg203GjkREGH/+Uj/HNIqtXbD9T1TPGayv1wsyU0ZCx4WH9zZ5AehLjv0hQOg8GediOuM8woW1kaISO7PmUDl/4Pbm1ghPk5rX0lTFgC22kV/VtWnMBxk3bdRFPVw53EdQru/jH1PH2S74ZwAbsRVbh1yiBu+FciXQx2zFBhCM02HuEVZMDF/+Imd/dmIVOp91oBkLzdj6kI9zWweWgWAiw9r6raSjUx4AC6UdBR8RkgE+YhkIGbHFaAZyQFzbgY9RTXmuI1QGXEKgLYznaoV8wVTg8KNKYAfKgdislT8EgWQipMxITAzNUYQESAJBcHIh6LBIp1kdsQmrc9wFHylSikosH9KEuEp50xGq1ANtQZIDqHrnJSMZQy7Dva73XR/RgypQuQW+Z0Vw2ACeSetmVZ7BKL5KdPqcC9eKGScHIBafFTmfCFMxckQiF+geov76Kyq8+Qxjf6MOZbnZO6nk3egaUYDfiVwXW0f6d36b2/7wj4BAaZuc4AAckl0G2XcSMdCRSEhOKsVl462JJOFIepRAkKAYmqCg+mLHBGxIWgAuqIBgyAMBWUx6DsQHtkJFuhiyJUp5V1C3EdY0lHxKlJaVi7YYihH4QspRkfJmwluEYbE4AtlEaig5S15cf06ELvite8bi54xuwAr7NA63hVYx0NDdf8NH2yaQw+KlBg6i5Ywd1fv5vuRk0TsT6XmMyoM9Vfs7ACJuZawCD3QRqB8K+thaqvHeXpw6xegQVKdlvkzEkMkiIsyAcBvFbDANj1R0X0EBnBxM224YYIMAEIVHLLGawGSMf90FiKdeCwctInuxZrxLqYIhq792VFmzSgdFClSsooT87/hVeCt6ynhqeuIN6K/YbNVMlP18yzBXwBPWbMzDKNRBJ/wJGg+EBvr5u+tND4tuT5ORJACYFnQAwYlBKBmILlb+lgJrffo5CERijw2JsjhgVDcbQPBgt8zWAbWhAmJhVajGYt3z4Nu3bKjdoCwUoueiHVcXiDdT+1ovU31wv9jWmOTHKB9FfEIAsZN4KBiNIRMK8UNcATm3vv+75GqmUkyxk6QeqVDIwMmCl7e16KjklgJsBKRAO5xspS9u7Ifo4dMXPqbemTGxHITwLwDVMoRCkI322xQmDiC+fl/xQgErNqiDsb0Yqgq9SxQ3bxD64xBcoaQEMxvQdp7BKORQaNGpqyITJASmXNLHywQi3UYZxu776jJ3avtos3s8uANhpDzQsSUc30AYTBp4A0LLbB8YtMArqgz/7sWU91T1+J88f9p6ByIDceBlw1ec6HsJcEnmu+g5HhvnWk0EpEqXmV59MuM211SKlraA8LQsKs60f1EdgHr76sPO71FdbIX5ufMkhtjK+vV0CyXwNTuFc/3LBTKGQ2KRgL+LFC4X5bfj9F/5AbtRSSDwAJWyQK9nopiEfviFcLwCIbFBLFk/Wv44JMXk33hbfdgq1//c9NmLDFwbPAiN2LtYs32fwus4NrEJ8YYCbM7THqzoHL/ihfHXT/LsspaflGa6lsl1n0kBrc4KNkm9dLReTua1NcokyVX+LAka5ALvwYIjCoQEK8S/CYW9zHVXcvpO/DZ0MJDQ/SFrRMjvUeprnpjXfDdOBEW7WuM6mdVR21a+ov6NJ/I4GI2yUzwNHMHAsp3URlTpC4YF+qrr3cm8/9cDJJEwGVK5E5KaTtcs0H4chXqEa6OlkNRMmj8QbxbkBSiqwSVe2osEIQASCGBwcFENwfx/Vv3CfZwdS6cYFCk0DWDS+2CH8jkCs8EHBPGueup0iA7hijualokW2l80V4MRmOUjNb73AnvZfbZKvd2ZES5Z5wAYtBRM7b65x9MU0ZuxXGuewqJAa//oURcL9coGyBGqZC04rF4zCYRoMi4oJKQmANBiKUNt7f6W9JYVpQQYA4IJREHghLyg/I4IzdqPgPsyb45vX01cApeKN1PL+X/kZRNqbn/o8VwZbrHYgxMUaK3fjDFHXwS9p/45veS++ApAYUFIcdC7dZUNL6eraknvQOF7e9pPoyO6PeQ8YFHCoh41/FV+m5FYydYEI6RULRnzjBBAK4wd1LUShwX7q2vsZ7T/vO2LvARhsWU97NsEVX9zxmfEt43LQ5ir4aBhUZyHy+OSC/crMZ98lP6Ku8r1G/YTqmQhIePsetjI3fzmmcwcAuWUSe968rsbtIhKS13EgDfHH6sJD1NdYS5W3nOMdagAi+O9ABVf6wN7aPzefv3tl/pWVXc8GFW2DUMEEErV6cqvkBHriPEhdm4zdE06XOHi5rfrRraODl/yEemsr+J09PLNIefr6kdxO22vhxnNxmKxhiQJSRZa/5cAAkIiEOX0m7amroMM3bGVpgyUSowrpaQUw4s1LAkjJiMAmiIWIAxwx1pd8khYQn6ibC6jizouot7XZ2ML852LQDUUZiMRWlgiMn+jzAAAgAElEQVRUy2E/spkD2/xg90vyy6avoLou87hpqPepfqEwXteJ8Gs5bE9hZ1R4tcseDPQeodonb+evbO7ZgoNO6Ar7CICxaURBxs7TuIKLphEG5dnlHFc6DghB65gH1zMXMXuQx7wgntdVd11E/e2tLBkJEC2NS4m9L3MGo2zBa6HrKwGGByNM0AAlqGmh7k6qe/a3hrmNCgTd2XxQyyMas0mzNjkJSC10PXY/wJwwHk4uzJEluHVU/+x9FBoY9J5LjfSqluK2TZ8/H+YOlJme9IIkMsh7gjwAKBxW8TE/fDMKhxuk7/1nyqWE61pig4sdx9676aC8dHVQ7tYBIEJKwg99KhDhPxZDqmr6y2P8GhWASMHIBoaliK9YMAK4DYRAIGLAZrAzhNLyz7/QbrPorKKduZb4ZACzwwZkTg2OW6CkaTdkwLBAyt14tzyTNE5LW0KTMcXlYM+2E6nl33/1bGJspGf7WIRVUlHXcseEeYATiS00GDU2PNgk+0WKCA1Q6yfv0r5zT2PXDOwh6AHMzgedd7CISpSOFuZLS6AbjBHUDx9wkJzwXXTM8Uz9esQG6vzsA5byFHRAY4gvJTCtWDCC5CBgJCGIRaWv9r3/o30X/oBPACEWObmU+dWGpKHYk9by6aZ5XBcEBuCyRHBNu4ClaZf4lFiS5WNsjMnl5oSF3WH/ud+jzoOf8zOFB6BGy60HS4J8WufBKJegCSmUGRWmAKhsAxHei+7De+nghT9gxt63aT1BRfPBSPYS+e5+u+kg8HDrpEtrHxra9fGvskB7+J4WgyRobAtAcy17/vfUlLOJQ0wdBnwNXcHXLZu1VUCbb7iiwQjgA1DCwgkY9TNA9bQ0UuU9v04AEjgY8umlOvQmIRwFolkhpCjnp6CEEACS6qcnpYYCcnJ6Is9Lb/oagx0IB3PU/L1nrqeDV/yK+hrraWBggE/ogQEhmsGBIQ94FYBzGWZDmKulLuxyYUhGRiINDQxRd205MzKkWnybSOkJIT4Ror5jKLOBIdN4EKgka5vskPPry/zYBID5qAQHN5LHbqZQd5cneXvqPy6C2DywNJckKxaMGIj4tmmABgdVVVPpqJ8aXn2a9mz2b9LA6AxIRk0LAhIFJC1LltZ8DbW+HWoZQs0PyoP+rvPSmz+v/qa1VHH3FdTbUCeSUV839Xb3UH9fDw30Hl+/wb5eSvx102Bfqp9bP7v0QH8vDfT187fGwaDdNQfp0E1bBWSMhKG3ZtgvqEEIAUx8aFlqvQ8QqVW3bMAIfaaqD7CCaWKW8XxzIbW895oc4HoLbd6FZGmQL4WWRupeg1N3KX7zPcmhokkfAKCwZzvCt40GBsPU/vmHtO+sbxgRVWwxu7FBmwBKX0sACGV+O7SBQwHFzrPrBsW1Lsrs9nYaBCVEI6cqDNgMTMb+gHbQ+w/fdDZVPnozVT94I1U9dB1VP3wtVT98/Yr+4Tky+aV6Tm2POm48VTu7vrZzQ27/0PVU+4frWZI4dE2xp/aLtAFgMRIHbtPOLPClITUaO/bIVKCUXtJJDT5KSzoGDjmW2Ni4LSAI2jq08zTqLtubcAutl0AKRiopLbaUu2RglGsA7G5posO3ns/MvvvMdfTVGQCidbTnDLHPsIhtNkwAIkCFSqGOob2201DzgtLI05+MDR0eYwpY2YDlxxPH0PbZhH5fiePYfegcEvP89Qh6Lm2j/aOtnaf5mmeXJ47jt7Pr2O01323n5rtt7PpBcXtudjnyk6nkOobW1z7cEOWyz4nrqGvp1td+NV9BZc6h5XOkY+KZKu+7juCWsNhAk8l4qxaM+gf7qO6PD7PdBycCfl8ayYilEQscVGJSAkMadbgeQOyM2WnUCWqnfdihW9cmUrtesrgSk7ZDPZ5fACB6ZahjGd9BiHbaHUuZQEO7XPM01DJN22GqMrue3vTonNQ+pyCAuujLDu329jhBcc2zQ3v9kK/9aR07nTAvQzd2G63rhtqXHeq4iWHi+OgnoY2hv7mAEWgDt8loizHhfoAQ/be+82dxUUjjV5gJeCx0nVULRoP9IWr9/CPaV3oi7T5T1LKvzjSShkVcNgFo3AYjBSU7BDi5QIS2QXl2nxrPJNS+NNT+kcYP80nWj84V87SBFPlK3Eqc6CORSZSAje1DbSBO6DKhnbb71DnqGFrGjGIxnM5Z52e307gdan/JQrsu4m49yfPX0J4/4greDJJm3ew62h55btxO223cuNbT0C5HnpsflNZ6WqZpgD3HzxQPbGgFX53zbfbwn6+JJFftVy0YwW7U09VG5beebU7XdXxa7DHAZDO5bqAyelCZ1skkDOrH7jOoXPu1yzSuZXaozKv9aqj5Wlfz7VDjWico1H40dEHNboP+7D7tuF0PgGCnEbdBIlnaztc4wmx+9jgSx9iJP+0P+S4Y8Tpgvkba1Loaal92WuNBodbX0K6jeW6IOnZesjZcD4ejAUqEkI6qHriS+rs7aQD/xCKNZLQU5Wv6+/tpLr9c23zm23//oBjm6/7yOO05Q0RWnA4wEu/5lW/Atjc0GRO5dZT57BB1tL2G2s5Na91U+cnKtC1LPQFjoh0Yx20flEae/nSuXhggVSkwuf0H9e31EwAaqK/ApG01TNUOZW49O23H0/VjlytQaZ6ClaYRes9ugZG2Cwrtthq36/l5AjCa1hB1NZ4qTApOWGN7rmeupaZ/v84qGlxElgJs0o05ZzCaC4AtZJtMwAo3a10VB2j/ztNFrTHqFfRpbLASrx0irukgItByu05Qnt1W66arp3PSenYfGs+USLW+hjqHZGnNt0Odh902VZ7dFnGta+e789e+g+pqmfZlh3afQXHtT8OgOprnjmOnUSeTPrQvrW+n7bgNSJnE0daul9iXLynNzl9He3BrzP5PX6PDu35FPU217IcH3kkHDEtRvmLBKB2w9Q2IxNfX10NlD17P4CMn+jrC7Ro2T4nODm3C03hQaG++xrUf7dtOa51kYdAYbns3rePYod1/UH2tm6xMy+1+0sXRV6r+tL3WcUMtTxXOpQ3603bJ+kZ5ujrJ2tr52of2p2mdg+bbbYLiqeppmd130v7PEP81lMMOV/PivTQ40EewpfJ7nKtJTUsHBktf3kv9vX0EUGr54E3aU7yRPt/0Nb5Rg/gatInuZttpN+62z6YcbfWHdnZfblzrqUShoeYnC7WehloPac2z4yjXtJYna+Pm2+3stm48WT3tz56Dm6dldpgqbrcPirtzSTbXoLa610FlqfJ0r5PVyaQ8XR3tWy9tYJrYv+NUav/yI4J6JlJRf859C+ciWa1ayQhgCCDC4uOTHAev28o3S/hkB674dVMRuj9saKpyt366utqf1rPTQX1pHtu6zjqJyn5/FdW+dD/VP3MfVT73e6p97i6qefaeZf2rfe5ems9vqZ+v8vnfUuVz91Dt07/ntS+761LaW7KBfdXA6LpHGioI6N66Bn/P5mRsekhrHbb/We4jXGYdmHbfyeKYhzc2t1XfurWEuQ909bC9SG2pmZg5FrvOKgajQRoY6GOXfoBS3cuP8eshACMY/ZSI5hrqxmv7oLSbp3XdEPXcujLP9bT3gh9S51efUt9AL1804HTr6+ub06XD0kurmV+WpGIEPEeq8oUv66OW//6Dvjr7NLNPwRcguo8IXfBxAceum4we3DqaRn3E7dDtgy9q+FtZG6npH69QP95Y6Jd3zxZ//TJ7y2MNCHsxfkvBCAAhZdzu+lrad8XPSK72YTfKHpCUADJta9e34257lLnlKr0duOhH1L7vC+rtG6DewV5+L20p1vJ4GxOMCxuLAFuIWj75F+0/+9vmujz4pkv3Vfczk1DbaJisDcptGnHrabnm45UVXOkfumkb9bS2+OAdwiEt6trCg3ZmoJNs3EUDo/9v78zb4ziO+8+3ExMAKcqOxceJbD+xf6FjJzhJSuRPl01TonVFjBhJsSxbtu7IkmxJsY5EFJXYsk1ZUmTK1kHcixvEfR97zF4A6fdQeb5VXbO9gxnsLoDFLoD5Y57u6enumenu+nRVdc/udgDPvkc2m6Xsaob0g0eAafL1Z6jnpkNG1c7NLN5O1oHhDe18es0vTa8FhcWWgXY0eNcRivV8xu+xuira0erqtV2vGVUL/PCxLI6lT9+j/u/+LUVaat2tE+hfb1/iPChNr3mv2/VoHnvsaH695hdq/ty1A+wnnfv1rxg+7MNZvUoYQwBtEBAqmb5rYQQwZbNpEiitsEYRH+ylwTuP8E+9su8I/qNNHvyZiU8dOji8oQ4sb7r/+QF+3nhPK/u/4JAXECmUijd7qkW4d8xzXBNTeGXlKq2sXqPoZx/yDmaYX6q1os+8/ZmDgVzzXtd+1nx6rqGdX/PYaX731LIacrmmOhp+8Dglp8cJK8oM1atXCZ9JFdMHlYDSLoZRhlayf2HhBZTYXFvJ0OQvHuXBVAyEgkBTVNkNmIE6mBBiwHc21zCMlgGjlavi/2LIZgua1sUMuDBPMMwxXkSDgI/uKsOo9/Yb2encZbQfGxY2MDTd7s+NxLUeu267Hr90LRM5fh3NvfUCryjDd7qahVYk73t1pTo1610MI1nWl064xiYbNIvlwS4aKFI78oORX1oxcCo1T1/TATYJ8A+5y72XeSCxtre6PT4+3Gszhw78rQrxLFtVV3H1QGBzGuji53+g/u/eSJGmGtlAaxzIgIMCwAaFHdfrfvCw8xWKe+vxq0/zDD1wlBITQ5S5puC55i7mwGVRXBtsb759MGM2M+iquyxU7BTPCpkVcf5eTWdp/Jf/tu5KBAYF4OEHHr+0UkFTTH7sEscMPHD67wlmWjYrvosswyizi/tsLQQhOKWOs60RNvmBNdS1/NkH1G8c2Dw2fDRfBQHGjx1fDzJ+QNHy65ULuqb3nXrrebqaMT6ilVU2NXNwzUF2a9ppa6DFMGK/Chy+FThKHWTF5lfIivCu0EomS5lrq7SSTVJ8aIgGv/8N6sZHs00HJcTekaaDDAB0dDHAKGcefQb4uJZ7Lhth3FsQKravy5Pvah4Alz59n2Cmcb94xodOUAg1rpDR0A8eek1DzeM913Q7hBmPfDjgVOdNjmav0vD9zZSanuFfxly5Ju8BnxHAA18QdmFXE4T0WSoOo3ICEADS+lcyq8aZnaFsxqHxXz3BnYhOhQaCEHACYLBrtVjQaJli8yOfDlgN7bKahoGH9BBGazWl8sDHe5+1MMJPcHC/eGBk95/GFRzFgKWYPFqfW7+7V66Wx1Mn/hwA4/j4AcLH4X+BBn01S1ljkimMqtVEA5B2NYxEO8pQOpthMwdAymQylL66QsmpMeo7c4QB1NNYR91NB6i7CWEdRUyo534hw6uIfN6yKKdlNQ6TDIeeo4wNo2gvHNheYQnPy9smm4ORQmOjocJHx4FfPTxpNgmM8L0l8gydO0qZ5UXKrK5QGq4JOK3xWVQmK3BaLY92rdrNZsJdDSP4ibCsCSghDr8La0hpgdPcb9+k7qMHXQB1okMBmOZaF0xemBRz7oWNnqOsDZz16tLngM9oKfK5q+GpprfZsLyCvBtAWRhGqsX6gWI70lgTapa/S2Iz7cQNtPDn93iDLPrXBRFWYFflqOZ+37UwYuhAVc2maTUj+41EQxKHPcCUWpyj4Udu4SV0/ojWwAJL6uuBwu9asZDxK+uXVm4YbRZmmy1fzUIhz1YYRjZwNmKu2+U3EgeA1MUAv9Hok/fRSioh/x4DH5HRiGwQAVDV2vb7YLb4HZsdbJUur/4iDjMpXtpHJ+C5REvKsrm2+MlFipy4gbobZcm2uxEdvDnNyA8udpqtKSHdD2RqKpZLM6p0/1T6/oUFci2M8hzYxtxG39kmtval9rF77rMxdiMAyiuDsQMfJxZibruRYv1t7kIH2pff8eoqa0WIY5sL9ky5izpVZvoHwsgPUNuZthWDFc+r9SiA8L9jmgabOhVfpvGfP0Iw0ToxsLCi1lS8ZqSDbT3Y2NcUPt4073kIo9zig/bX9oZmwcOsMC9+8gdeTYs0FTdRKYzcfjWLI3kw8QAqz+yzYKdjzA7hI4JWhLC9pY5m3niOsqkEL+EraNdqRFd57Ov1agurFkZbBT6GTzpf+0un07Ri0mC6xa70Ue8PjrBp1t5Us8aBrYPAHVgbcFyvV9av/hBGlYURaxDWVhc/GKHf1utX+xr3cYvxR8In6XMAVJqO/tcxYNejcbgSMHn2NtfQ0L8cI2d+hrUeAAbQVstAAc7p7obZ8jixNwu3XQ+jIKilsyl2ZiMEkGbfO09dN19vnNeiJeH3hDAg0PGAVBevuuG88CDsaixuBkU+O6/GeWBi38iZIxTr7xKVG3ulVrJsVusgC8PyQEs06TRlMikWcvyESM9tX+FVTmjPCgWEhcBh57XjCjN7MtI0rhc/BmhNfLxi1lRHHU01/LvuGCs9Jw/T4ucf8FjO4B+HLYBWQ7wUQO1ZGAmkBEj4di21tEyjz97P/qKOpjoGj84+GBgw4yTMLc3bA6vUuELHWw7puWsHqPfUN2n+4/d55ovPTpEzO0HJmQlyZqYKHonpScKheb3nSNc0O5/mT85Ou2W9abhW6NAyGtr57TRv3JtPz5HPjms5vxD57HQt500PqjM1O8n3SizMUHJhluY+vEA9t97IfaMThbfvtvIcS/pSH8yxWoIvE35NNvMaZSzCTBt/5THeyKv76DSsBhCV+gx7FkbpzArPepj5YLah4aCB9N31HdaOAKJIo8yArAk1iIa0lQPOW1cOQgI8DLbe41+iwQeO09BPvk/Dj52moR+eouFH76DhH32v4DH06HcJh+b1xoOu2+ka1xB1IT78o0KHPJ+W84bDP7yd+MC7VOXxPbryo9N05bHTNPLYnTTwQAtFjl3HY6OnSK3X27+lnMtPJB9kTQwg4vGISbLFaGXNtTR49iglJscps5L0aET5/q5SoVCp/PsgiH5HkHmze9JTBH8Sq+PpFbMxMktz773NHR5pFFMNS6bYEAkw8MbI5lrqKNKJWcrgW5O3oY5NQ/YhNNawai558FziLwAkg4419VnqPq4FlSs13XufYst7y1XjOd6FzSTLv4O07gbVWjYX2iaZ9/0FPvKb7T2NByhigOTmO3EDLX36IY9faEOQS5hEMNWwnaVSQNnMfQNh5Aeo7UwrN/TEsb1C6XRWYLxyjdLpJKUSURp5/hwLKwCElTUMQNjpGCC29uIODEvQ1xtgdn7kW68uWd0DhMT3JKaj+qFyu8XtOouJ6z01DCqz3vX1rgXVt9PS4R/Utsc4kH49wH2mJns530lXddksa6qlDrgJmuErOsim2uTrTxnfYZqyK3+Rby+xhSW7M7UiQKxqYVR28CUzLohgqmVTacpmUpRKZykxNUYD99TzYOSZEE7KxgMGTAcIYNjsQFQYBQk239faCY5z3nKgs/QmnyHovpt9L7/yfvfSNA295fh9W4I1OG/+rT7HxKMrWwCTOql5ad/ql628r7YFQtyTl+2b9jN8oJUDTPh0qf9fj5OzMGe0n1XKpBPscoDvE5Nrhl0Q+SvI3sl9MxpMucruXRilk5RJJw2QciE6DSBcbL1EPTcfFg2pURzarJ24mpKYa5g9ITg47Lim2SGuax477pcHg1/3PmFwuvtbOB4spFqXClJQyE5YBVuBEBDMA2ExwligzkJCjPeARqLv4w0Lld/sdfleEffHnjNoJbIcL+ebn4xs8Pg9K2tErhkuGhnGDJzo0cEe/hXTTEpWVlNZgCdFGUyoWE3LOL4bmb1AquS5H9D2LIxSmTShM7GsL1qYmGtIx3kqk6SJd16m9hZoQrIJEiEGEaDkFQ6/cy9w9FxDLYNzxNekQzVvFGEAmPS+7UXcX+v0rbfJXrHbvGDpe/gJValp0BjFJMqFpdZh51eht9OKicsufIEAYKQQkncVf2JQPcgTdK2UdFc74+0DtdR105do7sN3SBZfdPPuqvg+3S8pdGFmfc2okiAKuveehVEhM1BhNfbcWWpnWGBgwqksDu0OnrXhR5KBKsBSU058PSqkxYYKEIWSHXrr0Guabp8j3tm4n/CzEmpS4tmRF+YmX3dn3RxYtY5iQtSl+fyewb6u+eywFKEMyqvQsoGjcWiW/M5mRz2WyhXmQfVputah54VCza/hevn1mQEabiMsjPBKbZAfUH7NAfknXntS/ESeTbxBwr3T0kMYBa0mptKUTKfImZ6koYdvNStYNbzfAyDifR+8soZZUAYShA0DMUgQVWj9QhVULeuXx5tml7GvcbrRpDD4xfkupkbn8S9S162HqRvf4524gSInD2/bofcs9317/v9h6j55mDqPHcpzOKMtoPGgrdYDxnZcwzOwKWjMbh47zbXU2SL+IoAUZiqnN9bS0BN3U2p5kf2axfiEdhqI8Lz7UqkUVeIopJlU/rqYbXBqL0baqPeeemOiYTAf4NWNSLP8SiRmLQwaDDCE8O8gLOZQiHjzanpQiPx6v/XKYl8K4ClAqqGRpx+g+UvvsroPld97zH5wgbbjmPngAm3lMfvhO4QDdSJc+OO7NPjj02JeQchZg4UWK9s0gtpV21Svaztrun2uaXao5ezQW4avQWODyW+t2DKAGELQaNU1UEvD526i2JV+yvJ+orRrpu1E4Kz3zBWDUSUAaN+zMOyS7DeCUxAm2+JnH1H37V/jwc2mD7Qi42DlzwMaZKkewq8D0W8Q2mlBcS1vh8jrPfS61qPXkY6BDicoD3ijscHXNPnfr/D7FH5///1nO6ZcNkOjr/5UtCCGkekfY65q2wWF2qa4bsf1XNO8odan6Zrfmw7wyCJFHbVy34qG3QHNDSa2+XA7cubbtNzVyitkqZRDqXTcXQXeTF+sB4VKXduzMLLB5BeHicadn8pQKpVhk2364lvUhpkVMxo2RTbUEAZPK8KmOmpvhINbfDIYjDi3Q8S9g1TT7HQduJsJ+fnM8jQGPkxJPOPUG0/zfqrNDOSdUDaTTNGY+TUG/lmYJvSF7hkTrdILCru97f7QPtLreq55vKHWq/m8525+fHFvfJDdDeJ7bDcgwtjpPXGY5j55j5wMIGQ09fRVswq8sycLP+CFMAowU9PYh5QEkDLc+QBWMpWh8fMvsGMUgg3wAEhqpkHoGUpmpkM8+MjBSgfteiEGp33YeRV6SHPjjQfcOOApMKqlkafvJyeeMCuIO3tArwfF+Nwsf7YCDUN9QLIKqQsO+ZqmgkbBoSHa1I5ru2uaX4g0TfeW13T0ifSLaF6SDzutzWR27Hqauvi6TBwYh5kkZVNJSqdWeQl/vXffqddCGAXASLQlh9KpODnpFdaSAKNkMkljv3yM2ow21InPNhprCQMd4OGVkQYM9GAQIf9614u5xve06vGeY3BjsANOrMFBc2uqo/776ik+PbbtfsLtFpDocIQid36DzR1ZDTVOa+6rfMAoPLyhgsSbrud63Q4R9x6aH6Few74laNWY0Fg7wq82cn/WUFfzdTR54UVesseYwz4iTIzY0AgoqZa03W1a7vuFMCoEI+w5SqUok3RYS0o5SUomHBp54WFqg7OxqYba8BV1Yw21wkwz35QpUNZCQiDlBVJQPq3HL7TLeOMY+JzWJIOdTTX4tY5/mZZ6OrcdRn6mcDnT5j/5X2NS57YuwDeD/oK2pFDQ0AaGxnGt2Ljm1fq853Y9kseYzmYRBJ97IE/X0YM0+V/Ps+YKfyX7LAGkjG7ShTaLTbq7T6vdh5l+I0c5B9JOqNtZnKORf3+INRw4HNuMH6kNGyPZdBMYACLQllhLMeYbwGDDwwaNN917jrxI0zIQLD3XkPPAjDSbNFVrUzNy6t3/YBhhtpXBnmKfGBz10vYAb2VWWUu9L7QF8e+lKJlMyISRStH4m8+xXw9tIu1dw+fSbtAYc22obRkU+uX1ptnniOOeAj35rATbCtAP0IJwjTdStsi1TvOjap0th2js9ScplYCTevfBptA7bRhGGwHYVpYpddBuff4MxeYnaPTZcwIWzKIwz6B2W/ABnNjXw/6cWoKj0p49g+M5Dcoe6AwaI0ia7g1ZqNj3UOeaaLgPmysNNTT0o+9TMrbkCm4y7QiUkglKJtMEf9nWt9fWwo21g5TDz4pxJc+LhQaHYrOj1PvgMTMBoA3EdBIzKGc+a7sJNHIThKYXChVemk/PJZSxgP5mGDbV8YSlPj2kIR+Ph3rsL6qjkf94jBLLC2KObXIyKCT41Xh9x8JoK8G2kbp0pQ0/1jXyvGhIGFyAD2tHBgYyUAECWVlDHh2QCiKGlVl50zQN/a5J+ZxQyeDP15h4sLMTez/7JVQzg/+o+8RhWox8xkv8DpyiDJ8M+8egHbGfYpPCUHaYJVfMAoNADu+hGtL8ny5Sx9FDDGLWRgy8ocEqOBCud2ibBoVaVvrTT9Oq5XEg95e+Z22ooVa0aOwjMv5GmGijrz1BzsI8Q1U0vK2Fd9n7wzNeNgK7EEYbNFMVYImkQzDZhn/+qECm4QssBBB+DH6BiszODITG/WzGeYGk8EFoXwuGkeTzu446+P6sEUAQjJnYUOduSRh7/mE2zwFVEeIMLyGnsZfFM7Cq8VzNM4Gp/NoC+/NiSzT8+BnWhgAMWe0UrQRtIlpKPjxssATBp5h01KP5oI3hftIXsq0CcVlM0HzQlOto7I1n2A+Jd+IVXNdc3tlAKnXchDDaIIxSCYdNGkAJAoHl8pGXHmU/DWZD2ciWP/gAjram/XxNIYIQgxSHN817bufTuJbzO8fAh5YmAlLL5iMEBmmdNx+mxY7PCTBNpmLEgpx2yHFSErfapdRBtR35AU1oEJiBU8a8dNIpWrj0e+o4dj21w3HPMBLBV1DIhJCfpgBBHu+h1zTU63Z7e+Pot1bzbRz7Ek1c8gGM4j9qazlAE2/93KyUpXkcCZCq30wuRx+HMLKETrWdYkLshGXTAP4KJ0mOI0I99saz1N1u/k0AABXISURBVHn0i0a7EZMMgxMrJeqzceHg2Tuk8MGg1XixoS0QdhkRBoEdIIRNdXy9qZYGf3gHJZcWKIHv8PQ9YO5ssE3KWc47+AEeON9xT17pTK5QbGacBs4ec2Gvwg8/nvpopG2lPew288bRRt40KZu/3ysoH6AHrUfLcJ9jxawB5Wup65av0PSvXyPRRDF2BEDweYkLYG9pRejfEEYbFbwENqKlKeVgRkswmFLJFYbS5G9fp+7vft0MvP28iiKDUP5hRAcwQ8EHSDqAg65rui0smpYLReBkJq9hkxEwRBnVmLDCM/b2LyiVjLGpxiYPaxzVCSQbdhi8yURKtNJkmpLxGI288rgr/Goioz0U/tgTxlphg8Be20/bTM8RSrnC0Aoqw8v05tci1X/X1rCfzeTe00do/qPfsDms5iaby9jHltLNtnsQRpjRN3vYg2SvxPkTETYPkuQk1VSAEAuYZi/9jvBdEWsi+JLf+BAQwlRTAdhsqMJg16PChHtDEKAdAUBIZxMBnxzoDH3H12mh7U+s3UHDE7hWP4wwzlQzRXzmj7+lzhN/TbIJFX8tJWapQEnOsXKV005z2qe3DbX97NAvj/e63QfYc4aJQPOgvbHVou/sUZq7/BGb+AAqZM/VhJw0JVKiaXs1wb1wvm+zIKpU+Z0AvaXOT6n33AkXPAokDFrWTsyuW3F0mqVlOJ8xg/rs5LUHe6HryKuCoHE9RyhwqqPWxv3Uf3c9LY30G9+Lgghan8AVmlPKyVIcznojLOVv/xzgAUiBD7YeAEISMviTaVrq/Iwip46w9iemaA4C2k7adva5HfdrI02zy9px8T/lt7Omab62ekBPwDf441O00N9RlWawtz8rAb8dC6NKQVDv6+087zlWRSC48YkxuvLMA2weYGbEwBTnNuLQUMwKD38gKcv1uhysA9ovhCDZ6XquAhYUumXgxDarbRDg/rMttDw+Lv4v9hsZwcenMAwlAVPajSu0yhPaWg80B/iFnARMmBXWPgEitPlSfzf1nvmOmFXNgDhMsZzm6dcObhv4mMjea9qua9L5Z1nQXzKxcL+iPtPHohEfkBVV7CF68VGKz82Tk8YnRQrT8rSddyzulPMQRltgpiqgvCFWqnhWx0rbWz+nzpu+KNoKfzKi+4Jq6bLZm8Takln98g7+oHNb2Ow8KkT29bVxzOqAooCp72wLLQz35sxO/hZPtBJe/mf/GATIpG3U31ZkOceJUzoB00Xup4Dn1TMnSwvdn1PvXd+iVqN5AES8dG9BRt8Z7+iNa3vZ6ZrPDr1x+xw/IyOTirRjTssV07Djlhtp4rdvypK9k2TtEu+xUwCxnc8ZwqhMMEo6UfYHJBz4BeK8j2T60nsUuafeCL9CoIbg2MQAx0BmM8NsjESafajQIFSB0LjfuV1W45of94Hw4udPsAwtvqQa6rn7H/m3m3SF0EnEWMNLJKMiQAkx1bZlkKYysvXA0iQAfAjzzEe/oZ7v/R1rmt38Uy7wy5lPLjwmqr67tpF9vl5c28q3HO+yl9VS9Bu+tpe6xB+HiaXv7DFabPtETFvjS4TGx+OhSCBvSztXybOEMCoTjBKJJCWScVkcgNkDIXZStDQYoYGn7qWO49cxAAADrLwoFDrqYWrkQ8gWGAiIComGej3omjef5oe/SPwZEsLpyitPt32VRt9+iaL4O+1Ehp8dzw+wYk8S3s2rBZbjHP9hl0iISZNwlvn+0ZkxGn3taeo8eQN1sZkpy+dtDV9wd7mLdpJvxuo7B7WFXrdDO68dRx6BufxaA0DOH0kbE63j5GG68sLDtDw2yCBKOwJ0tBGvmm2TZrnTQBbCqEwwYuGFn8NxWKB0NoRwOYvz/IuLXXd+i8GDgY2ZFAfgAGGyhaJQHILiFRb73D8un4mgbkAJAMRzqJaGvTmDP/sBzbd9LNqJExcwYDmdtb3Nr8IWBFg8If6qmKwwzfz5fRr44R2yUmaAjWdGm8kHw2Juqtmm7Wa/v6YhRLp9ze9c89v5pKy5r9V26D9ovjPvv02JWJw1STUtFQy88rpNfje9504J90E4ijkKDpwyCfWOvi9rFfI1ubyHmGw82yccWrr8Zxp+7DS1mt3C+I0kBhJ/sxSsHakgqaAUE9qCxoJlTEEILrQh/Boi+1wARN5BXkfQNiKn/x+NvPYMLY0MC1gZsLIkXe6+4U9tnDgtDHbTlZd/Sh23fZWXxwFMtBO2LOgvEyBNwIQd7mI+abt4QaLpxYRBZe22YoAfvZ4Gn/pnmu/poDhrxYB1nEEu7+FQxslQMp7YEMx3ClA285xFw6gYYG1lnnIP9LLXn4yKRsHmmWgR8MPw5xeJlCyTOyk2hcYvvERdd3wtp52sY6YVI0BF5cGeoyZZzYNQw0xkzYi1DAEh71EyWlv//Udp/M1/p8WBTmI/Upknn0TMocXIZRp99QmK3NfA2hCeD78XJXt4ZPsDls4VtFillHfXMBjoNmS0vLabfe7Np3nc1bPG/RT5/rfYSZ1aXjDmuCMbMo2vUDXJRCLG/Q9IlX38bWH/bAYwpZStWhhtJdg2Ule5BwvMOOwgFge3Q3Odn9Pgz87wrI5ZV3w5OWFCGrQYNeWgvSAN5xAYNVcgLBLPlc0J0No0FjZTXgVPQ70X6pPNg3XUc9e3WQOY/uhdSkxPUiKedgVQQJsz38RPljtHm2qa+tPYDwUHKnxS0Cgmx2ny/fM09OTdFLnziPwGEHxb/K6yebSU9wt6d34no4lyfe5KnHxVL9sr7C0C0nYAN3xEaPuO49fT0LNnaWEgwnDhfU8Mge3RHMs9Rre7/hBGRZqpGwHaemXwYS3PlFit4niC4ouLNPWHCxS5v4nB01Ev2ouaIB3N+NcI2aiowEAIYVLtxguxIGHUdLe8pY0hjYXNaBqoG+cwiQAlPj/xZYrc20gDTz5A0+++TvO9lyk2N01OdHGN5oTZUQe2xuFTcZaXKTYzRfNdn7APbeiJ+yhy5h8J/+2m78H7ePhXKwEDwEHNsbVg1XcqLpTfd5JleWhS0tbu4gHaFe9dn9vFzru6eS/Rfur71+M0/fHvKB63VhkZRNB6dpbmo31T6TCEUYVgFE+m2FcH/wLUeIApFnfY8bk8Pkoj//ksddwuS9dwMEMwsHTdWg/w1PEX+GxaYbc2dvniuyv1OUGwjDMcoV+chc/k4XqsMrim33HJ5xO6MVM29TEIjV8Lpl7HsUP8LR7+W67voVto6Kl76cqrT9LkhZcI3+lN/P4/afx3b9LEu6/RxNsv0vArT3Ce3gdPUt8P/okit93IPxErK2Ly7HhfPQQU2IIg4HU/+fBsfbAhJED1N9cUwPwe0CSNnwzlpZxoPoA8IMztj98fwsevp47Q1K9fpej0BGtzcSfBkwn2k2HyERM21Iw2ArYQRhWCEeADCLF5EpclbFkyj1PcibETdHmgh4aeeZA6bvtbav0naAK1LBiAx2Xem6TQEcc3NChcY1+PD4xsANlxhRHS9ICAKgRxnQ9AEfUCfNDa+B65fKyhsXNZwIi/dWpvuY7aj14vR8t1BjqiyfHzNu6ny/XybigPfxBrJMYJDU1MzEUBA4Cx0dXGfEAZjRK7tXEvs4igdePd8Dy4N5vCd3yVhl55jKJYrjeaj5qabG5jHOHnWJJphtNGhHGvlwlhVCEYAUTxeJxnUsyomGGh8mNmFfPOhNFFmuv4M/tpOm79G3E0s+YCE8KYF421dNmsLgEmDBEDIxs6dpyFzWhNEH7ARq/jGuprrdcNfAIehRaHWL2yyuDTEoCitfELnC7PYPYvGZhJfhFyXEd+NkHh96qvY+AiD35DXOrxlDcAlPuLRoP8QQfex3toXn1ffmdoQLy/C/u9tIwAGAsLw88/Qku97TxJYGleHdKAUhJgimMvFFbJjN+LNzbm+8r2OmiKef8QRhWCkfiLkmyaAUoCoKSYbtgkF0/yQEc6tKd4bJlmWj+hgSfupa5b/oZn7c8BA5gR9X/FK2MQNGhQbN5YoEC6DRoVSDfNAyMWYJiERjtQjYfLGZNQVrSMSWXqRzmGEDQcAwlASu+ncbkmMGO/mNHyuLwLrtx1gAL1QhvU+t1n97ybpiPUuN7fDrUurs+Clgvg279Gg8+do9nuNjG94glZsocphrgDnx/6S/oMPrA4zGw21ZZNfxa3bUb6XmBWjNDu1jz7IAjFHtpo2xHmBLS0Dt2OZ9u6e8gvREIb4j4wO5vZuctObVxPitbEgBKfxHzXZRp+7hx1fu8b1F4v2gP+LgmzOsAhAi4AUoG0hVPTIJyIAw4KDxVYAEDziQaW02igzYhWk/O3XDZaGswcrsNjxkHoxUdTKyYenO6WpsPPzmUFQqwxGb8RytrPiHfW59R30HN9Zj3X60jPO3hLQB23FbQy1urqa6j79Ldo6KVHaKG/ywWKbmXAbyZBG2ITO57mHfaxZNRotSJHWzc2tnfcVwPgSoJRsdAqR76d2slBz82OTzbJxD+EfGqi8aY544PQ8k48zTMz/Ek6Gy8ORWj41Z9R3z3foVb8bhG0EQhwU76w2oLpjUNAVdDZOa6ahtFu9BqDwwAHcIDwqgOYBZm1KNFe9Ds32/yz78O+IheAeNb9OTAZZz2gqr4p1I8jv1yweRYIoDwgSXmG8NFD1HtfI11581mKjg7wBCDtbj59ictqYMw4q3N9IpNFTkOKsSmH7Q6aJwz9oeoHvx0Do3IArpg6q3cwJXmPD54vNjFC4+++QQM/vpN3KbP/hc0jY9o0YHVMNBYIOAug0WAUEvARsZ+IzStZvRNNQhzUXMbSpAAaAYRlAtYDbDDVclqIH/xQ72XLfGOAus9jtDRoLvWiueDeuWczDm5bq2LHuoGagRw/hws8Ax7kczXH/dR1+puE7QSTvz/PWwx4z5fRSKu33/2Fezc8bwijEszUYuC1VXkKDi5n2ZgH+J0fzMgJ3hYwe/kSDb/6OPU9eBO1H/sim3HQmiDQomEYKJlv0hQygJUCC2kaB0wQV9NP86v2wVqN2eek2guW6G0ICdRyviO5ps5xgR1rQgoxs5yuGphuvtR6ELJZx8DK+YawKsdgM5+G4Nnw3OJHA9j2U/uJG6j/4Vtp5FdP8kZTtDOvXhqNEzM2f5RbMV/i7oVNoTEdwqhKYVQIarGEOEyRD50ci8Hv5IgTNR6lhZFhmrh4nkZe/gn14Ncmb/oSAwIaiQo5QjWlRJMQjcXVWozPxgUPm4BqMmmY789R0NgwWi8uYFnrs9LnQqgQUtAAKogDPoCjApLrgrMb19nMFO2t/eSXqe+R2/jTkokP/ocWJ8bEFOP9XbKKiTaEfw5HIaEJr5cHmCGMdiiMAB4AKZaIciggAqCifOAaHOGA1MJQD01dfJs3IvY8dBt1nfwK2Q5vaDQq2AwBa+WKBd1AiQUf2ocFAPiZFAgaqkml534h38cyvzQPgGLDywWR+sPUjDQ/zYu8ovHJ3iv4q/Bu3bd+lfofOUWjrz1FU//7Di2NXvGABv4g2T7B2pDHRxcCpzzAWa9dQxjtWBgBOtixLbu2BUL2ymjUXYJWLSsaX6SFK3009ceLNHr+JRp4+ix1/+Db1HH8S66GBEhAuG2fCzQowEL8SmIiIS7QEF+NwkShpudBIZc1+6NUU8uZeTlti+9t4MgmoQEha0ENosl9jt3gN/01dd/TQAPPPkhj77xCk3+6SEujQxSLiTkLMCewuZRhre0kQOe2iy0zvBnqvGy//cK4nqDuhWshjHYojFjrYVNNNCAFDkIx4QRWqiE5UYc1A74eS3CeKL4L622j6UsXafydV2jo2Qep+9566jx5mNqaD/JnJ1hFUxAhVB8Rm3tmVzhrM2ZVTrWaIAhpup2PfT0GbnovQBF5OL9CSzWylgOEHzDDN3zYCzTxP6/R1Mfv0XxfJ8XnZ3jvFjRChg8gFIP5qu2CdsD7Q6OMmk9wckCPxs02iwqPi70AH+87hjCq8KCzIVJKPBHNFxqFDgQP37jJuQihagOcHpMNe3zd+JqiJi2+NE9LVwZotu1Tmvnjb2j8nV+ysEfgczr1DWq/+cvU3nJIQNV8kE27HJxyK17FaEeuKQeIqRloTL7L+Aat+SC1459hT9xAnae+Sb0P3ULDLzzK4Jm99B7NdnxGi1cGKL68wM57vIPuz9J2BJDwnry7nTUfbZuo8bHB35ZkDZPzwf8GTTNPe1ItaveHXjiU8xx95K1/H3cYOq3EQzs8DCszSCFEmNnFPBMh46//4+pDkk9N0D8QNDZX8PkJlq6Rhx3eolXxjmIPlFU4o4sLtDg6QrM97TTb+hFNffAOjZz/Bf+sas9PzlDPuZP864Ydt39dYNV8aI0PSbWh/LCW2psPUceJG6jj1N+xiRU5dwv1P343jbz4CI1eeJmmP7zA/zE219tBS2OjFFtadDUc/qgYK2Ge59ZzvB/g5OdL4zwxfI4jZhuPfeNjU5hrPWG4PeMbYNowjEqF11bnDwfJ9gwStPPy0gItzk7yfqalgU6aunyJJi++SSPnX6TBlx/nj3n7H7+L+h6+lXrOHuOfFonc/R3qOvMP1Hn6CGs20G4QRxqu9dzXTL3/cjP1PXIHDfz0Hhp47iEaeuUJunL+FzR58b9oqvVj/iG35YkrtDg7RcvLAqKw37ev37e7rXcsjLYabqXWt90dtf33E+2JHb/sczHbBlQbccx2gqhqIHExD2Ei8hYDERoubzQQ0VQkHZoXZkPVTtg0ii2zBodVrrhrhpr7uo56lMs3Ube/bXYvECrZliGMSjRPS4VWufKXe9CwaacOcgVQnkkk/ih9Ds0v8MqBSa9ryH4rC1aajlDgZBzNgJ25vwssNrtCENhttpviIYx2KIzKBTmtlzWTqPgSo9Gcj0kHv62dKIgUHrYGpPm9YVAepLNfy6yASTn1jSmI8kHorTs813baWWEIoxBGvosXWOLGoXDKhTDPxERDmphTYkoBArl8fmXXT2PoLUfdOuU+urs8J1iqQYXQybXJbmiLEEYhjHwBwqtKeW0j/hysykXjciDOq3Tw75hjIzBS8GnIdcSX+Dec8DtOm6l7I8/jV2Y3CHu1v0MIozyBW3/m9hukuzUNAMC7KSBUS0K4HIsS9vXgsLWk0tpiWWCzBmJSp94XdfL9LC1Nn620++2svq12cJTj+UIYhTDy1Yy8Aq/aiQxCMaWCYIA8Qdc0XeGm9Wq6G/LeqBjFjNmG9ByUcmaimz/sx4JtXkpblQM2heoMYRQO4i0dxKUM+DDvztLWyt1f++A09DvKfeOw/nAghmMgHAP2GAiEkR+gyplmP1QYDwdpOAb23hioGhiVE3TF1B0O/r03+MM+r64+D2EUYKYWA7CtyhMKRXUJRdgflemPEEZVAKOtglop9YQCVxmBC9s9uN1DGO1RGJUCrnLkDYUyWCj3atvsWRihw8shZGGd/quz1dYue1Xgq/m9/w+Rw3QMv/hUDQAAAABJRU5ErkJggg==;" vertex="1" parent="1">
          <mxGeometry x="500" y="-410" width="61" height="52.2" as="geometry" />
        </mxCell>
        <mxCell id="8M1PxrnFKsvRRrVdLFiL-23" value="" style="image;html=1;labelBackgroundColor=#ffffff;image=img/lib/clip_art/computers/Database_128x128.png" vertex="1" parent="1">
          <mxGeometry x="120" y="-510" width="80" height="80" as="geometry" />
        </mxCell>
        <mxCell id="8M1PxrnFKsvRRrVdLFiL-24" value="" style="endArrow=none;html=1;entryX=0;entryY=0.5;entryDx=0;entryDy=0;startArrow=classic;startFill=1;endFill=0;exitX=1;exitY=0.5;exitDx=0;exitDy=0;" edge="1" parent="1" source="8M1PxrnFKsvRRrVdLFiL-23" target="8M1PxrnFKsvRRrVdLFiL-22">
          <mxGeometry width="50" height="50" relative="1" as="geometry">
            <mxPoint x="280" y="-736.4" as="sourcePoint" />
            <mxPoint x="480" y="-865" as="targetPoint" />
          </mxGeometry>
        </mxCell>
        <mxCell id="8M1PxrnFKsvRRrVdLFiL-26" value="" style="image;html=1;labelBackgroundColor=#ffffff;image=img/lib/clip_art/computers/Database_128x128.png" vertex="1" parent="1">
          <mxGeometry x="100" y="-440" width="80" height="80" as="geometry" />
        </mxCell>
        <mxCell id="8M1PxrnFKsvRRrVdLFiL-27" value="" style="endArrow=none;html=1;entryX=0;entryY=0.5;entryDx=0;entryDy=0;startArrow=classic;startFill=1;endFill=0;" edge="1" parent="1" source="8M1PxrnFKsvRRrVdLFiL-26" target="8M1PxrnFKsvRRrVdLFiL-22">
          <mxGeometry width="50" height="50" relative="1" as="geometry">
            <mxPoint x="290" y="-726.4" as="sourcePoint" />
            <mxPoint x="510" y="-373.9000000000001" as="targetPoint" />
          </mxGeometry>
        </mxCell>
        <mxCell id="8M1PxrnFKsvRRrVdLFiL-28" value="" style="image;html=1;labelBackgroundColor=#ffffff;image=img/lib/clip_art/computers/Database_128x128.png" vertex="1" parent="1">
          <mxGeometry x="90" y="-370" width="80" height="80" as="geometry" />
        </mxCell>
        <mxCell id="8M1PxrnFKsvRRrVdLFiL-29" value="" style="endArrow=none;html=1;entryX=0;entryY=0.5;entryDx=0;entryDy=0;startArrow=classic;startFill=1;endFill=0;exitX=1;exitY=0.5;exitDx=0;exitDy=0;" edge="1" parent="1" source="8M1PxrnFKsvRRrVdLFiL-28" target="8M1PxrnFKsvRRrVdLFiL-22">
          <mxGeometry width="50" height="50" relative="1" as="geometry">
            <mxPoint x="300" y="-716.4" as="sourcePoint" />
            <mxPoint x="520" y="-363.9000000000001" as="targetPoint" />
          </mxGeometry>
        </mxCell>
        <mxCell id="8M1PxrnFKsvRRrVdLFiL-30" value="" style="image;html=1;labelBackgroundColor=#ffffff;image=img/lib/clip_art/computers/Database_128x128.png" vertex="1" parent="1">
          <mxGeometry x="100" y="-300" width="80" height="80" as="geometry" />
        </mxCell>
        <mxCell id="8M1PxrnFKsvRRrVdLFiL-31" value="" style="endArrow=none;html=1;startArrow=classic;startFill=1;endFill=0;exitX=1;exitY=0.5;exitDx=0;exitDy=0;entryX=0;entryY=0.5;entryDx=0;entryDy=0;" edge="1" parent="1" source="8M1PxrnFKsvRRrVdLFiL-30" target="8M1PxrnFKsvRRrVdLFiL-22">
          <mxGeometry width="50" height="50" relative="1" as="geometry">
            <mxPoint x="300" y="-584.1999999999999" as="sourcePoint" />
            <mxPoint x="490" y="-370" as="targetPoint" />
          </mxGeometry>
        </mxCell>
        <mxCell id="8M1PxrnFKsvRRrVdLFiL-35" value="" style="shape=image;verticalLabelPosition=bottom;labelBackgroundColor=#ffffff;verticalAlign=top;aspect=fixed;imageAspect=0;image=data:image/png,iVBORw0KGgoAAAANSUhEUgAAAOEAAADhCAMAAAAJbSJIAAABC1BMVEX///9YqlBJnUqOcU5ELSKIaUKMb0uKbEY2GABAJxsxDwA1FgCHZz80FABDKyBBKR09IxUvCgAsAAA4HApbqFg7IBHOycf39fO7q5jV0c/z8OygiGySdlO/ubYnAAAjAADg3dwwDADa0cfa1tVfTUU+mT+DYjfIwsBOpkXq5d/Tyb2hmJSVi4aup6RNNy0ZAADw9/CKwoVrs2SsmYPKva9lq2aFeXSKf3ptXldLNSpUQDd9cGq1rquZf19zZF4AAACemni62bh7u3WeyJ6Ux5A0lTXF3cXg7t5Gozyu1Kt3s3i+2b5/XCyVwpWmkHhqrWzY6tZ1pGqHpHSqo4hboliYonyysJbFw7GbmHR3zYJxAAAJcklEQVR4nO2aaVviyBaAIxQkLAkhJUTCFgFBhNgLPSIg9j62M3O53dPdM/f//5J7KktVBYl+EbF5zvvFJJWl3jq1o6IgCIIgCIIgCIIgCIIgCIIgCIIgCIIgCIIgCIIgCIIgCIIgCIIgCIIgCIIgCIIgCIIgCIIgyEO83HUGts77vVf88HHXOdgyH09P9juIr04PUn/sOhPb5MPpwcHhyR7XU4ggGKb2V/ETEwTD1Of3u87Kdnj/5SA0TH3+fdeZ2QY3fgQDw9TJza6zswVeB4IHKZ8fu87O43N7GjM8+bTrDD02UR2NDFOfv+46S4/MK254GCr+tussPS43Xw7WDU/2a8gQIeSGqcN9mqC+FILCcK+CeLvJMHW462w9Iq8PNhnu0czm5nSj4R6to24TDPdnMfzhIMHwz13n7LE4SDLcl2oqDfdxw70ZEv88TTJ8Xosoezh0fIYh9toNUXpwiyMSbpMNn9WgX+8XMz7FgEwmPTmTLId/FYs8nf2tn4Upn5LaYerkPztR2Yw9WS0zaSDbWK1W9aVaVLPZTOaIO3Ymq4bqp9eXy2wxm85mGh0/5UOy4TPrauxOlikGTk5nkgGhTLoj3TCBG9QhHDidFRRHtugnvk40TP13JyL3AAbZJT9zJkVm8UaknzEtWzpusKODZMNnt5lxpKazdemcWaSLZ/y8k+Ex9m9O+0G8x/DZTb7XDQNFlfebMcMhRDjDAvxLGypH4KSuojNm2OB9DxiqzPAwrviLGdoN6Fz6w/Asbsg6IlaDXycbPrvNmruGyhsWxKPwBAyzwrAPKezkVXItjY8W9qDG/tRG42b4Eqc5HlXXc+E2xxcX44ETf7Z6Ac/YzcXlwlufi7hXY3hNeFUk1kbTi6nXfcjQYV1m1L/GDOEk6Gc/Js9pxIhv17zrWetKUa7mBVrRZ8zLmZYKlYp+HstE7bLQbllaRSdjbjAYXc50y1a8WcHMmVr8gWav9aJtafps0azVBr1aeHl03mpZeUo1fiXBUFlCNc06dw3tZbYfxPaeeelt9JbxC4vmDG3gnrc1jRqk1OoqnlXOayYhpbwrPrcoHy8GtcGiUjLoPPis6z9rELfX0il7IEeH/H6nZ82rttOc5wxT03W9HDxT1fLEq1W9OSW58uh+QzYoZIbcMN0Y2sDwTUNdhpOBl7G1hdwOxbawXV1UwKtnXTe7XW9WIqX5on3pVQcXoJu75F/rUe3KP+jOc8ScBxe701KJkJk5G9Xc6gUlxFxwwfPKzHeyz/1bzMBmkDd7geqIGkbZu9eQNcRiRximi32gmMlmV2dhaA+TDFPy6umKktJ5UGNcDQIxDxrgoEKMQhTEBTWn4eEQ1GlUUd1zKIdrO3oPsaKmMqWVMELNAjGndhj1SqkS1eQx3H7MY77J8GzNMLus15cNMISJaTqY73w6TRCMTdrcPKHN8HhUIfQqygIch4Vc1QmXVa4KxDCjrF3mCK/LvRLRw+7JLpPCILxMRV24NqVqMS+RysWDhi43DNuh3Vn5k29/qPyatE9zK78IDLWmOI7KXnGpUQljtTBLc9EXQr0rRPULDMtR5+pR/iIokkgWxEu98I0WLzOgqREjJ03ENtZSVbRD0ZcO09AHZSbscPNu4tpOlGxoV0hkpTgQqqCMbcOQyp4F14wKXzaELEcVAA55DC9z0cNQBPyqH2eiRXU2qadJb+hLQZEtRYpM/v3GHeG1lUXMcGYIw1lk6JahsYkHIPtcWDYcFHiIBrqoC70SDQ+nJilIoyxUUy68yXCVTRgPw27Wb4obY7i2I5xkaJ9Hht18zBAeyPUkw6hNSoaOBZ1yeJgnlhscXudihhem+PAmQzVxTqMMWQX2q6kURBHCtaVTzPA8ybAnPbAWQ26oi2YG18PIjSt69EYw5F/yU+6NIes++444kQ0dtuT3DaWWeJgQwnsNgyECwmAYYrLmagYf+JIMawXDoFPXdrzCMe8wx1IrD061aF6zwXCihmFinK0ZNnh8v35ZN7yzg3FfLZ1GV0XXGAwvUSMDw2M3MixIXeVAp6RCZ5WWdsUfZCOvVBempmFG5XbXcAhXMrxY1w1VMVTyyemPjR2p4tdBYUiknoYbwmghek/fRIusekmGij0yK/PeQqqVrMciVMxdeyXRupnhUpGBWWlR7NScySvgUDg6CevpYWh497+GarpkmIv1pZUpz7s05I8rJs8ZjPJ8xGeG0lRzpMt2PhBxMbGzoQvik+8JGxnkW1dqen2fRhWG9ay0xRH+Svo6MDx5tf7VuCElMcPoGELF+xp7Jk3J1wz5EKFUexqNr7PYxbwhvuVRKurFKhsuagOGdTUrRRBGf1VOn8Dy6UgkBk3xt2++4IalL4zDfKYGfYqYgJqiwN08TLEugzJc0DIftmFWQLSBeBF/oNbKwXjhNatdsdwAxjohejiFNzUxi/CH8HTmKLiZbScW63L5OGwllVY7fg46dUg+k1KV31kUv/3tC643Qse7gLWFQTy2UO1eQTWCxtd02OoV4kbooukG+SHUMOm4Ceseax7VreYUFiMEZpcjeHh0TdnxfOx3SY4BT5doQc+XLbM3drliPkf0nldtTq18VJTK0bKY9lGL/WxDhfWDWpc3S1fLvl8C6UxfbaQhOTtZqx5M8dvPk9TJjzu/yDTfWnlG+21Xcdrtsp7X89Zb6C8uX/gJ1ouwoJ2xqdO81Wqfj3hz6LWP88FNrmLDi47Lx8flF0HGawQWjAFGqaKLPrZ3XCiUW23rmrfBzl/9oqCvLidvYoF/0+cb/mHyneoPFfX07+8/7kYQyqdb67qu260OIN/Vao1RZRsV3Sq7Dgm8+O2BNxp7XWmrolsNHq6xsLHD4dB1a1Hurmk5b1llnUI0DUt0oe7VaDxqypm05Z9lnPW9EMUOcBKSA24Ofn7/+bQ/VoytMbNwal4vtjbeFi/fff9n29+QcS7bYqzwdFhjb/2T/7w7e/imR8M516fS6XUumodvkX/fDR++6dHombq8GelRaUq0LTpPaTgsxJZJyoiWa4k3P9pHn9LQ0UgsaHN6nXjvo/GkhmyWp4s1xag8vzuCPTrD/z2lYdeC2dyF6x+7i9ZTCCr2v09pqDQpzGrLs8vFNWnnxw/f/wviLnSdUv24NROT0n3DGXied+UmzLIQBEEQBEEQBEEQBEEQBEEQBEEQBEEQBEEQBEEQBEEQBEEQBEEQBEEQBEEQBEEQBEEQBEEQZFv8H5ElBQez3v4dAAAAAElFTkSuQmCC;" vertex="1" parent="1">
          <mxGeometry x="270" y="-530" width="80" height="80" as="geometry" />
        </mxCell>
        <mxCell id="8M1PxrnFKsvRRrVdLFiL-48" style="edgeStyle=orthogonalEdgeStyle;rounded=0;orthogonalLoop=1;jettySize=auto;html=1;entryX=0.5;entryY=0;entryDx=0;entryDy=0;startArrow=classic;startFill=1;endArrow=classic;endFill=1;dashed=1;" edge="1" parent="1" source="8M1PxrnFKsvRRrVdLFiL-36" target="8M1PxrnFKsvRRrVdLFiL-39">
          <mxGeometry relative="1" as="geometry" />
        </mxCell>
        <mxCell id="8M1PxrnFKsvRRrVdLFiL-49" value="HA cluster" style="text;html=1;align=center;verticalAlign=middle;resizable=0;points=[];labelBackgroundColor=#ffffff;" vertex="1" connectable="0" parent="8M1PxrnFKsvRRrVdLFiL-48">
          <mxGeometry x="-0.0256" y="-1" relative="1" as="geometry">
            <mxPoint as="offset" />
          </mxGeometry>
        </mxCell>
        <mxCell id="8M1PxrnFKsvRRrVdLFiL-36" value="" style="shape=image;verticalLabelPosition=bottom;labelBackgroundColor=#ffffff;verticalAlign=top;aspect=fixed;imageAspect=0;image=data:image/png,iVBORw0KGgoAAAANSUhEUgAAAQQAAAEECAYAAADOCEoKAAAZQElEQVR4Xu3dCZRcZZUH8Ftr71sWwr4mECDsssgAIosoAgLDIq4oKgjioCJ6PKKyKIhxmDPqKDjg5CiDKI6IoggHSWQTExOQLBBCFgLZk95rf+/Nu69TlerbVV1Vb6/3/r9z2k7f9yJJuutf3/e9b4loOoLgKn57I+W1sl8XvzA+aWXXtJ2/tXhdo0giWbwIARVBIDQx/tZFyl/pLtFUIlXVP+mflcLYrxXF+LNEO7vl3dBEEAjNoPQu78GL3wxVIS2f1z8Xxhod+p8/2tEl7wIfQiD4Tfm3o1kCoE4atya4JcEtjEiUIskWeQt4DIHgNW52M37xBywAauIfPb01YQxw8F89GpN3gMsQCG4r/XMX+/8hC4FaiuMiXo2PhBwCwQ0B7gZAsCAQnFIaCCz9D4DvIRAAoCQqCwAQXggEAChBIABACQIBAEoQCABQgkAAgBIEQsjxKsXcqqWUf/N1eQlCCIFQFLLpGGo6RcMP/Rdt+cxZtP0rV5CWy8pbwiFk3/daEAgsZPPms8sW0dbPn08jv/oxqQPbqPWksyg5c468LRxC9H2vR6gDQSvwev1whUHqiV/Tjm99itQdW0q19nMuL7sDwiyUgaBl03oY5CkSj4cqDEYenUeD99y6c8nxmOjUGZScc0LZXRBmoQsELZOiSLJVD4OEvBRo6b/+gYbnzZVlajnqZIpEQ/djAFWE5ydh595/kdb2ULUKWG7lyzTww5tl2ZA85ChZghALRyDwll0xvXsQwndC7h4N/ODrY4FYQWyP/WQJQizYr5DSngTB/mtOZuiB/yRlw1pZLol298kShFiwXykh6xpIPNko9acHZXkcbHQK5YIXCJhoUjL84A/HPVGohAdZAYoCFgjhmlMwmfza1yi78GlZnkBLjcgShFjAAgFhUGS0DupoLRUmGV+A8AlYIADLv7Wasovmy3JFhQ3rZAlCDIEQQOmnH5GlqvIrX5YlCDEEQsDwJtqZ5x6X5ap46bNxDiMAIRACJ79iMSlbN8pydbks5Va+JKsQUgiEgEn/9TFZqim7aIEsQUghEAIm+9KzslRTBoEAOyEQAqSwaX1j3YWdeGpzfvVyWYYQQiAESH7lP2Wpbqn5j8qSq3hLN/AeAiFA8mtWyFLd0gt+T1o+J8uO05QCDd57W80p1uAOBEKAFN5aLUt100aGKPvS87LsKN7xmZdmq0MDFO3okpfBAwiEAFG2bZKlhqRd7jYM/+JuyjzzGLW+82x5CTyCQAgQZcdmWWpIZtF8UocHZNkRKb2LMvroPGMxWssRJ8rL4BEEQoBoqVFZakwh78rgIu/TMPiTW4xfx/edhU1afASBEBDG9GMbBubSTz4sS7bicYPBH33DmCHJEgfMFneAlxAIAaHlMrJkSuHtNZR95e+ybJvRR+6n/Kqlpa+5hQD+gUAICC1v31Fs6b/8VpZsoWzfRMMP3zuuFtttr3Ffg7cQCAFh59mM6ecfJ2VwhyxbNvzgj/SuwviWTLS7d9zX4C0Eggtyr79C6ReeIC1rT7O+IhsDgQoFyjzzR1m1hDdi4clPUrSjW5bAQwgEN2gqDcz9Em255j00+sSvjD0L7GbXGEJR6qn/kyVLhn/148qDniE7QcvvEAguSMw6kqJ900kd6qehe26jge99wfZpwupgvyxZUnjzdaNlYwceO8g8/2dZBh9CILggEolQ8vB3lL7OvPgU7bjzeuPAWbs40edP29RKGH38oaonR1WtgycQCC5J7H/IuK9zLz1Pg/fePq5mhTq4XZYsSz/7J1ItntvA4yZ8BH016sigLIGHEAguic3YW5aMd2A+ldkOTgSClh7Vm/pPyHJD0n97krRJXvTqcPVr4D4EgkviFQKBDf70O3of29oaBKYObJMlW1gdXMzorYzJKFveliXwEALBJdFpe8iSQUsN09DP75blhhU2vyVLtsi/usSYvWgGj2tkX35BlscpvPWGLIGHEAguicRislTCS4CtjugrG9fLkm0qzR+oR+aFJ2oOGhbWm9/DAeyHQHBLjbkHw7/8oSzVTR0dcmQMoYiXKpuZO1HPo8bC+lWm/r/BGQgEt9T4oeenDvnV5rZAUzY51zpg6rZNlH9jmSxPSh0dptyrtc974IFL1eI+DmAfBIJL6pm2PPqnB2WpLoWNb8qS7Ro5DYpllzxXs7tQlHt91+pH8BYCwSXKttrbo/OLTjVxPDs3u52W1v9smqrKclXZf9R/1gO3jsAfEAguqee8BC2bbvidmJntajRC3b6Z8q/V7gIwHhOo9XShXPZlBIJfIBBcomzdIEsVpZ9tfJVhflVj/Xuz6j0mjlssjQxy8lwEKztGg30QCC6p91l+bvnihtYl8KQmdaj++63gNRi8BVotuWWLZKmm7D//JkvgAQSCS/jY9bqoit7//qusVuVGd6GI3/VzyxbK8gS5pbXvkTIvPClL4AEEggv4ERyfn1iv7EvPyVJVbp/JWE9/P1fnWEO53PJFVMA0Zs8hEFxgbCpaYx5COW4+1zuin1vq3IaoleRqbMCq9G8jtX+rLNclvcCehV5gHgLBBfzu1whteIAK61bK8gR8QGpu5cuy7Cg+P5JbPNVYPV8SvIVAcIGZMxPraXYbQVOob/KPbfSWy2R/tsKaV2WpbsrGdZRbsViWwUUIBIcpg9sbnvbLcq8ukaUJzASNHQprX5OlEjN/13IjfLwbeAaB4LDcKwsbGj8oytex+jH3youy5IrJ5gzkJwmLemQXzXdsKTfUhkBwWObvT8lSXRT9RcEzF6vhF40bU5Yryb9Z+b/Lqy75z22J3iUZfewBWQWXIBAcxC/oRub0j6O3KvLrq28eYmaKs10Kb6+uuGQ5v9r8+EE53lqOd6gG9yEQHJRZ/Axpmerv8rUUqrwTM94A1TO5bMXZkfm19gSClknRyG9+KsvgAgSCg6yeflTYuE6WDHycej2PJZ3EeyRISp3Ts+vBS8HdWNYN4yEQHMJzBDK8J4AF1RZEWd0J2Q7Kji2yRIXNNs40VAo0wqc9gasQCA4xxg4sHq+mVHiB8QxGu7Zut0LZPjEQlM327tyUfuYxy48xoTEIBIekn6u9n2AtlVoI2YV/sT6SbwM+nq2cpr+jKxW6EZZoGg39z1xZBQchEBzAj9+yi+tfsVgNry6UaxpGfvPf4772iioCwdgAps4t0xrBszHTdWzWCvZAIDggs3C+3qG24dxGPQw0PVyKeN2CX5rQssvg5IErw//7A1vPwYTqEAgOSM9/VJZMK98sZfR3/pnWKwcVnezG8BqH1JMPyzI4AIFgM+5b27kkmVc+Mp4daHbWoxN4j8VyTk835nkJ9excDdYgEGxm7DtYYRafWcXTl4fnzTW6EH7BszDLd4hWtjgbCLzHwuifH5JlsBkCwWZ2r+nnmY6ZRQsa2kXJLerAro1U1f76N1U1a/S39xnzO8A5CAQb8XZmhUnWH5jB74yD994my75QfuJ0I7ssm8XrG1J/xMInJyEQbJSycTCxaOTX90zor/uFUhYIvO+DG3glpJbLyjLYBIFgEy2fd2RPwEqLiPyiuHeils+RNrLr8aiTuCWSevoRWQabIBBskv3n8/qLYlCWA03d+UjU7aXKKW4l2DhwC7sgEGyStriysRkVuwxujB+U40NvGjm7AuqHQLCBsRHKwqdlOfCKTxYaOWnKLqnHfylLYAMEgg34saCVjVCaVfEpQ/njR7fwYbJ8BgTYC4FgA093L/IQnyvJ1J2zKV2lKpR5Lpz/7k5CIFjEE2WyS56V5VDgsQOeSamlR+UlV6Tm2zsJDBAIlhkzCPM5WQ4NZcsGzwKhsGbFpBvRQuMQCBbxhiVhxsuey9c0uC27yOSu1lARAsEC3iUoE/LHX8qmN0nLeNNCYPWcRg31QyBYkFuxxLUZen6VX/Oq3mXwbsERnwU52YE20BgEggVhHUwsl1+9wtMuA+9Mla1xRD3UD4FggZ0boTQrnjXoyWPHMvg+2AeBYBJvpMrLnUOPd1vesFZWXZV/A98HuyAQTMotXUh+2sHIUx4vNOITp7HYyR4IBJOyyxbKEnhESw1XPMMCGodAMCn/+lJZAg/x4CZYh0AwQVMUo5kK/uH14bdBgUAwobB+leVzG8Fe6DLYA4FgAp4u+I88OAbMQSCYYPfOymCdikCwBQLBBCfPMQRzlB1jG76CNQgEEwqb1ssSeIwPxS2ecgXmIRBM4D0AwH+Ku0CDeQiEBqkjg8ZEGPAfHAZrUtksTwRCg9SQL3f2Mw2Pgi1DIDQIa+99LMRb2dkFgdAgBIJ/4cxHkyK7folAaFAYz19oFggEs3YlAgKhQfih8y+tgC6DVQiEBkUSSVkCn4jE4rIEDUIgNCjS1i5L4BORVnxvTNv56BGB0CD80PkXvjcW7BxGQCA0CD90/oXvjRVjiYBAaFCsZ6r+b1f2nAZ8I9rVI0vQIARCgyItrRSbtrssg8ciLW0U7Z0my9AgBIIJsd33lSXwWGzG3nrDDS03qxAIJsT32E+WwGMIaXsgEEyI73WALIHH4rvvLUtgAgLBhORhx8kSeCxx8JGyBCYgEEyI7zcLj7h8JnnwUbIEJiAQTOApsmgl+Edst70oNnWGLIMJCASTkrOPkSXwSOIQtA7sgkAwqfXEM2UJPNJy1MmyBCYhEEyK730gxQ+YLcvgtnicWk94t6yCSQgEC9re+R5ZApe1zDmRoh3dsgwmIRAsaH3n2bIELms58QxZAgsQCBbE99yfkoe/Q5bBLYkktZ2EULYTAsGijguulCVwSdtp51G0u0+WwQIEgkUtx51GMb2lAO7rOO8jsgQWIRAs4hV2HedcJsvgsMTsYyix7yxZBosQCDZoO+tfsRbfZZ0XflKWwAYIBBtEW9up64rrZRkckpxzPLUef7osgw0CEQhqepQ0j4/xanv3BRhLcEnnZZ+VJc8ogzuosPktWW5aEU0rO/q1SeXXraRtN15qLHJJ7HcwJWbOocSsIyhx4GEU7eiStzsm/cKTNDD3i7IMNmo55hSa8vUfy7IrlP6tlF+9XP9YMfbxxjJSt2+mnuu/Te2nXyBvb0qBCAS29cbLqLBmxfhiJGK8ayc5IPSP5CFHUXz/Qxw90GPHt6+l7OJnZBnsEE/QtLm/psQ+B8krtlO2bdr14n+DPy8ndWCbvE1vY0dpxv0LKNrVK680JT0QVK20KXsTG/3jAzR0352yPFGydSwg9HDggEgcfBTFeqbIu0xTtm+irTdcRFpqRF4Cizo/eB11XXqNLFtW2LSe8mt2vuvrL/yC/lkd6pe3VcQT06be+jNZbloRTdUDIQCbU6ojg7T5U2eYOhKcnxAkZh5uLGlOzj6WEgcdRpFki7ytbqm/PEKDP7pZlsEC7v5NvfMBS607HmfKr1qmv+iXld71CxvX6YlQkLfWree626j9jAtluWlFNEXRuNkTBP133UCZF5+S5YZFWtv0gDhCD4ejja25kgcf3dCe/9wL23Hb1ZR7+QV5CcyIxmjqHb8wWnb10n+uqbBhbekd33j311sBWnpU3moab/2+231PU7StQ15qWhGtkNfIQur6SWbhfOq/05nHf7G9DtCD4cixoJg1h+L7HUwRvU9bDY8+b7vpclL1vihY0/XRL1LnhZ+Q5XG4hZh79SXKvaZ/rFhshICWTcvbbNX2rvOo9/N3yHJTi6jZtBbR+9VBoCkF2nrduaRs3Sgv2S+RpMT+s/Wm7KFGc5Y/x/edOS4kcq+/Qtu//nG9SZov+43QiJYTzqC+m/5j3JkL/ELPr3lNb/YvNUb6uRtQeHtN2e9yx9Q7HjDeJIIkogwPaNHO+pvDfjf6h5/T0M/ukmV36F0v3qI9vvdBFN/nIEocdDgpm9fT0P3flXdCHXgTmik330P5tfzi577/cqPvr/Zvlbe6LnHosTTt9nmy3PT0FkJGszKA5jfq6BBt+cxZpGWcbS7WjbtjivlBqzCLdk8hNTVkadDPKb1fmkttJ58jy00vaoRBMKYiGHj3nPazL5Vl7yAMTFOHdvgyDGLT9wzsnppjjxdURZSbWwcPQAVkXAT8p+PCT1p6/OlnRiDwI5ogifVOo473f1iWASzjMaL2sy+R5cAIxgSECjrO/6gxnwDATp2XfEZvHcRkOTDGAiEgE5PKxXqmUufFn5ZlANPi+86i1lPOleVAMZIgEg1m4nVc8HGKzcCpwGCPrg9dr79WgvfmWS6wLQQWSSSp52qsKQDreO/M1uODfyBMMJOgDB/zxWvoAUzT31i6r7xJVgMp8IHAeq67lSI43QdM6rzkaorvuZ8sB1IoAiHWN526P4adjKBx/Jix8wOTL6wKklAEAms782JKHoZTlqAx3Vd9lSKJ6qtagyY0gcCr5XquvQUzGKFurae+P3RHzYcmEFh8j32p59Nfk2WACWL8s3L1N2Q58EIVCKz9jIv05A/25BKwKBan3hu+S9G2dnkl8EIXCKznqq9RdMoMWQYwdF50VUPbtQXJ+EAI0DLoyfD+iH033T22VwFAmeTRJ1Pn5dfKcmiMD4QA7L5cr+SsI4x3AoCiaO9U6v3ctwM/PXkyE//mIWklMD4SrOXof5FlCCMeN/ji9yjWF+5DeycEAm9UGha8jLX3xu8be/dBuPVceyu1HH68LIfOxEDIpGQp0HhPfWNX3/ZOeQlCouPiT1H76efLcihNCARjB2ZNleVA4+mpPVd/U5YhBHib964Pfk6WQ2tCIDAt1/hxaM2u7ZT3UscHrpRlCDA+l7HvC3cFegekRlUOhIx9x101k64P30At73iXLEMAxQ84lPq++gNLZ3gGUfXj4LkcoseQRWo6RdklOM496JKHH2/rqd9BUTUQ+KRc3nEIAMKjYpeBabmsLAFAwFVtIQBA+FRtIRjUcD1+BAi7SQNBC9gRbwAwOXQZAKBk0haCAXkBEBq1AwEAQqN2IIRwchJAWNUOBAAIDQwqCsrgDiqsfU2WIWD4EOD47vvIcughEITMi09R/103yDIEDO+W1RXivROrQZcBAEoQCABQgkAAgBIEAgCUIBAAoASBAAAlCAQAKEEgAEAJAgEAShAIAFCCQACAEgQCAJQgEACgBIEAACUIBAAosS8QsK0CQNOzLxCw9yJA07MvEACg6dkfCBqOfwNoVvYHQiSK8QSAJuXIJqtaPkeRRFKWm0J26UIanjdXliFg2s++hNrfc6ksh54jgcC0Qp4i8YQsA4CPORYIBj5OPmp/rwQAnOFsIABAU3H87VvLpGQJAHzKnRaCohDFYrIKAD7jTiAw/s9gNiOArzneZSgxwsCd7AEAc9wLBJ2WzcgSAPiIe12GIqVAFIvLKgD4gPuBwHi9A09xDiFuJSn9W2UZhGhXD0U7umUZHOZNILCQDjLmlv+Dtt98pSyD0H3VV6nj3A/LMjjMu7fpEIYBi7R3yhJUEGlH68AL3gUCUxVZCbxIe5csQQXRDvw7ecHbQIjGQrdUOtY3DYOqdYhN30OWwAXeBgLjrkOIQoGXhcf3PlCWoVw8TvG98G/kBe8DgYVs0lLiwENlCcrE95mpByeWznvBH4FgCM8gY3L2sbIEZZKHHidL4BIfBUJ4tJ54xtj4CVTUetKZsgQuQSB4INrVS4lZc2QZdJHObr0FdYwsg0sQCB5pP+sSWQJd+7svpAiewngGgeCRtlPfT9HeabIcbno3qh2zEz2FQPAIj6Jj19/xWo8/neK77SnL4CIEgoc6L/wERaftLsvhFE9Q18e+JKvgMgSChyItbdR1+XWyHEod536I4rvvI8vgMgSCx9pOv4ASh4Z7XgK3kjovvUaWwQMIBI9FolHqu/H74R1g1LsKfV++m6JYBeoLCAQfiOlh0HPtLaFcEt51xfWUnIk5GX6BQPCJ1uNOo66P3yjLgdZ25kXU8YErZRk8hEDwkc7zP0adl31WlgOp9eRzqOeab+mNovC1ivwMgeAzHAjt7/uQLAdKy7GnUu/nbjfGT8BfvNtTESY1+tgvaOj+78py02s782LqufobFMFJXr6EQPCx1JMP0+B9dxDlc/JSU+Lxgq6PfAEtAx9DIPhc4a3V1P/vX6bCupXyUtOI9k2n3n+7k1qOOEFeAp9BIDQBNT1Kw/PmGi2GZsPjBT3XfJNiU2fIS+BDCIQmwmc6DPzkFlLeXiMv+U60Zyp1f/Ir1HbK++Ql8DEEQpPR8jmjpTDyu5+Rum2TvOy5SEe3sS6h47yPULSzR14Gn0MgNCktn6f0gt/T6O/nGeMMXotOmaEHwRXU/t4PUrStQ16GJoFACIDs0oWU+vNDlHnxqbHDdF2UPPIkaj/ncmMvA+x01PwQCAGijg5RdsnzlF28gDKLnyVteEDeYlmktU0PgZOp9bhTqeW40yjWN13eAk0MgRBQ/G1VNq6j/KqllNM/+LGlsmUDKTzuUOcRetEpu1Fst70osc9BlJg5x/iI679GSyC4EAgho+ldCmX7ZqP1oI4Ok5ZJkVbIG/sZct8/0tFlLEWOTd/TOGUKwgWBAAAlmEMKACUIBAAoQSAAQAkCAQBKEAgAUIJAAIASBAIAlCAQAKAEgQAAJQgEV2FSKPgbAsFVZWcQYMY4+BACwSvygBIjIBAS4C0Egl8YAYEWBHgLgeBXsgVRhKAAByEQmk21oACwwf8DYrk0kr9CmtIAAAAASUVORK5CYII=;" vertex="1" parent="1">
          <mxGeometry x="890" y="-924.65" width="100" height="100" as="geometry" />
        </mxCell>
        <mxCell id="8M1PxrnFKsvRRrVdLFiL-39" value="" style="shape=image;verticalLabelPosition=bottom;labelBackgroundColor=#ffffff;verticalAlign=top;aspect=fixed;imageAspect=0;image=data:image/png,iVBORw0KGgoAAAANSUhEUgAAAQQAAAEECAYAAADOCEoKAAAZQElEQVR4Xu3dCZRcZZUH8Ftr71sWwr4mECDsssgAIosoAgLDIq4oKgjioCJ6PKKyKIhxmDPqKDjg5CiDKI6IoggHSWQTExOQLBBCFgLZk95rf+/Nu69TlerbVV1Vb6/3/r9z2k7f9yJJuutf3/e9b4loOoLgKn57I+W1sl8XvzA+aWXXtJ2/tXhdo0giWbwIARVBIDQx/tZFyl/pLtFUIlXVP+mflcLYrxXF+LNEO7vl3dBEEAjNoPQu78GL3wxVIS2f1z8Xxhod+p8/2tEl7wIfQiD4Tfm3o1kCoE4atya4JcEtjEiUIskWeQt4DIHgNW52M37xBywAauIfPb01YQxw8F89GpN3gMsQCG4r/XMX+/8hC4FaiuMiXo2PhBwCwQ0B7gZAsCAQnFIaCCz9D4DvIRAAoCQqCwAQXggEAChBIABACQIBAEoQCABQgkAAgBIEQsjxKsXcqqWUf/N1eQlCCIFQFLLpGGo6RcMP/Rdt+cxZtP0rV5CWy8pbwiFk3/daEAgsZPPms8sW0dbPn08jv/oxqQPbqPWksyg5c468LRxC9H2vR6gDQSvwev1whUHqiV/Tjm99itQdW0q19nMuL7sDwiyUgaBl03oY5CkSj4cqDEYenUeD99y6c8nxmOjUGZScc0LZXRBmoQsELZOiSLJVD4OEvBRo6b/+gYbnzZVlajnqZIpEQ/djAFWE5ydh595/kdb2ULUKWG7lyzTww5tl2ZA85ChZghALRyDwll0xvXsQwndC7h4N/ODrY4FYQWyP/WQJQizYr5DSngTB/mtOZuiB/yRlw1pZLol298kShFiwXykh6xpIPNko9acHZXkcbHQK5YIXCJhoUjL84A/HPVGohAdZAYoCFgjhmlMwmfza1yi78GlZnkBLjcgShFjAAgFhUGS0DupoLRUmGV+A8AlYIADLv7Wasovmy3JFhQ3rZAlCDIEQQOmnH5GlqvIrX5YlCDEEQsDwJtqZ5x6X5ap46bNxDiMAIRACJ79iMSlbN8pydbks5Va+JKsQUgiEgEn/9TFZqim7aIEsQUghEAIm+9KzslRTBoEAOyEQAqSwaX1j3YWdeGpzfvVyWYYQQiAESH7lP2Wpbqn5j8qSq3hLN/AeAiFA8mtWyFLd0gt+T1o+J8uO05QCDd57W80p1uAOBEKAFN5aLUt100aGKPvS87LsKN7xmZdmq0MDFO3okpfBAwiEAFG2bZKlhqRd7jYM/+JuyjzzGLW+82x5CTyCQAgQZcdmWWpIZtF8UocHZNkRKb2LMvroPGMxWssRJ8rL4BEEQoBoqVFZakwh78rgIu/TMPiTW4xfx/edhU1afASBEBDG9GMbBubSTz4sS7bicYPBH33DmCHJEgfMFneAlxAIAaHlMrJkSuHtNZR95e+ybJvRR+6n/Kqlpa+5hQD+gUAICC1v31Fs6b/8VpZsoWzfRMMP3zuuFtttr3Ffg7cQCAFh59mM6ecfJ2VwhyxbNvzgj/SuwviWTLS7d9zX4C0Eggtyr79C6ReeIC1rT7O+IhsDgQoFyjzzR1m1hDdi4clPUrSjW5bAQwgEN2gqDcz9Em255j00+sSvjD0L7GbXGEJR6qn/kyVLhn/148qDniE7QcvvEAguSMw6kqJ900kd6qehe26jge99wfZpwupgvyxZUnjzdaNlYwceO8g8/2dZBh9CILggEolQ8vB3lL7OvPgU7bjzeuPAWbs40edP29RKGH38oaonR1WtgycQCC5J7H/IuK9zLz1Pg/fePq5mhTq4XZYsSz/7J1ItntvA4yZ8BH016sigLIGHEAguic3YW5aMd2A+ldkOTgSClh7Vm/pPyHJD0n97krRJXvTqcPVr4D4EgkviFQKBDf70O3of29oaBKYObJMlW1gdXMzorYzJKFveliXwEALBJdFpe8iSQUsN09DP75blhhU2vyVLtsi/usSYvWgGj2tkX35BlscpvPWGLIGHEAguicRislTCS4CtjugrG9fLkm0qzR+oR+aFJ2oOGhbWm9/DAeyHQHBLjbkHw7/8oSzVTR0dcmQMoYiXKpuZO1HPo8bC+lWm/r/BGQgEt9T4oeenDvnV5rZAUzY51zpg6rZNlH9jmSxPSh0dptyrtc974IFL1eI+DmAfBIJL6pm2PPqnB2WpLoWNb8qS7Ro5DYpllzxXs7tQlHt91+pH8BYCwSXKttrbo/OLTjVxPDs3u52W1v9smqrKclXZf9R/1gO3jsAfEAguqee8BC2bbvidmJntajRC3b6Z8q/V7gIwHhOo9XShXPZlBIJfIBBcomzdIEsVpZ9tfJVhflVj/Xuz6j0mjlssjQxy8lwEKztGg30QCC6p91l+bvnihtYl8KQmdaj++63gNRi8BVotuWWLZKmm7D//JkvgAQSCS/jY9bqoit7//qusVuVGd6GI3/VzyxbK8gS5pbXvkTIvPClL4AEEggv4ERyfn1iv7EvPyVJVbp/JWE9/P1fnWEO53PJFVMA0Zs8hEFxgbCpaYx5COW4+1zuin1vq3IaoleRqbMCq9G8jtX+rLNclvcCehV5gHgLBBfzu1whteIAK61bK8gR8QGpu5cuy7Cg+P5JbPNVYPV8SvIVAcIGZMxPraXYbQVOob/KPbfSWy2R/tsKaV2WpbsrGdZRbsViWwUUIBIcpg9sbnvbLcq8ukaUJzASNHQprX5OlEjN/13IjfLwbeAaB4LDcKwsbGj8oytex+jH3youy5IrJ5gzkJwmLemQXzXdsKTfUhkBwWObvT8lSXRT9RcEzF6vhF40bU5Yryb9Z+b/Lqy75z22J3iUZfewBWQWXIBAcxC/oRub0j6O3KvLrq28eYmaKs10Kb6+uuGQ5v9r8+EE53lqOd6gG9yEQHJRZ/Axpmerv8rUUqrwTM94A1TO5bMXZkfm19gSClknRyG9+KsvgAgSCg6yeflTYuE6WDHycej2PJZ3EeyRISp3Ts+vBS8HdWNYN4yEQHMJzBDK8J4AF1RZEWd0J2Q7Kji2yRIXNNs40VAo0wqc9gasQCA4xxg4sHq+mVHiB8QxGu7Zut0LZPjEQlM327tyUfuYxy48xoTEIBIekn6u9n2AtlVoI2YV/sT6SbwM+nq2cpr+jKxW6EZZoGg39z1xZBQchEBzAj9+yi+tfsVgNry6UaxpGfvPf4772iioCwdgAps4t0xrBszHTdWzWCvZAIDggs3C+3qG24dxGPQw0PVyKeN2CX5rQssvg5IErw//7A1vPwYTqEAgOSM9/VJZMK98sZfR3/pnWKwcVnezG8BqH1JMPyzI4AIFgM+5b27kkmVc+Mp4daHbWoxN4j8VyTk835nkJ9excDdYgEGxm7DtYYRafWcXTl4fnzTW6EH7BszDLd4hWtjgbCLzHwuifH5JlsBkCwWZ2r+nnmY6ZRQsa2kXJLerAro1U1f76N1U1a/S39xnzO8A5CAQb8XZmhUnWH5jB74yD994my75QfuJ0I7ssm8XrG1J/xMInJyEQbJSycTCxaOTX90zor/uFUhYIvO+DG3glpJbLyjLYBIFgEy2fd2RPwEqLiPyiuHeils+RNrLr8aiTuCWSevoRWQabIBBskv3n8/qLYlCWA03d+UjU7aXKKW4l2DhwC7sgEGyStriysRkVuwxujB+U40NvGjm7AuqHQLCBsRHKwqdlOfCKTxYaOWnKLqnHfylLYAMEgg34saCVjVCaVfEpQ/njR7fwYbJ8BgTYC4FgA093L/IQnyvJ1J2zKV2lKpR5Lpz/7k5CIFjEE2WyS56V5VDgsQOeSamlR+UlV6Tm2zsJDBAIlhkzCPM5WQ4NZcsGzwKhsGbFpBvRQuMQCBbxhiVhxsuey9c0uC27yOSu1lARAsEC3iUoE/LHX8qmN0nLeNNCYPWcRg31QyBYkFuxxLUZen6VX/Oq3mXwbsERnwU52YE20BgEggVhHUwsl1+9wtMuA+9Mla1xRD3UD4FggZ0boTQrnjXoyWPHMvg+2AeBYBJvpMrLnUOPd1vesFZWXZV/A98HuyAQTMotXUh+2sHIUx4vNOITp7HYyR4IBJOyyxbKEnhESw1XPMMCGodAMCn/+lJZAg/x4CZYh0AwQVMUo5kK/uH14bdBgUAwobB+leVzG8Fe6DLYA4FgAp4u+I88OAbMQSCYYPfOymCdikCwBQLBBCfPMQRzlB1jG76CNQgEEwqb1ssSeIwPxS2ecgXmIRBM4D0AwH+Ku0CDeQiEBqkjg8ZEGPAfHAZrUtksTwRCg9SQL3f2Mw2Pgi1DIDQIa+99LMRb2dkFgdAgBIJ/4cxHkyK7folAaFAYz19oFggEs3YlAgKhQfih8y+tgC6DVQiEBkUSSVkCn4jE4rIEDUIgNCjS1i5L4BORVnxvTNv56BGB0CD80PkXvjcW7BxGQCA0CD90/oXvjRVjiYBAaFCsZ6r+b1f2nAZ8I9rVI0vQIARCgyItrRSbtrssg8ciLW0U7Z0my9AgBIIJsd33lSXwWGzG3nrDDS03qxAIJsT32E+WwGMIaXsgEEyI73WALIHH4rvvLUtgAgLBhORhx8kSeCxx8JGyBCYgEEyI7zcLj7h8JnnwUbIEJiAQTOApsmgl+Edst70oNnWGLIMJCASTkrOPkSXwSOIQtA7sgkAwqfXEM2UJPNJy1MmyBCYhEEyK730gxQ+YLcvgtnicWk94t6yCSQgEC9re+R5ZApe1zDmRoh3dsgwmIRAsaH3n2bIELms58QxZAgsQCBbE99yfkoe/Q5bBLYkktZ2EULYTAsGijguulCVwSdtp51G0u0+WwQIEgkUtx51GMb2lAO7rOO8jsgQWIRAs4hV2HedcJsvgsMTsYyix7yxZBosQCDZoO+tfsRbfZZ0XflKWwAYIBBtEW9up64rrZRkckpxzPLUef7osgw0CEQhqepQ0j4/xanv3BRhLcEnnZZ+VJc8ogzuosPktWW5aEU0rO/q1SeXXraRtN15qLHJJ7HcwJWbOocSsIyhx4GEU7eiStzsm/cKTNDD3i7IMNmo55hSa8vUfy7IrlP6tlF+9XP9YMfbxxjJSt2+mnuu/Te2nXyBvb0qBCAS29cbLqLBmxfhiJGK8ayc5IPSP5CFHUXz/Qxw90GPHt6+l7OJnZBnsEE/QtLm/psQ+B8krtlO2bdr14n+DPy8ndWCbvE1vY0dpxv0LKNrVK680JT0QVK20KXsTG/3jAzR0352yPFGydSwg9HDggEgcfBTFeqbIu0xTtm+irTdcRFpqRF4Cizo/eB11XXqNLFtW2LSe8mt2vuvrL/yC/lkd6pe3VcQT06be+jNZbloRTdUDIQCbU6ojg7T5U2eYOhKcnxAkZh5uLGlOzj6WEgcdRpFki7ytbqm/PEKDP7pZlsEC7v5NvfMBS607HmfKr1qmv+iXld71CxvX6YlQkLfWree626j9jAtluWlFNEXRuNkTBP133UCZF5+S5YZFWtv0gDhCD4ejja25kgcf3dCe/9wL23Hb1ZR7+QV5CcyIxmjqHb8wWnb10n+uqbBhbekd33j311sBWnpU3moab/2+231PU7StQ15qWhGtkNfIQur6SWbhfOq/05nHf7G9DtCD4cixoJg1h+L7HUwRvU9bDY8+b7vpclL1vihY0/XRL1LnhZ+Q5XG4hZh79SXKvaZ/rFhshICWTcvbbNX2rvOo9/N3yHJTi6jZtBbR+9VBoCkF2nrduaRs3Sgv2S+RpMT+s/Wm7KFGc5Y/x/edOS4kcq+/Qtu//nG9SZov+43QiJYTzqC+m/5j3JkL/ELPr3lNb/YvNUb6uRtQeHtN2e9yx9Q7HjDeJIIkogwPaNHO+pvDfjf6h5/T0M/ukmV36F0v3qI9vvdBFN/nIEocdDgpm9fT0P3flXdCHXgTmik330P5tfzi577/cqPvr/Zvlbe6LnHosTTt9nmy3PT0FkJGszKA5jfq6BBt+cxZpGWcbS7WjbtjivlBqzCLdk8hNTVkadDPKb1fmkttJ58jy00vaoRBMKYiGHj3nPazL5Vl7yAMTFOHdvgyDGLT9wzsnppjjxdURZSbWwcPQAVkXAT8p+PCT1p6/OlnRiDwI5ogifVOo473f1iWASzjMaL2sy+R5cAIxgSECjrO/6gxnwDATp2XfEZvHcRkOTDGAiEgE5PKxXqmUufFn5ZlANPi+86i1lPOleVAMZIgEg1m4nVc8HGKzcCpwGCPrg9dr79WgvfmWS6wLQQWSSSp52qsKQDreO/M1uODfyBMMJOgDB/zxWvoAUzT31i6r7xJVgMp8IHAeq67lSI43QdM6rzkaorvuZ8sB1IoAiHWN526P4adjKBx/Jix8wOTL6wKklAEAms782JKHoZTlqAx3Vd9lSKJ6qtagyY0gcCr5XquvQUzGKFurae+P3RHzYcmEFh8j32p59Nfk2WACWL8s3L1N2Q58EIVCKz9jIv05A/25BKwKBan3hu+S9G2dnkl8EIXCKznqq9RdMoMWQYwdF50VUPbtQXJ+EAI0DLoyfD+iH033T22VwFAmeTRJ1Pn5dfKcmiMD4QA7L5cr+SsI4x3AoCiaO9U6v3ctwM/PXkyE//mIWklMD4SrOXof5FlCCMeN/ji9yjWF+5DeycEAm9UGha8jLX3xu8be/dBuPVceyu1HH68LIfOxEDIpGQp0HhPfWNX3/ZOeQlCouPiT1H76efLcihNCARjB2ZNleVA4+mpPVd/U5YhBHib964Pfk6WQ2tCIDAt1/hxaM2u7ZT3UscHrpRlCDA+l7HvC3cFegekRlUOhIx9x101k64P30At73iXLEMAxQ84lPq++gNLZ3gGUfXj4LkcoseQRWo6RdklOM496JKHH2/rqd9BUTUQ+KRc3nEIAMKjYpeBabmsLAFAwFVtIQBA+FRtIRjUcD1+BAi7SQNBC9gRbwAwOXQZAKBk0haCAXkBEBq1AwEAQqN2IIRwchJAWNUOBAAIDQwqCsrgDiqsfU2WIWD4EOD47vvIcughEITMi09R/103yDIEDO+W1RXivROrQZcBAEoQCABQgkAAgBIEAgCUIBAAoASBAAAlCAQAKEEgAEAJAgEAShAIAFCCQACAEgQCAJQgEACgBIEAACUIBAAosS8QsK0CQNOzLxCw9yJA07MvEACg6dkfCBqOfwNoVvYHQiSK8QSAJuXIJqtaPkeRRFKWm0J26UIanjdXliFg2s++hNrfc6ksh54jgcC0Qp4i8YQsA4CPORYIBj5OPmp/rwQAnOFsIABAU3H87VvLpGQJAHzKnRaCohDFYrIKAD7jTiAw/s9gNiOArzneZSgxwsCd7AEAc9wLBJ2WzcgSAPiIe12GIqVAFIvLKgD4gPuBwHi9A09xDiFuJSn9W2UZhGhXD0U7umUZHOZNILCQDjLmlv+Dtt98pSyD0H3VV6nj3A/LMjjMu7fpEIYBi7R3yhJUEGlH68AL3gUCUxVZCbxIe5csQQXRDvw7ecHbQIjGQrdUOtY3DYOqdYhN30OWwAXeBgLjrkOIQoGXhcf3PlCWoVw8TvG98G/kBe8DgYVs0lLiwENlCcrE95mpByeWznvBH4FgCM8gY3L2sbIEZZKHHidL4BIfBUJ4tJ54xtj4CVTUetKZsgQuQSB4INrVS4lZc2QZdJHObr0FdYwsg0sQCB5pP+sSWQJd+7svpAiewngGgeCRtlPfT9HeabIcbno3qh2zEz2FQPAIj6Jj19/xWo8/neK77SnL4CIEgoc6L/wERaftLsvhFE9Q18e+JKvgMgSChyItbdR1+XWyHEod536I4rvvI8vgMgSCx9pOv4ASh4Z7XgK3kjovvUaWwQMIBI9FolHqu/H74R1g1LsKfV++m6JYBeoLCAQfiOlh0HPtLaFcEt51xfWUnIk5GX6BQPCJ1uNOo66P3yjLgdZ25kXU8YErZRk8hEDwkc7zP0adl31WlgOp9eRzqOeab+mNovC1ivwMgeAzHAjt7/uQLAdKy7GnUu/nbjfGT8BfvNtTESY1+tgvaOj+78py02s782LqufobFMFJXr6EQPCx1JMP0+B9dxDlc/JSU+Lxgq6PfAEtAx9DIPhc4a3V1P/vX6bCupXyUtOI9k2n3n+7k1qOOEFeAp9BIDQBNT1Kw/PmGi2GZsPjBT3XfJNiU2fIS+BDCIQmwmc6DPzkFlLeXiMv+U60Zyp1f/Ir1HbK++Ql8DEEQpPR8jmjpTDyu5+Rum2TvOy5SEe3sS6h47yPULSzR14Gn0MgNCktn6f0gt/T6O/nGeMMXotOmaEHwRXU/t4PUrStQ16GJoFACIDs0oWU+vNDlHnxqbHDdF2UPPIkaj/ncmMvA+x01PwQCAGijg5RdsnzlF28gDKLnyVteEDeYlmktU0PgZOp9bhTqeW40yjWN13eAk0MgRBQ/G1VNq6j/KqllNM/+LGlsmUDKTzuUOcRetEpu1Fst70osc9BlJg5x/iI679GSyC4EAgho+ldCmX7ZqP1oI4Ok5ZJkVbIG/sZct8/0tFlLEWOTd/TOGUKwgWBAAAlmEMKACUIBAAoQSAAQAkCAQBKEAgAUIJAAIASBAIAlCAQAKAEgQAAJQgEV2FSKPgbAsFVZWcQYMY4+BACwSvygBIjIBAS4C0Egl8YAYEWBHgLgeBXsgVRhKAAByEQmk21oACwwf8DYrk0kr9CmtIAAAAASUVORK5CYII=;" vertex="1" parent="1">
          <mxGeometry x="890" y="-430" width="100" height="100" as="geometry" />
        </mxCell>
        <mxCell id="8M1PxrnFKsvRRrVdLFiL-41" value="" style="endArrow=classic;html=1;entryX=0;entryY=0.5;entryDx=0;entryDy=0;exitX=1;exitY=0.5;exitDx=0;exitDy=0;" edge="1" parent="1" source="8M1PxrnFKsvRRrVdLFiL-22" target="8M1PxrnFKsvRRrVdLFiL-36">
          <mxGeometry width="50" height="50" relative="1" as="geometry">
            <mxPoint x="650" y="-410" as="sourcePoint" />
            <mxPoint x="700" y="-460" as="targetPoint" />
          </mxGeometry>
        </mxCell>
        <mxCell id="8M1PxrnFKsvRRrVdLFiL-42" value="" style="endArrow=classic;html=1;entryX=0;entryY=0.5;entryDx=0;entryDy=0;exitX=1;exitY=0.5;exitDx=0;exitDy=0;" edge="1" parent="1" source="8M1PxrnFKsvRRrVdLFiL-22" target="8M1PxrnFKsvRRrVdLFiL-39">
          <mxGeometry width="50" height="50" relative="1" as="geometry">
            <mxPoint x="571" y="-373.9000000000001" as="sourcePoint" />
            <mxPoint x="870" y="-590" as="targetPoint" />
          </mxGeometry>
        </mxCell>
        <mxCell id="8M1PxrnFKsvRRrVdLFiL-44" value="" style="endArrow=classic;html=1;entryX=0;entryY=0.5;entryDx=0;entryDy=0;exitX=1;exitY=0.5;exitDx=0;exitDy=0;" edge="1" parent="1" source="8M1PxrnFKsvRRrVdLFiL-1" target="8M1PxrnFKsvRRrVdLFiL-36">
          <mxGeometry width="50" height="50" relative="1" as="geometry">
            <mxPoint x="630" y="-860" as="sourcePoint" />
            <mxPoint x="880" y="-390" as="targetPoint" />
          </mxGeometry>
        </mxCell>
        <mxCell id="8M1PxrnFKsvRRrVdLFiL-45" value="" style="endArrow=classic;html=1;exitX=1;exitY=0.5;exitDx=0;exitDy=0;" edge="1" parent="1" source="8M1PxrnFKsvRRrVdLFiL-1">
          <mxGeometry width="50" height="50" relative="1" as="geometry">
            <mxPoint x="541" y="-865" as="sourcePoint" />
            <mxPoint x="890" y="-390" as="targetPoint" />
          </mxGeometry>
        </mxCell>
        <mxCell id="8M1PxrnFKsvRRrVdLFiL-46" value="Alert Manager 1" style="text;html=1;strokeColor=none;fillColor=none;align=center;verticalAlign=middle;whiteSpace=wrap;rounded=0;" vertex="1" parent="1">
          <mxGeometry x="890" y="-957.65" width="100" height="20" as="geometry" />
        </mxCell>
        <mxCell id="8M1PxrnFKsvRRrVdLFiL-47" value="Alert Manager 2" style="text;html=1;strokeColor=none;fillColor=none;align=center;verticalAlign=middle;whiteSpace=wrap;rounded=0;" vertex="1" parent="1">
          <mxGeometry x="890" y="-330" width="100" height="20" as="geometry" />
        </mxCell>
        <mxCell id="8M1PxrnFKsvRRrVdLFiL-50" value="" style="shape=image;verticalLabelPosition=bottom;labelBackgroundColor=#ffffff;verticalAlign=top;aspect=fixed;imageAspect=0;image=data:image/jpeg,/9j/4AAQSkZJRgABAQAAAQABAAD/2wCEAAkGBxAPEA4PEA8PDxAQDw8QDxAPDxANDw8PFREWFhURFRUYHSggGBolGxUVITEhJSkrLi4uFx8zODMtNygtLisBCgoKDg0OGBAQGi0lHx4vLS0tLSstLS0tLS0tLS0tLS0tLS0tKy0tLS0tLS0tLS0wLS0tLS0tLS0tLS0tLS0tLf/AABEIAOEA4QMBEQACEQEDEQH/xAAcAAEAAgMBAQEAAAAAAAAAAAAABQYBBAcDAgj/xABBEAABAwIBCAQLCAEEAwAAAAABAAIDBBEhBQYSEzFBUXFhgZGhBxQiMjNCUnJzkrIVI1OCorHB0ZNDYsLhY6Pw/8QAGwEBAAIDAQEAAAAAAAAAAAAAAAEDAgQFBgf/xAAyEQEAAgEBBQYGAgIDAQEAAAAAAQIDEQQSITFRBRMyQXGhYYGRsdHhwfAzUgYiQhQj/9oADAMBAAIRAxEAPwDuKAgjarLULC5jXCSRlg5rT5pO5x3bFZTHNmtk2qlZmI4zCKnyxK7YQwcGj+Sr4xVhp32rJPLg1HVbztkefzOWe7HRTOW085ljxh3tu+YpuwjvLdTxh3tu+Ypuwd5bqeMO9t3zFN2DvLdWPGHe275im7B3lurPjDvbd8xTdg7y3U8Yd7bvmKbsHeW6njDvbd8xTdg7y3U8Yd7bvmKbsHeW6njDvbd8xTdg7y3U8Yd7bvmKbsHeW6njDvbd8xTdg7y3VEZenkGg8SSAYtNnuHSN/NcXtek13clfSfvH8tzZMkzrWUR9oS/iy/5H/wBri95brP1bmp9oS/iy/wCR/wDad7brP1NTx+X8WT/I/wDtO8t1n6mp9oS/iyf5H/2ne26z9TVj7Ql/Fl/yO/tO9t1n6mrP2hL+LL/kd/ad5brP1NX0zKUwxE0o5SvH8qe9v/tP1lOqSos6quMj73WD2ZQH9+3vV9Nsy189fU1WrI+d0MxDJRqHnZpG8bj0O3da6GHbqX4W4T7MolY1vJEBAQUjO/Okgupqd1reTLK0433sYf3KsrTzlx9u26dZx459Z/iFXyHVaMwbueC3r2g/x1q+nNy8N9LadVkurW3qXUjCDKAoGFIIMoMIMoCgYUjKgauUYNZE9u+12+8MQtXbcPfYLUjn5escYW4b7t4lUwvGuuygXQEGLoAQLoMgqR6Nep1FrzWznMJbDO4uhODXnExcLn2f2XQ2TbJpO7fl9v0ziXQQV2mQggM88sGlgsw2lmuxhG1ot5T+oHtIWVI1lo7ftHc49I525flyxzle83Mvljy0hw2ggjmDgiInTiusMoe1rxsc0OHWFfzdGJ1jV9qUiAgICAgICAgICAgIKnlGDVyvbuvccjiP66l4zbcPc57V8ucek8f06+G+/SJay1VogICAgwAgygXQbtPQyv2NIHF3khYTmpXnLYx7Nlvyj6uiZoVDtVqJHaTox5B/8e4dNtnKy7HZe2xlicc868vT9LMuz2xREzOqwLrqHK8+q4y1kjb+TCGxt4XtpOPabdSupHB5rtHLv55j/XgrxWbQYQWXN2fSiLN7HfpOI779itpPBuYLa106JVZrxAQEBAQEBAUApBAQEELnFD5kn5D+4/lcDtrD4Msek/eP5b2x351+aEXBbwgICAg2KeglfsYQOJ8kd6rtlpXnK/Hs2S/KEjBkUeu+/Q3AdpVFtp/1huY+z4/9z9EhBSRs81gB47T2la9slrc5buPDjp4Ye6wWtvJlRq5o3btIA+6cD+629izTiz0t8dJ9J4Kc1N7HMLsvbuK4nlSQuqKlx9aeY/8AsK2I5PH5p1yWmes/dqqVYgksgz6EwG54LevaP2t1rKk8V2C2lvVaFc3RAQEBAQEBAQEBAQEGvlCDWRPbvtdvvDELV2zD32C1PPTh6xxhZhvuXiVSC8Y7Ag2IKKR/msNuJ8kdpWFsla85XY9nyX8MJCDIvtv6mf2f6Wvbaf8AWG5j7P8A95+iQgo42eawX4nE9pVFslrc5buPBjp4Ye6rXMoCIESw4qJ5C3+PFez/APplx+6hyKv9NN8aX6yuxHJ4fJ47es/d4qVYgyxxBBG0EEcxsRMcOK7QSh7WvGxzQ4dYV8OjWdY1falIgICAgICAgICAgIPWGne/zWk9WHasLXrXnK2mG9/DCFqs3yyV4e6wvcNaMbHHavDdoX7naL1rHxj0nj+no9l2LfxxN5+j3goYmeawX4nyj37FzLZb25y6WPZ8dOUNlVrhBhEiDKIEBEvlyTyFjXqHNcvrvTTfGl+sr0Ucngcvjt6z93ipViDCJWXN2fSjLN7HYe67Ed91bSeDbwW1rp0SyzXiAgICAoBSCAg9IoHP81pPIYdqwtetecrKYr38MJCDIzz57g3oGJVNs8eUNymwT/7n6JGDJkTPV0jxdj3Kq2S0+bbps+OnKPq3ALbMFWvQeccHmSD3D+4/lef7cw8KZY9J+8fz9W/sV+dfmhV55viJEGEBBlARAiXy5J5Cxr1DmuYV3ppvjS/WV6KOTwOXx29Z+7wUqxEiISOQZ9CZo3PBYee0d4t1rKk8V2G2lvVaVc3RAQEBAUD7ihc/zWl3IKLWivOWdMV7+GNUhBkZ5xcQ0dpVNs8eUNymw2nxSkYMlxN2jSPF2PcqbZbT5tumzY6eX1bjWgYAW5YKtsMoCAg1spQayJ7d9rjmMQtbbMHfYL085jh6xxj3WYb7l4lUl4d22EGUBAQEGEGUHy5J5Cxr1DmuYV3ppvjS/WV6KOTwOXx29Z+7wUqxAQZa4ggjAggjoIOCJ5LtTyh7GvGxzQeV9yvji6FZ1jV9qWQoH3HE52DWk8hdRNorzlnTHa/hjVvwZHkd5xDB2lU2zx5Numw2nxTokIMkxN2gvP8Au2diptltLcpsuKvlr6t5rQMAAB0YKtsMoBNtuCADdBmyDCAgIKllKDVyvbuvccjivFdoYe52i9fKeMek/vWHZ2e+/jiWqtNcygIMICAgIMO3pPIWNeoc1y+u9NN8WX6yvRRyeBy+O3rP3eKlWICAgs2bEhkjdGAXFjsLC/kux/e6zraIji3tli143axrossGSJHedZg6cT2LG2eI5OlTYbz4p090hBkmNu27z07OxU2y2luU2TFXy19W8xgbgAAOgWVTZfSAg5/nV4SWQudDRNZPI24dM+5gY7g0DGQ9YHSVnFNeayuPXm57lLOauqSTLVzkY+Qx5gjtw0I7A9d1ZFYhbFIhDPia43LWk8SASpZDYWjENaDxAAKCSo8tVcBBiq6mO2wCaQs+QnR7lGkMZrE+S0ZI8JtbFYVDY6pmFyQIJuek0aJ5aPWsZpHkxnFHk6Pm3nPTZQaTA4h7ADJDINGWO++2xw6QSFXMTCm1ZjmmlCEJnHB5knNp/cfyuB25h1imWPLhP8f34t/Yr8Zr80GvOugygICDCDKDCDDknkLGvUOa5fX+mm+NL9ZXoo5PA5PHb1n7vFSwfTGF2ABPIXTUbMdA47SG95WE3hO62o6Jg3aXP+ljNpZbsJ3Nep1VQwbGyAxncLnze8Adawlvdn5NzNEeVuH4XlYvRiAgIKB4Vc43QxsoonaL52l0zgbObBcgMHDSIPU08VnSNeKzHXXi5MrV4gwXAbSAgaQ4hBlAQdU8D2Sy2Koq3D0rhDF7jLl7h0FxA/IVXefJTlnjo6Iq1TXyjBrInt32uOYxC1tsw99gtj6xw9ece6zFfcvFlQXh3bZQEBECAgIl8uUTyFjXqXNc5qqFzpZibNGtk6T55XoN6NHgslf+9vWfu9I6Fg23dz2dixm0o0hsAAYAWHAYBYpZQEGWuIIINiCCDwI2FExMxOsOj0dQJY45Bse0O5EjEdqwerxZIyUi8eb2RYICDgufdUZco1jibhsuqb0CMBlu0E9aurybFI/6oFZM0xmlkQ19VHT6RYyzpJXDzmxNte3SSQOu6i06QxtbSNXcMlZFpaRobBBHHYYuDQZHdLnnynHmVRMzLXmZnm3ZYmvFnta8cHNDh2FEK5lfMPJ9SDaEU79z6a0Vj7nmHsWUXmGcXmFCyp4NK2ORjYSyeJ7w3Wi0bogT50jCdg/2k7Nyzi8LIyR5utZMoWU0MVPGLMiY1jb7Tba49JNyekquZ1UTOs6tlQCCpZTg1cr27r6Q5HFeL7Rw91tN6+U8Y+f71djZ772OJay0l4iBARLCAgw5J5Cxr1DmqVVekk+I/wCoruPC5PHb1l5owEGEGUAILfmfVaUT4jtjdce67H9w7tWMu72Xl3sc0/1+0/vVPqHTEBB+fs7oizKFe07fGpndT3lw7nBX15Q2a8oRClkncy8uNoKtk72l0ZY6KXRF3CNxB0gN9i1ptwBUWjWGN66w7hk3KcFUzWU80czeMbg4jocNrT0HFUTGjWmNG2oBSCAgICCFzjgwZIN3kn9x/PauD25h1rTLHlwn58v78W9sV+M1+aCXnHRZRAiRECJEHy5J5Cxr1DmqVV+kk+I/6iu48Lk8dvWXmjAQEBAQSubVVq6hl9kl4z1+b3gdqiW72fl3M0dJ4fj3XlYvRiAg5R4WshOZM2uY28cwbHMQPMmaNFrj0OaAObekK2k+S7Hbho58s1ogywlrg5pLXDY5pLXDkRiEEtS50ZQiwZXVI9+Qzjsk0go3YY7leidyf4Ta+O2tbBUt36TDDIfzM8kfKsZxwxnFC7ZA8IVHVFsby6llcQA2YjVvdwbIMNptZ2iTwWE0mFc0mFuWLAQEGvXwayN7d5Fx7wxC19rw99htj6xw9fL3WYr7l4sqC8M7bKAgIhhEsoPlyieQsa9S5ql1XpJPiP8AqK7jwuTx29ZeSMBAQEBBkOIIIwINweBG9ExMxxh0eiqBLHHIPXaHcjvHbdYPV4skZKRePN7IsEHnU07JWPjkY18b2lr2OF2uadxCDlucngzlYXSULtazbqJHBsrOhrzg8c7HmrYv1XVydVEraOWB2hNFJC/2ZWOjJ5X2jpCzjisidXgiRAQCEHSfBhnW/Tbk+d5e1wPir3G7mkC5hJ3iwJHC1uAFd6+cKclPOHT1WqEBBU8qQauV43E6Q5HH+14ztHD3W02jynjHz/ersbPfexxPyaq0V4gIhhEsoPlyTyFjXqHNUqq9JL8R/wBRXceFyeO3rLzRgICAgICC3ZnVWlG+I7Y3aQ913/YPasZdzsvLrjmnT+f2sCh1BAQEHnNC2Rpa9rXtO1r2h7T1FBBVmZGTZdtJGw8YS+C3UwgdynfllF7dVcyp4LIXAmmqJI3bmTASs5XABHPFZRk6s4yz5ucZYyVNRyugnZoPABFjpNe07HtO8Gx7DvVkTqtiYnjDSUpe1HUmGSKZuDopGSDmxwd/CTxRMaw/SQN8eOK12qICCGzjgwZINx0TyOI/+6Vwu3MOtK5Y8uE+k/v7t7Yr8ZqgV5t0WUGEBAQYck8hY16hzVLqvSSfEf8AUV3Hhcnjt6y8kYCAgICAglM26rV1DL7H/dn82z9QCiW5sGXczR0nh/fmvSxekEFcz6zj+z6bSZYzyksgBxANvKkI3ho7yBvWVY1llSusoTNbwkQzBsVbo08uAE2ynk6Sf9M88OncptTTkytjmOS+tIIBBBBFwRiCOIKrViDCDlXhiqY3VFJG0gyRxSGS20B7m6APyuNunpVuPkuxcpc+Vi1lsReQxuLnkNaOJcbD90H6WAtYcMFrNRlSCDwroNZG9nEYcxiO9UbVh77DbH1j38vdnivuXiynrwruMoCAiGHOABJIAG0k2AU80xGvCEJlDOilivZ+tdwiGmPm83vWzTYst45aev8AdW7i7Pz38tPX8c1s+1B7B7QvS9xPVyO4nqrdV6ST4j/qK6r57k8dvWXmjAQEBAQEGQSMRgRiDwKETpxh0agqBLFHIPXaCeg7x23WD1mHJ3lK36vdFjhvhDyuaqvmsbx05NPGN3kny3cy+/UArqRpDYxxpCsrJmksj5fq6PCnqJI23vq8HxHj924FovxABUTWJYzWJWen8KNa0WfDSyHiGyxnr8shY93DDuoeFf4SsoSgtj1FOCLaUcZfIOReSP0pFITGOFQllc9znvc573Euc55LnOcd5JxJWazk+EFp8HORjVV0biLxUxbPId2kD923mXC/JpWN50hhknSHblQ12VIICCp5Vg0JXjcTpDkf+7rxvaWHutptHlPGPn+9XY2a+9jj4cGoSACTgBtJwAWivQ9dnNSxXGs1rvZiGn+rze9bOPY8t/LT1bmLYM1/LT1/uqv12eUzriGNsQ9p33j+fAd63cfZ9I8c6+zoYuy8ccbzr7R+fsgKytlmN5ZHycA43aOTdg6lu0x1p4Y0dDHipj8EaNZ+w8islkOvLpPHI6r9JJ8R/wBRW4+aZPHb1l5owEBAQEBAQW3M6qvHJEdrHaTfddt7we1Yy7nZeXWk06fz+1hUOooed3g7ZUvfUUjmwzPJc+J99TI44lwIxY4nbtB6MSs6305rK5NOEuZZWyLU0Z0aiCSLGwcReN3uvHkntVkTE8l0TE8mgpSICAgms3M2KqvcNUzRivZ07wRE0b7H1z0DrttUTaIY2tFXas3shw0EDYIRv0pHutpyyEYvd/W4AKiZ1a9rTM6pNQgQZJsCTgBtJwAUkcVfynnlQ09wZtc8epANab8NLzR1lZRSZdLB2RtWbju6R1tw9ufsomc2fUkxBghbCG3bpPOteQd9sAO/aub2lsVMkVvby4fX++70Gx9jUwx/+ltdenCPz9lNrK+aY3llfJ0OPkjk0YDsWjTFSnhjR2MeHHj8ERDXWawQFI+X7DyKhMc3Xl0njkdV+kk+I/6itx80yeO3rLzRgICAgICAgk83KnVVEd9j/u3fm2fqsolubDl7vNHx4fX9r2sXpBBhzQQQQCDgQRcEdIQQFfmVk6fF1JG07bwl1PjxswgHrCnemGUXtCHm8F9A7zZKuPobJG4fqYSsu8ll3svmPwW0IOM1W7oMkIHdGneSd7KXyfmPk6AhzaZsjuM7nT/pcdHuWM3ljN7SsLWgAAAAAWAAsAOAWLFk8dw29CCBynnhQ09wZxK8X8iAa43G4keSDzIWcUmXRwdk7Vm4xXSOtuH79lTyn4R5nXFPAyIe3Kda/wCUWaD8yzjHHm7WD/j+OvHLaZ+EcI+vP7KplHK1RU+nnklHsudZg5MFmjsWcREcnZwbLhwf4qxH3+vNpI2HzI24I4rDLTfpNeoj159kICApHy/YeRUJh15dJ45H1fpJPiP+orcfNMnjt6y8kYCAgICAgIAPDA7jwKHo6Nk+p1sUcntNBPQ7Y4dt1g9Xhyd5jrfq2EWiAgwoBBB5Tzuoae4dOJHi/kQffOuNxI8kHmQs4pMujs/ZW1ZuMV0jrPD9/SFTyn4SJXXFNAyMe3MdY+3uiwB6ys4x9XZwf8fxxxzX1+EcI+vP7KnlLLFTU+nnklHsk6MfyNs3uWUREcnawbLgwf4qRH3+s8WipbAgICAg0ahtnHpxXF2qm5ln48WUPNawICD5fsPIomHXl0njkfVekl+I/wCorcfNMnjt6y8kYCAgICAgICC2Zm1V2SRHax2k33Xbe8fqWMu32Xl1pNOnH6rEodUQQmVM66KmuHzte8f6cP3z78Do4N6yFMVmXQ2fsvas3GtNI6zwj++ipZT8JEhuKanawbnznTd8jcB2lZxj6uzg/wCPUjjmvr8I4e8/iFTynluqqvTzySA+pfQj+Rtm9yziIh2sGx4MH+OkR8fP6zxaAUtkQEBAQEBAQa9W3AHh/K0NvprWLdP5TDVXLSICkfL9h5FQmHXl0njkdV+kl+I/6itx80yeO3rLzRgICAgwgygICDzyfnZSUVQwyTNN7xuZH96/ytgIGzG22yndmYdjsrZNotnru10i3DWeEcf23Mp+El5uKanDf98503fI02HzFIp1fQMH/HqxxzX1+FfzP4VPKeXaqquJqiR7T6gOhH8jbA9azisQ7WDYtnwf46RE9ec/WeKOUtoQEBAQEBAQEBAQfL23BHELDJTfpNeoj159kICD5fsPIomHXl0njkfWttLMOEsg/WVuPmuWNL29Z+7xRWygICBZBF1+cFLBcPmaXD1GfePv0huzrssorMtzDsG0ZuNa8Os8I91br8+ycIIQOD5jc/I0/wArOMfV1cPYkc8tvlH5n8K5X5Zqai4lme5p9QHQj5aLbA9asisRydXDsmDD4Kxr15z9ZaAw2YclLZW+jm1kbH+0BfnsPfdVy9ts2bvsVcnWPfz93soXiAgICAgICAgICAgINGobZx6cVxdrpuZZ+PFlDzWsCD5k2Hkg7f8AY8vArq7kvD//AE1RmdNNqqqXg+0jfzbf1ArYeF27HuZrfHii1LUZRCNyhl2lp7iSZukPUb94/rDdnWsorMtvDsOfN4K8Os8I91br8+ziIIeT5j/wb/azjF1dXD2J55bfKPzP4VvKGW6mouJJnlp9Rv3bLcNFu3rurIrEcnVw7Hgw+Csa9ec+6PCltCAgIJ3N2a7Xxn1TpDkdveO9YWh6LsXNrS2OfLjHz/f3TCxdsQEBAQEBAQEBAQEBBr1bcAeH8rR26mtIt0/lMNVcpIgkc2cnmqraWAC4fMzS+G06T/0tKsxV3rxDV23N3Oz3v0j3nhHu/R1l2HzpW8+qMGndUWJNO1z3BrS5xitd1gNtrX6ipho7bss5ojd5w4pXZ9bRBDfg+Y/8G/2rox9UYexPPLb5R+Z/CvV+Xaqe4kmfon1Gfdstws3b13VkViHUw7Fgw+Gsa9Z4z7/wjbKW2ICAgICAg3Mkz6ErDucdA8j/AN2UTybvZ2butorPlPCfn+9FpVb2AgICAgICAgICAgICDD23BHELDJTfrNeojlwOXNk+SUJdU8Dub5a2TKEjbF4MVPf2L+XJ1kAD3TxW/smPT/vLynb+2RaY2evlxn18odOW482IOCeFPweOo3yVtIzSpHEuljaLmlcdpA/D+nkr6X14S2ceTXhLmwKtXMokQEBECJEBAQW+in1kbH8Wi/vbD33Vcva7Lm77DW/WPfz93sobAgICAgICAgICAgICIaFULOPTiuNtePdyz8eKdVmzEzNkyjIJJAWUjHeW/YZSP9Nn8ndzUYME3nWeTk9p9p12Wu7XjeeUdPjP8Q7nBC2NrWMaGsY0NY1os1rQLAAcLLpRGnCHirWm0za06zL0UsRBgi+BxBwIOwhBzHPHwQwVBdNQObSym5MLgTTPPRbGPquOhW1yac11csxzcoy1mZlKiJ11HNoj/Uibr4iOOky9uuyti8Sui9Z81fLwMLgc8FLM0xxHaFIaY4jtCBpjiO1A0xxHagawcR2hA0xxHaEE5m9VjRfHcYHSGI2HA9/7rC0PQ9jZpmtsXTjHz/vul9aOI7Vi7fE1o4jtQ4mtHEdqHE1o4jtQ4mtHEdqHE1o4jtQ4mtHEdqHE1o4jtQ4mtHEdqHE1o4jtQ4mtHEdqHE1o4jtQ4pLJ2QqupIENNK8H1tHQj+d1h3qJmGrm2zBh8d4j3n6RxXjIHgwbdslc8SEYiCIkM/O/Au5C3MrXy465JiZ8nB2vt2Zia7PGnxnn8odGhhaxrWMa1jGgBrWgNa0DYABsCyiNHnbWm0zNp1mX2iBAQEBAQUvO30iyhnHJXlKRAQEBAQbFH535T+4US2dk8fybqxdEQEBAQEBAQEBAQSGRPSDmjX2jwLgEckQEBAQf/9k=;" vertex="1" parent="1">
          <mxGeometry x="1310" y="-640" width="65" height="65" as="geometry" />
        </mxCell>
        <mxCell id="8M1PxrnFKsvRRrVdLFiL-51" value="" style="endArrow=classic;html=1;entryX=0;entryY=0.5;entryDx=0;entryDy=0;exitX=1;exitY=0.5;exitDx=0;exitDy=0;" edge="1" parent="1" source="8M1PxrnFKsvRRrVdLFiL-36" target="8M1PxrnFKsvRRrVdLFiL-50">
          <mxGeometry width="50" height="50" relative="1" as="geometry">
            <mxPoint x="980" y="-540" as="sourcePoint" />
            <mxPoint x="1030" y="-590" as="targetPoint" />
          </mxGeometry>
        </mxCell>
        <mxCell id="8M1PxrnFKsvRRrVdLFiL-52" value="" style="endArrow=classic;html=1;entryX=0;entryY=0.5;entryDx=0;entryDy=0;exitX=1;exitY=0.5;exitDx=0;exitDy=0;" edge="1" parent="1" source="8M1PxrnFKsvRRrVdLFiL-39" target="8M1PxrnFKsvRRrVdLFiL-50">
          <mxGeometry width="50" height="50" relative="1" as="geometry">
            <mxPoint x="1000" y="-460" as="sourcePoint" />
            <mxPoint x="1185.0000000000002" y="-577.4999999999999" as="targetPoint" />
          </mxGeometry>
        </mxCell>
        <mxCell id="8M1PxrnFKsvRRrVdLFiL-56" value="Prometheus" style="text;html=1;strokeColor=none;fillColor=none;align=center;verticalAlign=middle;whiteSpace=wrap;rounded=0;" vertex="1" parent="1">
          <mxGeometry x="450.5" y="-824.65" width="100" height="20" as="geometry" />
        </mxCell>
        <mxCell id="8M1PxrnFKsvRRrVdLFiL-57" value="Prometheus" style="text;html=1;strokeColor=none;fillColor=none;align=center;verticalAlign=middle;whiteSpace=wrap;rounded=0;" vertex="1" parent="1">
          <mxGeometry x="480" y="-340" width="100" height="20" as="geometry" />
        </mxCell>
        <mxCell id="8M1PxrnFKsvRRrVdLFiL-67" value="Notification&amp;nbsp;" style="text;html=1;strokeColor=none;fillColor=none;align=center;verticalAlign=middle;whiteSpace=wrap;rounded=0;" vertex="1" parent="1">
          <mxGeometry x="1323" y="-560" width="40" height="20" as="geometry" />
        </mxCell>
      </root>
    </mxGraphModel>
  </diagram>
</mxfile>
